{"glyphs":{"0":{"ha":961,"x_min":63,"x_max":899,"o":"m 481 -18 q 276 35 372 -18 q 122 191 181 89 q 63 431 63 293 q 121 671 63 568 q 275 827 179 774 q 481 881 371 881 q 685 826 589 881 q 840 670 781 772 q 899 431 899 568 q 840 191 899 293 q 686 35 782 89 q 481 -18 590 -18 m 479 92 q 622 135 558 92 q 720 255 685 178 q 756 431 756 332 q 719 608 756 531 q 621 728 683 685 q 479 771 558 771 q 338 728 400 771 q 240 608 275 685 q 206 431 206 531 q 241 255 206 332 q 339 135 276 178 q 479 92 401 92 z "},"1":{"ha":635,"x_min":68,"x_max":583,"o":"m 583 115 l 583 0 l 101 0 l 101 115 l 300 115 l 300 688 q 213 617 267 646 q 96 576 160 589 l 68 686 q 212 750 147 701 q 300 868 276 799 l 436 868 l 436 115 l 583 115 z "},"2":{"ha":874,"x_min":56,"x_max":797,"o":"m 797 276 l 797 0 l 56 0 l 56 115 q 148 305 63 231 q 394 446 233 379 q 538 511 489 486 q 610 565 586 536 q 633 631 633 593 q 580 728 632 690 q 444 765 528 765 q 129 619 285 765 l 58 704 q 456 881 235 881 q 610 851 538 881 q 727 766 682 822 q 772 631 772 710 q 733 508 772 560 q 629 420 694 457 q 453 338 564 383 q 310 272 361 299 q 229 207 260 244 q 194 115 199 169 l 682 115 l 682 276 l 797 276 z "},"3":{"ha":821,"x_min":24,"x_max":758,"o":"m 532 429 q 758 221 758 383 q 713 101 758 154 q 586 17 667 47 q 406 -14 506 -14 q 193 22 285 -14 q 24 115 101 58 l 79 215 q 231 132 149 164 q 407 100 314 100 q 558 137 499 100 q 617 232 617 174 q 542 335 617 299 q 313 372 468 372 l 194 372 l 194 476 l 313 476 q 514 518 444 476 q 583 628 583 560 q 530 726 583 688 q 397 765 476 765 q 247 734 317 765 q 107 646 178 703 l 39 738 q 206 841 114 801 q 403 881 299 881 q 563 852 489 881 q 681 769 636 824 q 725 640 725 715 q 673 513 725 568 q 532 429 621 458 z "},"4":{"ha":883,"x_min":31,"x_max":864,"o":"m 864 188 l 681 188 l 681 -18 l 544 -18 l 544 188 l 31 188 l 31 301 l 533 881 l 681 881 l 681 301 l 864 301 l 864 188 m 544 301 l 544 733 l 171 301 l 544 301 z "},"5":{"ha":856,"x_min":61,"x_max":794,"o":"m 447 531 q 619 500 540 531 q 747 408 699 469 q 794 257 794 346 q 748 112 794 178 q 622 8 701 46 q 449 -31 543 -31 q 242 3 331 -31 q 61 92 153 36 l 107 206 q 432 86 288 86 q 588 133 522 86 q 654 260 654 179 q 589 374 654 335 q 411 414 524 414 q 273 399 340 414 q 119 351 206 383 l 119 393 l 118 393 l 118 861 l 761 861 l 761 744 l 249 744 l 249 504 q 447 531 354 531 z "},"6":{"ha":869,"x_min":63,"x_max":811,"o":"m 485 544 q 645 515 571 544 q 765 426 719 486 q 811 278 811 367 q 764 126 811 193 q 637 20 717 58 q 464 -18 557 -18 q 261 33 353 -18 q 116 178 169 83 q 63 397 63 272 q 121 645 63 535 q 282 818 179 756 q 514 881 385 881 q 665 860 599 881 q 794 807 731 840 l 749 699 q 642 748 697 731 q 519 765 588 765 q 371 728 439 765 q 258 623 303 692 q 203 463 214 554 q 343 524 278 504 q 485 544 408 544 m 674 276 q 615 394 674 351 q 468 436 557 436 q 200 369 333 436 q 244 225 206 286 q 341 131 282 164 q 467 99 400 99 q 615 149 556 99 q 674 276 674 199 z "},"7":{"ha":839,"x_min":61,"x_max":804,"o":"m 804 856 l 804 739 l 329 -19 l 215 40 l 657 739 l 178 739 l 178 543 l 61 543 l 61 856 l 804 856 z "},"8":{"ha":929,"x_min":74,"x_max":857,"o":"m 711 418 q 857 232 857 349 q 813 109 857 167 q 683 17 768 51 q 483 -18 599 -18 q 260 19 353 -18 q 120 119 167 57 q 74 250 74 181 q 114 373 74 319 q 215 463 154 426 q 111 628 111 529 q 154 753 111 694 q 277 847 197 811 q 461 882 357 882 q 656 844 571 882 q 788 746 742 807 q 833 617 833 685 q 799 504 833 554 q 711 418 764 454 m 457 765 q 309 728 372 765 q 246 632 246 692 q 303 544 246 576 q 474 489 360 511 q 608 456 553 474 q 674 528 650 492 q 699 604 699 564 q 668 687 699 650 q 583 744 638 724 q 457 765 528 765 m 486 97 q 655 134 588 97 q 722 233 722 171 q 694 297 722 272 q 615 338 667 322 q 469 374 563 354 q 304 419 374 392 q 208 263 208 342 q 244 180 208 218 q 344 119 281 142 q 486 97 407 97 z "},"9":{"ha":869,"x_min":58,"x_max":806,"o":"m 406 881 q 608 830 517 881 q 752 685 699 779 q 806 465 806 590 q 748 217 806 328 q 588 44 690 107 q 356 -18 485 -18 q 75 57 206 -18 l 119 163 q 227 115 172 132 q 349 97 282 97 q 497 134 429 97 q 610 239 565 171 q 665 399 654 307 q 525 338 590 358 q 383 318 460 318 q 224 347 299 318 q 104 436 150 376 q 58 583 58 496 q 106 736 58 668 q 232 842 153 804 q 406 881 311 881 m 194 586 q 253 469 194 511 q 401 428 313 428 q 668 494 535 428 q 623 638 661 576 q 526 731 585 699 q 403 764 468 764 q 254 714 314 764 q 194 586 194 664 z "},"A":{"ha":1182,"x_min":6,"x_max":1176,"o":"m 1176 115 l 1176 0 l 722 0 l 722 115 l 878 115 l 789 338 l 378 338 l 290 115 l 457 115 l 457 0 l 6 0 l 6 115 l 154 115 l 464 839 l 321 839 l 321 953 l 857 953 l 857 839 l 715 839 l 1028 115 l 1176 115 m 747 442 l 589 839 l 578 839 l 419 442 l 747 442 z "},"Á":{"ha":1182,"x_min":6,"x_max":1176,"o":"m 1176 115 l 1176 0 l 722 0 l 722 115 l 878 115 l 789 338 l 378 338 l 290 115 l 457 115 l 457 0 l 6 0 l 6 115 l 154 115 l 464 839 l 321 839 l 321 953 l 857 953 l 857 839 l 715 839 l 1028 115 l 1176 115 m 747 442 l 589 839 l 578 839 l 419 442 l 747 442 m 488 1047 l 796 1253 l 722 1353 l 447 1100 l 488 1047 z "},"Ă":{"ha":1182,"x_min":6,"x_max":1176,"o":"m 1176 115 l 1176 0 l 722 0 l 722 115 l 878 115 l 789 338 l 378 338 l 290 115 l 457 115 l 457 0 l 6 0 l 6 115 l 154 115 l 464 839 l 321 839 l 321 953 l 857 953 l 857 839 l 715 839 l 1028 115 l 1176 115 m 747 442 l 589 839 l 578 839 l 419 442 l 747 442 m 586 1069 q 458 1103 514 1069 q 370 1188 401 1136 q 333 1297 339 1240 l 418 1314 q 478 1221 433 1257 q 586 1185 524 1185 q 693 1221 649 1185 q 753 1314 738 1257 l 838 1297 q 801 1188 832 1240 q 714 1103 769 1136 q 586 1069 658 1069 z "},"Â":{"ha":1182,"x_min":6,"x_max":1176,"o":"m 1176 115 l 1176 0 l 722 0 l 722 115 l 878 115 l 789 338 l 378 338 l 290 115 l 457 115 l 457 0 l 6 0 l 6 115 l 154 115 l 464 839 l 321 839 l 321 953 l 857 953 l 857 839 l 715 839 l 1028 115 l 1176 115 m 747 442 l 589 839 l 578 839 l 419 442 l 747 442 m 339 1086 l 550 1331 l 622 1331 l 835 1086 l 792 1046 l 585 1218 l 383 1046 l 339 1086 z "},"Ẩ":{"ha":1182,"x_min":6,"x_max":1176,"o":"m 1176 115 l 1176 0 l 722 0 l 722 115 l 878 115 l 789 338 l 378 338 l 290 115 l 457 115 l 457 0 l 6 0 l 6 115 l 154 115 l 464 839 l 321 839 l 321 953 l 857 953 l 857 839 l 715 839 l 1028 115 l 1176 115 m 747 442 l 589 839 l 578 839 l 419 442 l 747 442 m 339 1086 l 550 1331 l 622 1331 l 835 1086 l 792 1046 l 585 1218 l 383 1046 l 339 1086 m 800 1283 q 829 1333 819 1311 q 839 1379 839 1354 q 816 1434 839 1414 q 751 1454 793 1454 q 629 1415 694 1454 l 599 1490 q 767 1539 676 1539 q 880 1503 833 1539 q 926 1408 926 1467 q 903 1322 926 1361 q 835 1238 881 1283 l 785 1258 l 800 1283 z "},"Ä":{"ha":1182,"x_min":6,"x_max":1176,"o":"m 1176 115 l 1176 0 l 722 0 l 722 115 l 878 115 l 789 338 l 378 338 l 290 115 l 457 115 l 457 0 l 6 0 l 6 115 l 154 115 l 464 839 l 321 839 l 321 953 l 857 953 l 857 839 l 715 839 l 1028 115 l 1176 115 m 747 442 l 589 839 l 578 839 l 419 442 l 747 442 m 431 1103 q 364 1124 392 1103 q 336 1179 336 1146 q 364 1235 336 1213 q 431 1258 392 1258 q 499 1236 472 1258 q 526 1179 526 1214 q 499 1124 526 1146 q 431 1103 472 1103 m 736 1103 q 669 1124 697 1103 q 642 1179 642 1146 q 669 1235 642 1213 q 736 1258 697 1258 q 804 1236 776 1258 q 832 1179 832 1214 q 804 1124 832 1146 q 736 1103 776 1103 z "},"À":{"ha":1182,"x_min":6,"x_max":1176,"o":"m 1176 115 l 1176 0 l 722 0 l 722 115 l 878 115 l 789 338 l 378 338 l 290 115 l 457 115 l 457 0 l 6 0 l 6 115 l 154 115 l 464 839 l 321 839 l 321 953 l 857 953 l 857 839 l 715 839 l 1028 115 l 1176 115 m 747 442 l 589 839 l 578 839 l 419 442 l 747 442 m 449 1353 l 375 1253 l 685 1047 l 724 1100 l 449 1353 z "},"Ā":{"ha":1182,"x_min":6,"x_max":1176,"o":"m 1176 115 l 1176 0 l 722 0 l 722 115 l 878 115 l 789 338 l 378 338 l 290 115 l 457 115 l 457 0 l 6 0 l 6 115 l 154 115 l 464 839 l 321 839 l 321 953 l 857 953 l 857 839 l 715 839 l 1028 115 l 1176 115 m 747 442 l 589 839 l 578 839 l 419 442 l 747 442 m 844 1097 l 318 1099 l 318 1199 l 844 1196 l 844 1097 z "},"Ą":{"ha":1182,"x_min":6,"x_max":1200,"o":"m 1200 -256 q 1133 -285 1165 -275 q 1058 -294 1101 -294 q 944 -257 990 -294 q 897 -157 897 -219 q 982 0 897 -67 l 722 0 l 722 115 l 878 115 l 789 338 l 378 338 l 290 115 l 457 115 l 457 0 l 6 0 l 6 115 l 154 115 l 464 839 l 321 839 l 321 953 l 857 953 l 857 839 l 715 839 l 1028 115 l 1176 115 l 1176 0 l 1079 0 q 986 -135 986 -67 q 1010 -189 986 -169 q 1069 -208 1033 -208 q 1172 -178 1122 -208 l 1200 -256 m 747 442 l 589 839 l 578 839 l 419 442 l 747 442 z "},"Å":{"ha":1182,"x_min":6,"x_max":1176,"o":"m 1176 115 l 1176 0 l 722 0 l 722 115 l 878 115 l 789 338 l 378 338 l 290 115 l 457 115 l 457 0 l 6 0 l 6 115 l 154 115 l 464 839 l 321 839 l 321 953 l 857 953 l 857 839 l 715 839 l 1028 115 l 1176 115 m 747 442 l 589 839 l 578 839 l 419 442 l 747 442 m 586 1043 q 488 1069 533 1043 q 415 1140 443 1096 q 388 1239 388 1185 q 415 1339 388 1294 q 488 1408 442 1383 q 586 1432 533 1432 q 685 1406 640 1432 q 758 1336 731 1381 q 785 1236 785 1292 q 758 1137 785 1181 q 685 1068 731 1093 q 586 1043 640 1043 m 586 1118 q 671 1153 636 1118 q 706 1236 706 1188 q 671 1322 706 1288 q 586 1356 636 1356 q 503 1322 538 1356 q 468 1239 468 1289 q 503 1153 468 1189 q 586 1118 538 1118 z "},"Ã":{"ha":1182,"x_min":6,"x_max":1176,"o":"m 1176 115 l 1176 0 l 722 0 l 722 115 l 878 115 l 789 338 l 378 338 l 290 115 l 457 115 l 457 0 l 6 0 l 6 115 l 154 115 l 464 839 l 321 839 l 321 953 l 857 953 l 857 839 l 715 839 l 1028 115 l 1176 115 m 747 442 l 589 839 l 578 839 l 419 442 l 747 442 m 706 1056 q 625 1079 658 1056 q 553 1149 592 1103 q 498 1207 518 1190 q 451 1224 478 1224 q 372 1076 383 1224 l 292 1085 q 335 1243 294 1182 q 451 1304 376 1304 q 535 1281 501 1304 q 608 1211 569 1258 q 661 1154 640 1171 q 706 1138 682 1138 q 786 1282 778 1138 l 868 1275 q 822 1117 865 1179 q 706 1056 779 1056 z "},"Æ":{"ha":1693,"x_min":1,"x_max":1589,"o":"m 1460 651 l 1460 839 l 857 839 l 940 536 l 1178 536 l 1178 663 l 1289 663 l 1289 299 l 1178 299 l 1178 426 l 969 426 l 1054 115 l 1460 115 l 1460 306 l 1589 306 l 1589 0 l 738 0 l 738 115 l 908 115 l 850 340 l 424 340 l 285 115 l 435 115 l 435 0 l 1 0 l 1 115 l 139 115 l 599 839 l 461 839 l 461 953 l 1589 953 l 1589 651 l 1460 651 m 824 443 l 724 826 l 488 443 l 824 443 z "},"B":{"ha":1050,"x_min":50,"x_max":979,"o":"m 767 493 q 979 260 979 443 q 885 67 979 135 q 615 0 790 0 l 50 0 l 50 115 l 229 115 l 229 838 l 50 838 l 50 953 l 593 953 q 827 885 744 953 q 910 706 910 817 q 872 577 910 631 q 767 493 833 524 m 371 838 l 371 533 l 558 533 q 710 572 656 533 q 765 689 765 610 q 714 801 765 765 q 583 838 663 838 l 371 838 m 601 115 q 835 271 835 115 q 773 389 835 351 q 600 428 711 426 l 371 428 l 371 115 l 601 115 z "},"C":{"ha":1050,"x_min":71,"x_max":985,"o":"m 985 204 q 812 43 917 104 q 564 -18 707 -18 q 315 45 428 -18 q 136 221 201 108 q 71 475 71 333 q 135 734 71 621 q 306 910 199 847 q 536 972 413 972 q 713 936 636 972 q 843 835 790 900 l 844 953 l 974 953 l 974 643 l 882 635 q 557 857 782 857 q 390 810 467 857 q 266 677 313 764 q 219 476 219 590 q 265 283 219 368 q 390 149 311 197 q 564 100 468 100 q 755 149 676 100 q 892 282 833 197 l 985 204 z "},"Ć":{"ha":1050,"x_min":71,"x_max":985,"o":"m 985 204 q 812 43 917 104 q 564 -18 707 -18 q 315 45 428 -18 q 136 221 201 108 q 71 475 71 333 q 135 734 71 621 q 306 910 199 847 q 536 972 413 972 q 713 936 636 972 q 843 835 790 900 l 844 953 l 974 953 l 974 643 l 882 635 q 557 857 782 857 q 390 810 467 857 q 266 677 313 764 q 219 476 219 590 q 265 283 219 368 q 390 149 311 197 q 564 100 468 100 q 755 149 676 100 q 892 282 833 197 l 985 204 m 450 1067 l 758 1272 l 685 1372 l 410 1119 l 450 1067 z "},"Č":{"ha":1050,"x_min":71,"x_max":985,"o":"m 985 204 q 812 43 917 104 q 564 -18 707 -18 q 315 45 428 -18 q 136 221 201 108 q 71 475 71 333 q 135 734 71 621 q 306 910 199 847 q 536 972 413 972 q 713 936 636 972 q 843 835 790 900 l 844 953 l 974 953 l 974 643 l 882 635 q 557 857 782 857 q 390 810 467 857 q 266 677 313 764 q 219 476 219 590 q 265 283 219 368 q 390 149 311 197 q 564 100 468 100 q 755 149 676 100 q 892 282 833 197 l 985 204 m 797 1319 l 585 1075 l 513 1075 l 301 1319 l 346 1361 l 549 1189 l 754 1361 l 797 1319 z "},"Ç":{"ha":1050,"x_min":71,"x_max":985,"o":"m 563 -18 l 528 -103 l 560 -101 q 663 -135 624 -101 q 703 -225 703 -169 q 649 -326 703 -287 q 519 -364 594 -364 q 321 -296 419 -364 l 361 -228 q 519 -286 440 -286 q 586 -269 561 -286 q 611 -225 611 -253 q 588 -178 611 -194 q 522 -162 564 -162 q 442 -168 489 -162 l 433 -156 l 492 -14 q 276 69 372 3 q 126 241 181 136 q 71 475 71 346 q 135 734 71 621 q 306 910 199 847 q 536 972 413 972 q 713 936 636 972 q 843 835 790 900 l 844 953 l 974 953 l 974 643 l 882 635 q 557 857 782 857 q 390 810 467 857 q 266 677 313 764 q 219 476 219 590 q 265 283 219 368 q 390 149 311 197 q 564 100 468 100 q 755 149 676 100 q 892 282 833 197 l 985 204 q 812 43 917 104 q 564 -18 707 -18 l 563 -18 z "},"Ċ":{"ha":1050,"x_min":71,"x_max":985,"o":"m 985 204 q 812 43 917 104 q 564 -18 707 -18 q 315 45 428 -18 q 136 221 201 108 q 71 475 71 333 q 135 734 71 621 q 306 910 199 847 q 536 972 413 972 q 713 936 636 972 q 843 835 790 900 l 844 953 l 974 953 l 974 643 l 882 635 q 557 857 782 857 q 390 810 467 857 q 266 677 313 764 q 219 476 219 590 q 265 283 219 368 q 390 149 311 197 q 564 100 468 100 q 755 149 676 100 q 892 282 833 197 l 985 204 m 550 1122 q 474 1146 504 1122 q 443 1204 443 1169 q 474 1266 443 1242 q 550 1290 504 1290 q 628 1266 597 1290 q 658 1204 658 1242 q 628 1145 658 1168 q 550 1122 597 1122 z "},"D":{"ha":1135,"x_min":50,"x_max":1064,"o":"m 517 953 q 790 899 665 953 q 990 738 915 846 q 1064 476 1064 631 q 990 215 1064 322 q 790 53 915 107 q 517 0 665 0 l 50 0 l 50 115 l 229 115 l 229 838 l 50 838 l 50 953 l 517 953 m 503 115 q 797 203 681 115 q 914 476 914 292 q 797 750 914 663 q 503 838 681 838 l 372 838 l 372 115 l 503 115 z "},"Ð":{"ha":1135,"x_min":50,"x_max":1064,"o":"m 517 953 q 790 899 665 953 q 990 738 915 846 q 1064 476 1064 631 q 990 215 1064 322 q 790 53 915 107 q 517 0 665 0 l 50 0 l 50 115 l 229 115 l 229 417 l 65 417 l 65 533 l 229 533 l 229 838 l 50 838 l 50 953 l 517 953 m 503 115 q 797 203 681 115 q 914 476 914 292 q 797 750 914 663 q 503 838 681 838 l 372 838 l 372 533 l 676 533 l 676 417 l 372 417 l 372 115 l 503 115 z "},"Ď":{"ha":1135,"x_min":50,"x_max":1064,"o":"m 517 953 q 790 899 665 953 q 990 738 915 846 q 1064 476 1064 631 q 990 215 1064 322 q 790 53 915 107 q 517 0 665 0 l 50 0 l 50 115 l 229 115 l 229 838 l 50 838 l 50 953 l 517 953 m 503 115 q 797 203 681 115 q 914 476 914 292 q 797 750 914 663 q 503 838 681 838 l 372 838 l 372 115 l 503 115 m 785 1307 l 572 1063 l 500 1063 l 289 1307 l 333 1349 l 536 1176 l 742 1349 l 785 1307 z "},"Đ":{"ha":1135,"x_min":50,"x_max":1064,"o":"m 517 953 q 790 899 665 953 q 990 738 915 846 q 1064 476 1064 631 q 990 215 1064 322 q 790 53 915 107 q 517 0 665 0 l 50 0 l 50 115 l 229 115 l 229 417 l 65 417 l 65 533 l 229 533 l 229 838 l 50 838 l 50 953 l 517 953 m 503 115 q 797 203 681 115 q 914 476 914 292 q 797 750 914 663 q 503 838 681 838 l 372 838 l 372 533 l 676 533 l 676 417 l 372 417 l 372 115 l 503 115 z "},"E":{"ha":1096,"x_min":50,"x_max":992,"o":"m 864 647 l 864 838 l 369 838 l 369 533 l 589 533 l 589 663 l 700 663 l 700 299 l 589 299 l 589 428 l 369 428 l 369 115 l 864 115 l 864 306 l 992 306 l 992 0 l 50 0 l 50 115 l 228 115 l 228 838 l 50 838 l 50 953 l 992 953 l 992 647 l 864 647 z "},"É":{"ha":1096,"x_min":50,"x_max":992,"o":"m 864 647 l 864 838 l 369 838 l 369 533 l 589 533 l 589 663 l 700 663 l 700 299 l 589 299 l 589 428 l 369 428 l 369 115 l 864 115 l 864 306 l 992 306 l 992 0 l 50 0 l 50 115 l 228 115 l 228 838 l 50 838 l 50 953 l 992 953 l 992 647 l 864 647 m 467 1047 l 775 1253 l 701 1353 l 426 1100 l 467 1047 z "},"Ě":{"ha":1096,"x_min":50,"x_max":992,"o":"m 864 647 l 864 838 l 369 838 l 369 533 l 589 533 l 589 663 l 700 663 l 700 299 l 589 299 l 589 428 l 369 428 l 369 115 l 864 115 l 864 306 l 992 306 l 992 0 l 50 0 l 50 115 l 228 115 l 228 838 l 50 838 l 50 953 l 992 953 l 992 647 l 864 647 m 814 1300 l 601 1056 l 529 1056 l 318 1300 l 363 1342 l 565 1169 l 771 1342 l 814 1300 z "},"Ê":{"ha":1096,"x_min":50,"x_max":992,"o":"m 864 647 l 864 838 l 369 838 l 369 533 l 589 533 l 589 663 l 700 663 l 700 299 l 589 299 l 589 428 l 369 428 l 369 115 l 864 115 l 864 306 l 992 306 l 992 0 l 50 0 l 50 115 l 228 115 l 228 838 l 50 838 l 50 953 l 992 953 l 992 647 l 864 647 m 318 1086 l 529 1331 l 601 1331 l 814 1086 l 771 1046 l 564 1218 l 363 1046 l 318 1086 z "},"Ë":{"ha":1096,"x_min":50,"x_max":992,"o":"m 864 647 l 864 838 l 369 838 l 369 533 l 589 533 l 589 663 l 700 663 l 700 299 l 589 299 l 589 428 l 369 428 l 369 115 l 864 115 l 864 306 l 992 306 l 992 0 l 50 0 l 50 115 l 228 115 l 228 838 l 50 838 l 50 953 l 992 953 l 992 647 l 864 647 m 410 1103 q 343 1124 371 1103 q 315 1179 315 1146 q 343 1235 315 1213 q 410 1258 371 1258 q 478 1236 451 1258 q 506 1179 506 1214 q 478 1124 506 1146 q 410 1103 451 1103 m 715 1103 q 649 1124 676 1103 q 621 1179 621 1146 q 649 1235 621 1213 q 715 1258 676 1258 q 783 1236 756 1258 q 811 1179 811 1214 q 783 1124 811 1146 q 715 1103 756 1103 z "},"Ė":{"ha":1096,"x_min":50,"x_max":992,"o":"m 864 647 l 864 838 l 369 838 l 369 533 l 589 533 l 589 663 l 700 663 l 700 299 l 589 299 l 589 428 l 369 428 l 369 115 l 864 115 l 864 306 l 992 306 l 992 0 l 50 0 l 50 115 l 228 115 l 228 838 l 50 838 l 50 953 l 992 953 l 992 647 l 864 647 m 567 1103 q 490 1126 521 1103 q 460 1185 460 1150 q 490 1247 460 1222 q 567 1271 521 1271 q 644 1247 614 1271 q 675 1185 675 1222 q 644 1126 675 1149 q 567 1103 614 1103 z "},"È":{"ha":1096,"x_min":50,"x_max":992,"o":"m 864 647 l 864 838 l 369 838 l 369 533 l 589 533 l 589 663 l 700 663 l 700 299 l 589 299 l 589 428 l 369 428 l 369 115 l 864 115 l 864 306 l 992 306 l 992 0 l 50 0 l 50 115 l 228 115 l 228 838 l 50 838 l 50 953 l 992 953 l 992 647 l 864 647 m 428 1353 l 354 1253 l 664 1047 l 703 1100 l 428 1353 z "},"Ē":{"ha":1096,"x_min":50,"x_max":992,"o":"m 864 647 l 864 838 l 369 838 l 369 533 l 589 533 l 589 663 l 700 663 l 700 299 l 589 299 l 589 428 l 369 428 l 369 115 l 864 115 l 864 306 l 992 306 l 992 0 l 50 0 l 50 115 l 228 115 l 228 838 l 50 838 l 50 953 l 992 953 l 992 647 l 864 647 m 824 1097 l 297 1099 l 297 1199 l 824 1196 l 824 1097 z "},"Ę":{"ha":1096,"x_min":50,"x_max":1097,"o":"m 1097 -267 q 1031 -296 1063 -286 q 956 -306 999 -306 q 841 -268 888 -306 q 794 -168 794 -231 q 893 0 794 -71 l 50 0 l 50 115 l 228 115 l 228 838 l 50 838 l 50 953 l 992 953 l 992 647 l 864 647 l 864 838 l 369 838 l 369 533 l 589 533 l 589 663 l 700 663 l 700 299 l 589 299 l 589 428 l 369 428 l 369 115 l 864 115 l 864 306 l 992 306 l 992 0 q 913 -69 943 -35 q 883 -146 883 -103 q 907 -200 883 -181 q 967 -219 931 -219 q 1069 -189 1019 -219 l 1097 -267 z "},"F":{"ha":1025,"x_min":50,"x_max":974,"o":"m 974 953 l 974 640 l 846 640 l 846 838 l 371 838 l 371 517 l 593 517 l 593 646 l 703 646 l 703 281 l 593 281 l 593 411 l 371 411 l 371 115 l 558 115 l 558 0 l 50 0 l 50 115 l 229 115 l 229 838 l 50 838 l 50 953 l 974 953 z "},"G":{"ha":1097,"x_min":67,"x_max":993,"o":"m 567 857 q 390 810 471 857 q 263 678 310 764 q 215 476 215 592 q 262 280 215 365 q 390 147 308 194 q 572 100 471 100 q 863 190 747 100 l 863 375 l 557 375 l 557 485 l 993 485 l 993 131 q 811 22 921 64 q 572 -19 701 -19 q 309 44 424 -19 q 131 220 194 107 q 67 476 67 333 q 131 731 67 618 q 301 908 194 844 q 535 972 408 972 q 724 935 640 972 q 867 836 808 899 l 867 953 l 993 953 l 993 657 l 903 650 q 768 800 851 743 q 567 857 685 857 z "},"Ğ":{"ha":1097,"x_min":67,"x_max":993,"o":"m 567 857 q 390 810 471 857 q 263 678 310 764 q 215 476 215 592 q 262 280 215 365 q 390 147 308 194 q 572 100 471 100 q 863 190 747 100 l 863 375 l 557 375 l 557 485 l 993 485 l 993 131 q 811 22 921 64 q 572 -19 701 -19 q 309 44 424 -19 q 131 220 194 107 q 67 476 67 333 q 131 731 67 618 q 301 908 194 844 q 535 972 408 972 q 724 935 640 972 q 867 836 808 899 l 867 953 l 993 953 l 993 657 l 903 650 q 768 800 851 743 q 567 857 685 857 m 572 1089 q 444 1122 500 1089 q 356 1208 388 1156 q 319 1317 325 1260 l 404 1333 q 465 1240 419 1276 q 572 1204 510 1204 q 679 1240 635 1204 q 739 1333 724 1276 l 824 1317 q 787 1208 818 1260 q 700 1122 756 1156 q 572 1089 644 1089 z "},"Ģ":{"ha":1097,"x_min":67,"x_max":993,"o":"m 567 857 q 390 810 471 857 q 263 678 310 764 q 215 476 215 592 q 262 280 215 365 q 390 147 308 194 q 572 100 471 100 q 863 190 747 100 l 863 375 l 557 375 l 557 485 l 993 485 l 993 131 q 811 22 921 64 q 572 -19 701 -19 q 309 44 424 -19 q 131 220 194 107 q 67 476 67 333 q 131 731 67 618 q 301 908 194 844 q 535 972 408 972 q 724 935 640 972 q 867 836 808 899 l 867 953 l 993 953 l 993 657 l 903 650 q 768 800 851 743 q 567 857 685 857 m 681 -275 q 641 -397 681 -333 q 538 -512 601 -460 l 504 -478 q 581 -384 554 -431 q 611 -297 608 -337 q 557 -307 590 -307 q 499 -287 522 -307 q 475 -236 475 -268 q 503 -181 475 -203 q 571 -158 532 -158 q 650 -190 619 -158 q 681 -275 681 -221 z "},"Ġ":{"ha":1097,"x_min":67,"x_max":993,"o":"m 567 857 q 390 810 471 857 q 263 678 310 764 q 215 476 215 592 q 262 280 215 365 q 390 147 308 194 q 572 100 471 100 q 863 190 747 100 l 863 375 l 557 375 l 557 485 l 993 485 l 993 131 q 811 22 921 64 q 572 -19 701 -19 q 309 44 424 -19 q 131 220 194 107 q 67 476 67 333 q 131 731 67 618 q 301 908 194 844 q 535 972 408 972 q 724 935 640 972 q 867 836 808 899 l 867 953 l 993 953 l 993 657 l 903 650 q 768 800 851 743 q 567 857 685 857 m 574 1122 q 497 1146 528 1122 q 467 1204 467 1169 q 497 1266 467 1242 q 574 1290 528 1290 q 651 1266 621 1290 q 682 1204 682 1242 q 651 1145 682 1168 q 574 1122 621 1122 z "},"H":{"ha":1299,"x_min":50,"x_max":1249,"o":"m 1069 838 l 1069 115 l 1249 115 l 1249 0 l 749 0 l 749 115 l 925 115 l 925 429 l 374 429 l 374 115 l 550 115 l 550 0 l 50 0 l 50 115 l 229 115 l 229 838 l 50 838 l 50 953 l 550 953 l 550 838 l 374 838 l 374 539 l 925 539 l 925 838 l 749 838 l 749 953 l 1249 953 l 1249 838 l 1069 838 z "},"Ħ":{"ha":1318,"x_min":50,"x_max":1269,"o":"m 1090 839 l 1090 708 l 1225 708 l 1225 618 l 1090 618 l 1090 115 l 1269 115 l 1269 0 l 767 0 l 767 115 l 946 115 l 946 389 l 371 389 l 371 115 l 550 115 l 550 0 l 50 0 l 50 115 l 229 115 l 229 618 l 97 618 l 97 708 l 229 708 l 229 839 l 50 839 l 50 953 l 550 953 l 550 839 l 371 839 l 371 708 l 946 708 l 946 839 l 767 839 l 767 953 l 1269 953 l 1269 839 l 1090 839 m 946 618 l 371 618 l 371 493 l 946 493 l 946 618 z "},"I":{"ha":601,"x_min":50,"x_max":553,"o":"m 372 838 l 372 115 l 553 115 l 553 0 l 50 0 l 50 115 l 229 115 l 229 838 l 50 838 l 50 953 l 553 953 l 553 838 l 372 838 z "},"Í":{"ha":601,"x_min":50,"x_max":553,"o":"m 372 838 l 372 115 l 553 115 l 553 0 l 50 0 l 50 115 l 229 115 l 229 838 l 50 838 l 50 953 l 553 953 l 553 838 l 372 838 m 206 1047 l 514 1253 l 440 1353 l 165 1100 l 206 1047 z "},"Î":{"ha":601,"x_min":50,"x_max":553,"o":"m 372 838 l 372 115 l 553 115 l 553 0 l 50 0 l 50 115 l 229 115 l 229 838 l 50 838 l 50 953 l 553 953 l 553 838 l 372 838 m 57 1086 l 268 1331 l 340 1331 l 553 1086 l 510 1046 l 303 1218 l 101 1046 l 57 1086 z "},"Ï":{"ha":601,"x_min":50,"x_max":553,"o":"m 372 838 l 372 115 l 553 115 l 553 0 l 50 0 l 50 115 l 229 115 l 229 838 l 50 838 l 50 953 l 553 953 l 553 838 l 372 838 m 149 1103 q 82 1124 110 1103 q 54 1179 54 1146 q 82 1235 54 1213 q 149 1258 110 1258 q 217 1236 190 1258 q 244 1179 244 1214 q 217 1124 244 1146 q 149 1103 190 1103 m 454 1103 q 388 1124 415 1103 q 360 1179 360 1146 q 388 1235 360 1213 q 454 1258 415 1258 q 522 1236 494 1258 q 550 1179 550 1214 q 522 1124 550 1146 q 454 1103 494 1103 z "},"İ":{"ha":601,"x_min":50,"x_max":553,"o":"m 372 838 l 372 115 l 553 115 l 553 0 l 50 0 l 50 115 l 229 115 l 229 838 l 50 838 l 50 953 l 553 953 l 553 838 l 372 838 m 306 1103 q 229 1126 260 1103 q 199 1185 199 1150 q 229 1247 199 1222 q 306 1271 260 1271 q 383 1247 353 1271 q 414 1185 414 1222 q 383 1126 414 1149 q 306 1103 353 1103 z "},"Ì":{"ha":601,"x_min":50,"x_max":553,"o":"m 372 838 l 372 115 l 553 115 l 553 0 l 50 0 l 50 115 l 229 115 l 229 838 l 50 838 l 50 953 l 553 953 l 553 838 l 372 838 m 167 1353 l 93 1253 l 403 1047 l 442 1100 l 167 1353 z "},"Ī":{"ha":601,"x_min":36,"x_max":563,"o":"m 372 838 l 372 115 l 553 115 l 553 0 l 50 0 l 50 115 l 229 115 l 229 838 l 50 838 l 50 953 l 553 953 l 553 838 l 372 838 m 563 1097 l 36 1099 l 36 1199 l 563 1196 l 563 1097 z "},"Į":{"ha":601,"x_min":50,"x_max":658,"o":"m 658 -267 q 592 -296 624 -286 q 517 -306 560 -306 q 402 -268 449 -306 q 356 -168 356 -231 q 454 0 356 -71 l 50 0 l 50 115 l 229 115 l 229 838 l 50 838 l 50 953 l 553 953 l 553 838 l 372 838 l 372 115 l 553 115 l 553 0 q 474 -69 504 -35 q 444 -146 444 -103 q 468 -200 444 -181 q 528 -219 492 -219 q 631 -189 581 -219 l 658 -267 z "},"J":{"ha":803,"x_min":6,"x_max":793,"o":"m 793 838 l 617 838 l 617 310 q 575 134 617 208 q 462 21 533 60 q 300 -18 390 -18 q 135 13 211 -18 q 6 88 58 43 l 68 188 q 286 101 185 101 q 422 153 372 101 q 472 313 472 206 l 471 838 l 224 838 l 224 953 l 793 953 l 793 838 z "},"K":{"ha":1193,"x_min":50,"x_max":1179,"o":"m 1179 115 l 1179 0 l 732 0 l 732 115 l 878 115 l 585 454 l 372 274 l 372 115 l 544 115 l 544 0 l 50 0 l 50 115 l 229 115 l 229 838 l 50 838 l 50 953 l 544 953 l 544 838 l 372 838 l 372 407 l 878 838 l 713 838 l 713 953 l 1158 953 l 1158 838 l 1040 838 l 685 538 l 1058 115 l 1179 115 z "},"Ķ":{"ha":1193,"x_min":50,"x_max":1179,"o":"m 1179 115 l 1179 0 l 732 0 l 732 115 l 878 115 l 585 454 l 372 274 l 372 115 l 544 115 l 544 0 l 50 0 l 50 115 l 229 115 l 229 838 l 50 838 l 50 953 l 544 953 l 544 838 l 372 838 l 372 407 l 878 838 l 713 838 l 713 953 l 1158 953 l 1158 838 l 1040 838 l 685 538 l 1058 115 l 1179 115 m 756 -257 q 716 -378 756 -315 q 613 -494 676 -442 l 579 -460 q 656 -366 629 -412 q 686 -279 683 -319 q 632 -289 665 -289 q 574 -269 597 -289 q 550 -218 550 -250 q 578 -162 550 -185 q 646 -140 607 -140 q 725 -172 694 -140 q 756 -257 756 -203 z "},"L":{"ha":1006,"x_min":50,"x_max":943,"o":"m 943 331 l 943 0 l 50 0 l 50 115 l 229 115 l 229 838 l 50 838 l 50 953 l 550 953 l 550 838 l 372 838 l 372 115 l 808 115 l 808 331 l 943 331 z "},"Ĺ":{"ha":1006,"x_min":50,"x_max":943,"o":"m 943 331 l 943 0 l 50 0 l 50 115 l 229 115 l 229 838 l 50 838 l 50 953 l 550 953 l 550 838 l 372 838 l 372 115 l 808 115 l 808 331 l 943 331 m 293 1054 l 601 1260 l 528 1360 l 253 1107 l 293 1054 z "},"Ľ":{"ha":1006,"x_min":50,"x_max":943,"o":"m 943 331 l 943 0 l 50 0 l 50 115 l 229 115 l 229 838 l 50 838 l 50 953 l 550 953 l 550 838 l 372 838 l 372 115 l 808 115 l 808 331 l 943 331 m 810 947 q 710 694 804 817 l 651 711 q 697 961 704 836 l 810 947 z "},"Ļ":{"ha":1006,"x_min":50,"x_max":943,"o":"m 943 331 l 943 0 l 50 0 l 50 115 l 229 115 l 229 838 l 50 838 l 50 953 l 550 953 l 550 838 l 372 838 l 372 115 l 808 115 l 808 331 l 943 331 m 631 -257 q 591 -378 631 -315 q 488 -494 551 -442 l 454 -460 q 531 -366 504 -412 q 561 -279 558 -319 q 507 -289 540 -289 q 449 -269 472 -289 q 425 -218 425 -250 q 453 -162 425 -185 q 521 -140 482 -140 q 600 -172 569 -140 q 631 -257 631 -203 z "},"Ŀ":{"ha":1006,"x_min":50,"x_max":943,"o":"m 943 331 l 943 0 l 50 0 l 50 115 l 229 115 l 229 838 l 50 838 l 50 953 l 550 953 l 550 838 l 372 838 l 372 115 l 808 115 l 808 331 l 943 331 m 806 500 q 725 526 758 500 q 692 592 692 553 q 725 659 692 632 q 806 686 758 686 q 890 660 857 686 q 922 592 922 633 q 890 526 922 551 q 806 500 857 500 z "},"Ł":{"ha":1001,"x_min":49,"x_max":943,"o":"m 943 331 l 943 0 l 50 0 l 50 115 l 229 115 l 229 389 l 49 322 l 49 413 l 229 479 l 229 838 l 50 838 l 50 953 l 550 953 l 550 838 l 372 838 l 372 531 l 576 606 l 576 515 l 372 440 l 372 115 l 808 115 l 808 331 l 943 331 z "},"M":{"ha":1529,"x_min":50,"x_max":1481,"o":"m 1481 115 l 1481 0 l 996 0 l 996 115 l 1161 115 l 1161 582 q 1178 756 1161 649 l 799 -10 l 726 -10 l 350 750 q 363 582 363 640 l 363 115 l 528 115 l 528 0 l 50 0 l 50 115 l 228 115 l 228 838 l 50 838 l 50 953 l 386 953 l 768 190 l 1143 953 l 1479 953 l 1479 838 l 1301 838 l 1301 115 l 1481 115 z "},"N":{"ha":1303,"x_min":50,"x_max":1278,"o":"m 1278 838 l 1104 838 l 1104 -8 l 1033 -10 l 365 750 l 365 115 l 536 115 l 536 0 l 50 0 l 50 115 l 229 115 l 229 838 l 50 838 l 50 953 l 365 953 l 971 249 l 971 838 l 792 838 l 792 953 l 1278 953 l 1278 838 z "},"Ń":{"ha":1303,"x_min":50,"x_max":1278,"o":"m 1278 838 l 1104 838 l 1104 -8 l 1033 -10 l 365 750 l 365 115 l 536 115 l 536 0 l 50 0 l 50 115 l 229 115 l 229 838 l 50 838 l 50 953 l 365 953 l 971 249 l 971 838 l 792 838 l 792 953 l 1278 953 l 1278 838 m 543 1039 l 851 1244 l 778 1344 l 503 1092 l 543 1039 z "},"Ň":{"ha":1303,"x_min":50,"x_max":1278,"o":"m 1278 838 l 1104 838 l 1104 -8 l 1033 -10 l 365 750 l 365 115 l 536 115 l 536 0 l 50 0 l 50 115 l 229 115 l 229 838 l 50 838 l 50 953 l 365 953 l 971 249 l 971 838 l 792 838 l 792 953 l 1278 953 l 1278 838 m 890 1292 l 678 1047 l 606 1047 l 394 1292 l 439 1333 l 642 1161 l 847 1333 l 890 1292 z "},"Ņ":{"ha":1303,"x_min":50,"x_max":1278,"o":"m 1278 838 l 1104 838 l 1104 -8 l 1033 -10 l 365 750 l 365 115 l 536 115 l 536 0 l 50 0 l 50 115 l 229 115 l 229 838 l 50 838 l 50 953 l 365 953 l 971 249 l 971 838 l 792 838 l 792 953 l 1278 953 l 1278 838 m 806 -249 q 766 -370 806 -307 q 663 -486 726 -433 l 629 -451 q 706 -358 679 -404 q 736 -271 733 -311 q 682 -281 715 -281 q 624 -261 647 -281 q 600 -210 600 -242 q 628 -154 600 -176 q 696 -132 657 -132 q 775 -163 744 -132 q 806 -249 806 -194 z "},"Ŋ":{"ha":1303,"x_min":50,"x_max":1278,"o":"m 1278 839 l 1104 839 l 1104 -10 q 1063 -187 1104 -112 q 953 -300 1022 -261 q 797 -339 883 -339 q 633 -308 710 -339 q 504 -232 557 -278 l 567 -131 q 786 -218 678 -218 q 922 -165 872 -218 q 972 -7 972 -112 l 972 60 l 368 747 l 368 115 l 525 115 l 525 0 l 50 0 l 50 115 l 229 115 l 229 839 l 50 839 l 50 953 l 368 953 l 971 249 l 971 839 l 792 839 l 792 953 l 1278 953 l 1278 839 z "},"Ñ":{"ha":1303,"x_min":50,"x_max":1278,"o":"m 1278 838 l 1104 838 l 1104 -8 l 1033 -10 l 365 750 l 365 115 l 536 115 l 536 0 l 50 0 l 50 115 l 229 115 l 229 838 l 50 838 l 50 953 l 365 953 l 971 249 l 971 838 l 792 838 l 792 953 l 1278 953 l 1278 838 m 761 1047 q 681 1071 714 1047 q 608 1140 647 1094 q 553 1199 574 1182 q 507 1215 533 1215 q 428 1068 439 1215 l 347 1076 q 391 1235 350 1174 q 507 1296 432 1296 q 591 1273 557 1296 q 664 1203 625 1250 q 717 1146 696 1163 q 761 1129 738 1129 q 842 1274 833 1129 l 924 1267 q 878 1109 921 1171 q 761 1047 835 1047 z "},"O":{"ha":1131,"x_min":71,"x_max":1058,"o":"m 565 -18 q 313 45 426 -18 q 135 221 200 108 q 71 476 71 333 q 135 733 71 621 q 313 909 200 846 q 565 972 426 972 q 816 909 703 972 q 994 733 929 846 q 1058 476 1058 619 q 994 221 1058 333 q 816 45 929 108 q 565 -18 703 -18 m 565 101 q 744 149 665 101 q 866 283 822 197 q 910 476 910 368 q 866 672 910 586 q 744 805 822 757 q 565 853 665 853 q 385 805 464 853 q 263 671 306 757 q 219 476 219 585 q 263 281 219 367 q 384 149 306 196 q 565 101 463 101 z "},"Ó":{"ha":1131,"x_min":71,"x_max":1058,"o":"m 565 -18 q 313 45 426 -18 q 135 221 200 108 q 71 476 71 333 q 135 733 71 621 q 313 909 200 846 q 565 972 426 972 q 816 909 703 972 q 994 733 929 846 q 1058 476 1058 619 q 994 221 1058 333 q 816 45 929 108 q 565 -18 703 -18 m 565 101 q 744 149 665 101 q 866 283 822 197 q 910 476 910 368 q 866 672 910 586 q 744 805 822 757 q 565 853 665 853 q 385 805 464 853 q 263 671 306 757 q 219 476 219 585 q 263 281 219 367 q 384 149 306 196 q 565 101 463 101 m 467 1067 l 775 1272 l 701 1372 l 426 1119 l 467 1067 z "},"Ô":{"ha":1131,"x_min":71,"x_max":1058,"o":"m 565 -18 q 313 45 426 -18 q 135 221 200 108 q 71 476 71 333 q 135 733 71 621 q 313 909 200 846 q 565 972 426 972 q 816 909 703 972 q 994 733 929 846 q 1058 476 1058 619 q 994 221 1058 333 q 816 45 929 108 q 565 -18 703 -18 m 565 101 q 744 149 665 101 q 866 283 822 197 q 910 476 910 368 q 866 672 910 586 q 744 805 822 757 q 565 853 665 853 q 385 805 464 853 q 263 671 306 757 q 219 476 219 585 q 263 281 219 367 q 384 149 306 196 q 565 101 463 101 m 318 1106 l 529 1350 l 601 1350 l 814 1106 l 771 1065 l 564 1238 l 363 1065 l 318 1106 z "},"Ö":{"ha":1131,"x_min":71,"x_max":1058,"o":"m 565 -18 q 313 45 426 -18 q 135 221 200 108 q 71 476 71 333 q 135 733 71 621 q 313 909 200 846 q 565 972 426 972 q 816 909 703 972 q 994 733 929 846 q 1058 476 1058 619 q 994 221 1058 333 q 816 45 929 108 q 565 -18 703 -18 m 565 101 q 744 149 665 101 q 866 283 822 197 q 910 476 910 368 q 866 672 910 586 q 744 805 822 757 q 565 853 665 853 q 385 805 464 853 q 263 671 306 757 q 219 476 219 585 q 263 281 219 367 q 384 149 306 196 q 565 101 463 101 m 410 1122 q 343 1144 371 1122 q 315 1199 315 1165 q 343 1255 315 1232 q 410 1278 371 1278 q 478 1256 451 1278 q 506 1199 506 1233 q 478 1144 506 1165 q 410 1122 451 1122 m 715 1122 q 649 1144 676 1122 q 621 1199 621 1165 q 649 1255 621 1232 q 715 1278 676 1278 q 783 1256 756 1278 q 811 1199 811 1233 q 783 1144 811 1165 q 715 1122 756 1122 z "},"Ò":{"ha":1131,"x_min":71,"x_max":1058,"o":"m 565 -18 q 313 45 426 -18 q 135 221 200 108 q 71 476 71 333 q 135 733 71 621 q 313 909 200 846 q 565 972 426 972 q 816 909 703 972 q 994 733 929 846 q 1058 476 1058 619 q 994 221 1058 333 q 816 45 929 108 q 565 -18 703 -18 m 565 101 q 744 149 665 101 q 866 283 822 197 q 910 476 910 368 q 866 672 910 586 q 744 805 822 757 q 565 853 665 853 q 385 805 464 853 q 263 671 306 757 q 219 476 219 585 q 263 281 219 367 q 384 149 306 196 q 565 101 463 101 m 428 1372 l 354 1272 l 664 1067 l 703 1119 l 428 1372 z "},"Ő":{"ha":1131,"x_min":71,"x_max":1058,"o":"m 565 -18 q 313 45 426 -18 q 135 221 200 108 q 71 476 71 333 q 135 733 71 621 q 313 909 200 846 q 565 972 426 972 q 816 909 703 972 q 994 733 929 846 q 1058 476 1058 619 q 994 221 1058 333 q 816 45 929 108 q 565 -18 703 -18 m 565 101 q 744 149 665 101 q 866 283 822 197 q 910 476 910 368 q 866 672 910 586 q 744 805 822 757 q 565 853 665 853 q 385 805 464 853 q 263 671 306 757 q 219 476 219 585 q 263 281 219 367 q 384 149 306 196 q 565 101 463 101 m 346 1113 l 504 1383 l 603 1311 l 410 1065 l 346 1113 m 610 1113 l 768 1383 l 867 1311 l 674 1065 l 610 1113 z "},"Ō":{"ha":1131,"x_min":71,"x_max":1058,"o":"m 565 -18 q 313 45 426 -18 q 135 221 200 108 q 71 476 71 333 q 135 733 71 621 q 313 909 200 846 q 565 972 426 972 q 816 909 703 972 q 994 733 929 846 q 1058 476 1058 619 q 994 221 1058 333 q 816 45 929 108 q 565 -18 703 -18 m 565 101 q 744 149 665 101 q 866 283 822 197 q 910 476 910 368 q 866 672 910 586 q 744 805 822 757 q 565 853 665 853 q 385 805 464 853 q 263 671 306 757 q 219 476 219 585 q 263 281 219 367 q 384 149 306 196 q 565 101 463 101 m 824 1117 l 297 1118 l 297 1218 l 824 1215 l 824 1117 z "},"Ø":{"ha":1122,"x_min":71,"x_max":1058,"o":"m 800 918 q 989 741 919 857 q 1058 476 1058 625 q 994 221 1058 333 q 816 45 929 108 q 565 -18 703 -18 q 419 1 490 -18 l 372 -108 l 250 -108 l 315 44 q 136 219 201 106 q 71 476 71 332 q 135 733 71 621 q 313 909 200 846 q 565 972 426 972 q 692 957 628 972 l 739 1065 l 861 1065 l 800 918 m 565 853 q 385 805 464 853 q 263 671 306 757 q 219 476 219 585 q 260 288 219 371 q 374 156 301 204 l 654 842 q 565 853 610 853 m 565 101 q 744 149 665 101 q 866 283 822 197 q 910 476 910 368 q 865 674 910 588 q 742 807 821 760 l 458 117 q 565 101 511 101 z "},"Õ":{"ha":1131,"x_min":71,"x_max":1058,"o":"m 565 -18 q 313 45 426 -18 q 135 221 200 108 q 71 476 71 333 q 135 733 71 621 q 313 909 200 846 q 565 972 426 972 q 816 909 703 972 q 994 733 929 846 q 1058 476 1058 619 q 994 221 1058 333 q 816 45 929 108 q 565 -18 703 -18 m 565 101 q 744 149 665 101 q 866 283 822 197 q 910 476 910 368 q 866 672 910 586 q 744 805 822 757 q 565 853 665 853 q 385 805 464 853 q 263 671 306 757 q 219 476 219 585 q 263 281 219 367 q 384 149 306 196 q 565 101 463 101 m 685 1075 q 604 1099 638 1075 q 532 1168 571 1122 q 477 1226 497 1210 q 431 1243 457 1243 q 351 1096 363 1243 l 271 1104 q 315 1263 274 1201 q 431 1324 356 1324 q 515 1301 481 1324 q 588 1231 549 1278 q 640 1174 619 1190 q 685 1157 661 1157 q 765 1301 757 1157 l 847 1294 q 801 1137 844 1199 q 685 1075 758 1075 z "},"Œ":{"ha":1575,"x_min":71,"x_max":1471,"o":"m 1342 650 l 1342 839 l 879 839 l 879 539 l 1072 539 l 1072 663 l 1189 663 l 1189 299 l 1072 299 l 1072 424 l 879 424 l 879 115 l 1342 115 l 1342 303 l 1471 303 l 1471 0 l 604 0 q 335 53 456 0 q 142 213 214 106 q 71 474 71 319 q 142 736 71 628 q 335 899 214 844 q 604 953 457 953 l 1471 953 l 1471 650 l 1342 650 m 736 839 l 633 839 q 427 801 521 839 q 276 682 333 764 q 219 474 219 600 q 338 202 219 289 q 633 115 456 115 l 736 115 l 736 839 z "},"P":{"ha":1019,"x_min":50,"x_max":963,"o":"m 592 953 q 787 917 703 953 q 917 815 871 882 q 963 657 963 749 q 863 435 963 517 q 593 354 763 354 l 371 354 l 371 115 l 561 115 l 561 0 l 50 0 l 50 115 l 229 115 l 229 838 l 50 838 l 50 953 l 592 953 m 586 469 q 755 513 689 469 q 821 658 821 557 q 754 794 821 751 q 583 838 688 838 l 371 838 l 371 471 l 586 469 z "},"Þ":{"ha":985,"x_min":50,"x_max":954,"o":"m 647 697 q 871 640 788 697 q 954 475 954 583 q 870 310 954 367 q 647 251 786 253 l 360 250 l 360 106 l 546 106 l 546 0 l 50 0 l 50 115 l 225 115 l 225 839 l 50 839 l 50 953 l 546 953 l 546 849 l 360 849 l 360 697 l 647 697 m 629 353 q 762 382 711 353 q 813 475 813 411 q 763 565 813 536 q 629 594 713 594 l 360 594 l 360 353 l 629 353 z "},"Q":{"ha":1126,"x_min":71,"x_max":1083,"o":"m 1083 -143 q 968 -160 1038 -160 q 686 -4 807 -160 q 565 -18 632 -18 q 313 45 426 -18 q 135 221 200 108 q 71 476 71 333 q 135 733 71 621 q 313 909 200 846 q 565 972 426 972 q 816 909 703 972 q 994 733 929 846 q 1058 476 1058 619 q 992 217 1058 332 q 811 42 925 103 q 986 -43 886 -43 q 1067 -35 1038 -43 l 1083 -143 m 565 858 q 399 818 472 858 q 278 706 325 778 q 221 539 232 633 l 279 539 q 441 516 374 539 q 563 438 508 493 q 667 283 617 382 l 710 199 l 740 142 q 868 276 822 189 q 914 476 914 364 q 870 674 914 588 q 747 810 826 761 q 565 858 668 858 m 565 96 q 619 100 592 96 l 590 154 l 549 240 q 479 352 511 313 q 401 412 447 392 q 279 432 354 432 l 218 432 q 272 256 226 332 q 394 138 318 181 q 565 96 469 96 z "},"R":{"ha":1104,"x_min":50,"x_max":1133,"o":"m 1133 81 q 931 -19 1046 -19 q 727 68 810 -19 q 593 338 644 156 l 571 407 l 372 407 l 372 115 l 547 115 l 547 0 l 50 0 l 50 114 l 229 114 l 229 838 l 50 838 l 50 953 l 603 953 q 860 879 765 953 q 954 679 954 806 q 887 503 954 575 q 697 414 819 432 l 722 346 q 818 168 765 224 q 938 113 871 113 q 1008 129 979 113 q 1063 174 1038 146 l 1133 81 m 372 515 l 607 515 q 754 559 696 515 q 813 679 813 603 q 755 795 813 753 q 607 838 697 838 l 372 838 l 372 515 z "},"Ŕ":{"ha":1104,"x_min":50,"x_max":1133,"o":"m 1133 81 q 931 -19 1046 -19 q 727 68 810 -19 q 593 338 644 156 l 571 407 l 372 407 l 372 115 l 547 115 l 547 0 l 50 0 l 50 114 l 229 114 l 229 838 l 50 838 l 50 953 l 603 953 q 860 879 765 953 q 954 679 954 806 q 887 503 954 575 q 697 414 819 432 l 722 346 q 818 168 765 224 q 938 113 871 113 q 1008 129 979 113 q 1063 174 1038 146 l 1133 81 m 372 515 l 607 515 q 754 559 696 515 q 813 679 813 603 q 755 795 813 753 q 607 838 697 838 l 372 838 l 372 515 m 467 1047 l 775 1253 l 701 1353 l 426 1100 l 467 1047 z "},"Ř":{"ha":1104,"x_min":50,"x_max":1133,"o":"m 1133 81 q 931 -19 1046 -19 q 727 68 810 -19 q 593 338 644 156 l 571 407 l 372 407 l 372 115 l 547 115 l 547 0 l 50 0 l 50 114 l 229 114 l 229 838 l 50 838 l 50 953 l 603 953 q 860 879 765 953 q 954 679 954 806 q 887 503 954 575 q 697 414 819 432 l 722 346 q 818 168 765 224 q 938 113 871 113 q 1008 129 979 113 q 1063 174 1038 146 l 1133 81 m 372 515 l 607 515 q 754 559 696 515 q 813 679 813 603 q 755 795 813 753 q 607 838 697 838 l 372 838 l 372 515 m 814 1300 l 601 1056 l 529 1056 l 318 1300 l 363 1342 l 565 1169 l 771 1342 l 814 1300 z "},"Ŗ":{"ha":1104,"x_min":50,"x_max":1133,"o":"m 1133 81 q 931 -19 1046 -19 q 727 68 810 -19 q 593 338 644 156 l 571 407 l 372 407 l 372 115 l 547 115 l 547 0 l 50 0 l 50 114 l 229 114 l 229 838 l 50 838 l 50 953 l 603 953 q 860 879 765 953 q 954 679 954 806 q 887 503 954 575 q 697 414 819 432 l 722 346 q 818 168 765 224 q 938 113 871 113 q 1008 129 979 113 q 1063 174 1038 146 l 1133 81 m 372 515 l 607 515 q 754 559 696 515 q 813 679 813 603 q 755 795 813 753 q 607 838 697 838 l 372 838 l 372 515 m 747 -257 q 708 -378 747 -315 q 604 -494 668 -442 l 571 -460 q 648 -366 621 -412 q 678 -279 675 -319 q 624 -289 657 -289 q 565 -269 589 -289 q 542 -218 542 -250 q 570 -162 542 -185 q 638 -140 599 -140 q 717 -172 686 -140 q 747 -257 747 -203 z "},"S":{"ha":971,"x_min":101,"x_max":896,"o":"m 526 539 q 803 418 710 488 q 896 233 896 349 q 855 101 896 158 q 742 13 814 43 q 579 -18 669 -18 q 392 24 481 -18 q 228 140 303 65 l 228 1 l 101 1 l 101 322 l 182 326 q 361 158 256 219 q 571 97 467 97 q 698 131 649 97 q 747 221 747 164 q 678 328 747 283 q 442 417 608 374 q 188 537 268 463 q 107 719 107 611 q 148 852 107 794 q 258 941 189 910 q 410 972 328 972 q 722 831 603 972 l 722 953 l 849 953 l 849 636 l 771 632 q 628 800 713 743 q 442 857 543 857 q 308 822 360 857 q 256 726 256 786 q 319 622 256 665 q 526 539 382 578 z "},"Ś":{"ha":971,"x_min":101,"x_max":896,"o":"m 526 539 q 803 418 710 488 q 896 233 896 349 q 855 101 896 158 q 742 13 814 43 q 579 -18 669 -18 q 392 24 481 -18 q 228 140 303 65 l 228 1 l 101 1 l 101 322 l 182 326 q 361 158 256 219 q 571 97 467 97 q 698 131 649 97 q 747 221 747 164 q 678 328 747 283 q 442 417 608 374 q 188 537 268 463 q 107 719 107 611 q 148 852 107 794 q 258 941 189 910 q 410 972 328 972 q 722 831 603 972 l 722 953 l 849 953 l 849 636 l 771 632 q 628 800 713 743 q 442 857 543 857 q 308 822 360 857 q 256 726 256 786 q 319 622 256 665 q 526 539 382 578 m 388 1067 l 696 1272 l 622 1372 l 347 1119 l 388 1067 z "},"Š":{"ha":971,"x_min":101,"x_max":896,"o":"m 526 539 q 803 418 710 488 q 896 233 896 349 q 855 101 896 158 q 742 13 814 43 q 579 -18 669 -18 q 392 24 481 -18 q 228 140 303 65 l 228 1 l 101 1 l 101 322 l 182 326 q 361 158 256 219 q 571 97 467 97 q 698 131 649 97 q 747 221 747 164 q 678 328 747 283 q 442 417 608 374 q 188 537 268 463 q 107 719 107 611 q 148 852 107 794 q 258 941 189 910 q 410 972 328 972 q 722 831 603 972 l 722 953 l 849 953 l 849 636 l 771 632 q 628 800 713 743 q 442 857 543 857 q 308 822 360 857 q 256 726 256 786 q 319 622 256 665 q 526 539 382 578 m 735 1319 l 522 1075 l 450 1075 l 239 1319 l 283 1361 l 486 1189 l 692 1361 l 735 1319 z "},"Ş":{"ha":971,"x_min":101,"x_max":896,"o":"m 579 -18 q 524 -14 551 -18 l 488 -103 l 519 -101 q 623 -135 583 -101 q 663 -225 663 -169 q 608 -326 663 -287 q 479 -364 554 -364 q 281 -296 379 -364 l 321 -228 q 479 -286 400 -286 q 546 -269 521 -286 q 571 -225 571 -253 q 547 -178 571 -194 q 482 -162 524 -162 q 401 -168 449 -162 l 393 -156 l 457 0 q 228 140 335 36 l 228 1 l 101 1 l 101 322 l 182 326 q 361 158 256 219 q 571 97 467 97 q 698 131 649 97 q 747 221 747 164 q 678 328 747 283 q 442 417 608 374 q 188 537 268 463 q 107 719 107 611 q 148 852 107 794 q 258 941 189 910 q 410 972 328 972 q 722 831 603 972 l 722 953 l 849 953 l 849 636 l 771 632 q 628 800 713 743 q 442 857 543 857 q 308 822 360 857 q 256 726 256 786 q 319 622 256 665 q 526 539 382 578 q 803 418 710 488 q 896 233 896 349 q 855 101 896 158 q 742 13 814 43 q 579 -18 669 -18 z "},"Ș":{"ha":971,"x_min":101,"x_max":896,"o":"m 526 539 q 803 418 710 488 q 896 233 896 349 q 855 101 896 158 q 742 13 814 43 q 579 -18 669 -18 q 392 24 481 -18 q 228 140 303 65 l 228 1 l 101 1 l 101 322 l 182 326 q 361 158 256 219 q 571 97 467 97 q 698 131 649 97 q 747 221 747 164 q 678 328 747 283 q 442 417 608 374 q 188 537 268 463 q 107 719 107 611 q 148 852 107 794 q 258 941 189 910 q 410 972 328 972 q 722 831 603 972 l 722 953 l 849 953 l 849 636 l 771 632 q 628 800 713 743 q 442 857 543 857 q 308 822 360 857 q 256 726 256 786 q 319 622 256 665 q 526 539 382 578 m 631 -275 q 591 -397 631 -333 q 488 -512 551 -460 l 454 -478 q 531 -384 504 -431 q 561 -297 558 -337 q 507 -307 540 -307 q 449 -287 472 -307 q 425 -236 425 -268 q 453 -181 425 -203 q 521 -158 482 -158 q 600 -190 569 -158 q 631 -275 631 -221 z "},"ẞ":{"ha":1206,"x_min":6,"x_max":1157,"o":"m 843 563 q 1076 425 994 504 q 1157 238 1157 346 q 1117 104 1157 163 q 1010 14 1078 46 q 865 -18 943 -18 q 712 17 782 -18 q 581 125 642 53 l 581 0 l 450 0 l 450 315 l 532 321 q 677 152 597 208 q 842 96 757 96 q 960 136 913 96 q 1008 238 1008 176 q 932 372 1008 307 q 651 504 856 438 l 829 738 q 538 858 678 858 q 378 797 438 858 q 318 615 318 736 l 318 0 l 6 0 l 6 115 l 176 115 l 176 613 q 272 885 176 792 q 533 979 367 979 q 715 942 625 979 q 900 831 806 906 l 1024 994 l 1118 919 l 843 563 z "},"T":{"ha":1082,"x_min":53,"x_max":1028,"o":"m 1028 953 l 1028 640 l 900 640 l 900 838 l 613 838 l 613 115 l 793 115 l 793 0 l 288 0 l 288 115 l 469 115 l 469 838 l 181 838 l 181 640 l 53 640 l 53 953 l 1028 953 z "},"Ŧ":{"ha":1082,"x_min":53,"x_max":1028,"o":"m 1028 953 l 1028 640 l 900 640 l 900 838 l 613 838 l 613 467 l 872 467 l 872 375 l 613 375 l 613 115 l 793 115 l 793 0 l 288 0 l 288 115 l 469 115 l 469 375 l 207 375 l 207 467 l 469 467 l 469 838 l 181 838 l 181 640 l 53 640 l 53 953 l 1028 953 z "},"Ť":{"ha":1082,"x_min":53,"x_max":1028,"o":"m 1028 953 l 1028 640 l 900 640 l 900 838 l 613 838 l 613 115 l 793 115 l 793 0 l 288 0 l 288 115 l 469 115 l 469 838 l 181 838 l 181 640 l 53 640 l 53 953 l 1028 953 m 785 1315 l 572 1071 l 500 1071 l 289 1315 l 333 1357 l 536 1185 l 742 1357 l 785 1315 z "},"Ţ":{"ha":1082,"x_min":53,"x_max":1028,"o":"m 1028 953 l 1028 640 l 900 640 l 900 838 l 613 838 l 613 115 l 793 115 l 793 0 l 288 0 l 288 115 l 469 115 l 469 838 l 181 838 l 181 640 l 53 640 l 53 953 l 1028 953 m 521 -346 q 322 -278 421 -346 l 363 -210 q 521 -268 442 -268 q 588 -251 563 -268 q 613 -207 613 -235 q 589 -160 613 -176 q 524 -144 565 -144 q 443 -150 490 -144 l 435 -137 l 504 32 l 576 32 l 529 -85 l 561 -83 q 665 -117 625 -83 q 704 -207 704 -151 q 650 -308 704 -269 q 521 -346 596 -346 z "},"Ț":{"ha":1082,"x_min":53,"x_max":1028,"o":"m 1028 953 l 1028 640 l 900 640 l 900 838 l 613 838 l 613 115 l 793 115 l 793 0 l 288 0 l 288 115 l 469 115 l 469 838 l 181 838 l 181 640 l 53 640 l 53 953 l 1028 953 m 672 -257 q 633 -378 672 -315 q 529 -494 593 -442 l 496 -460 q 573 -366 546 -412 q 603 -279 600 -319 q 549 -289 582 -289 q 490 -269 514 -289 q 467 -218 467 -250 q 495 -162 467 -185 q 563 -140 524 -140 q 642 -172 611 -140 q 672 -257 672 -203 z "},"U":{"ha":1232,"x_min":10,"x_max":1224,"o":"m 1224 838 l 1044 838 l 1044 368 q 990 170 1044 258 q 839 32 936 82 q 617 -18 742 -18 q 392 32 489 -18 q 242 169 294 82 q 189 368 189 257 l 189 838 l 10 838 l 10 953 l 501 953 l 501 838 l 333 838 l 332 372 q 368 233 332 294 q 469 136 404 171 q 617 101 533 101 q 764 136 699 101 q 865 233 829 171 q 901 374 901 296 l 900 838 l 731 838 l 731 953 l 1224 953 l 1224 838 z "},"Ú":{"ha":1232,"x_min":10,"x_max":1224,"o":"m 1224 838 l 1044 838 l 1044 368 q 990 170 1044 258 q 839 32 936 82 q 617 -18 742 -18 q 392 32 489 -18 q 242 169 294 82 q 189 368 189 257 l 189 838 l 10 838 l 10 953 l 501 953 l 501 838 l 333 838 l 332 372 q 368 233 332 294 q 469 136 404 171 q 617 101 533 101 q 764 136 699 101 q 865 233 829 171 q 901 374 901 296 l 900 838 l 731 838 l 731 953 l 1224 953 l 1224 838 m 521 1056 l 829 1261 l 756 1361 l 481 1108 l 521 1056 z "},"Û":{"ha":1232,"x_min":10,"x_max":1224,"o":"m 1224 838 l 1044 838 l 1044 368 q 990 170 1044 258 q 839 32 936 82 q 617 -18 742 -18 q 392 32 489 -18 q 242 169 294 82 q 189 368 189 257 l 189 838 l 10 838 l 10 953 l 501 953 l 501 838 l 333 838 l 332 372 q 368 233 332 294 q 469 136 404 171 q 617 101 533 101 q 764 136 699 101 q 865 233 829 171 q 901 374 901 296 l 900 838 l 731 838 l 731 953 l 1224 953 l 1224 838 m 372 1094 l 583 1339 l 656 1339 l 868 1094 l 825 1054 l 618 1226 l 417 1054 l 372 1094 z "},"Ü":{"ha":1232,"x_min":10,"x_max":1224,"o":"m 1224 838 l 1044 838 l 1044 368 q 990 170 1044 258 q 839 32 936 82 q 617 -18 742 -18 q 392 32 489 -18 q 242 169 294 82 q 189 368 189 257 l 189 838 l 10 838 l 10 953 l 501 953 l 501 838 l 333 838 l 332 372 q 368 233 332 294 q 469 136 404 171 q 617 101 533 101 q 764 136 699 101 q 865 233 829 171 q 901 374 901 296 l 900 838 l 731 838 l 731 953 l 1224 953 l 1224 838 m 464 1111 q 397 1133 425 1111 q 369 1188 369 1154 q 397 1244 369 1221 q 464 1267 425 1267 q 533 1244 506 1267 q 560 1188 560 1222 q 533 1133 560 1154 q 464 1111 506 1111 m 769 1111 q 703 1133 731 1111 q 675 1188 675 1154 q 703 1244 675 1221 q 769 1267 731 1267 q 838 1244 810 1267 q 865 1188 865 1222 q 838 1133 865 1154 q 769 1111 810 1111 z "},"Ù":{"ha":1232,"x_min":10,"x_max":1224,"o":"m 1224 838 l 1044 838 l 1044 368 q 990 170 1044 258 q 839 32 936 82 q 617 -18 742 -18 q 392 32 489 -18 q 242 169 294 82 q 189 368 189 257 l 189 838 l 10 838 l 10 953 l 501 953 l 501 838 l 333 838 l 332 372 q 368 233 332 294 q 469 136 404 171 q 617 101 533 101 q 764 136 699 101 q 865 233 829 171 q 901 374 901 296 l 900 838 l 731 838 l 731 953 l 1224 953 l 1224 838 m 482 1361 l 408 1261 l 718 1056 l 757 1108 l 482 1361 z "},"Ű":{"ha":1232,"x_min":10,"x_max":1224,"o":"m 1224 838 l 1044 838 l 1044 368 q 990 170 1044 258 q 839 32 936 82 q 617 -18 742 -18 q 392 32 489 -18 q 242 169 294 82 q 189 368 189 257 l 189 838 l 10 838 l 10 953 l 501 953 l 501 838 l 333 838 l 332 372 q 368 233 332 294 q 469 136 404 171 q 617 101 533 101 q 764 136 699 101 q 865 233 829 171 q 901 374 901 296 l 900 838 l 731 838 l 731 953 l 1224 953 l 1224 838 m 400 1101 l 558 1372 l 657 1300 l 464 1054 l 400 1101 m 664 1101 l 822 1372 l 921 1300 l 728 1054 l 664 1101 z "},"Ū":{"ha":1232,"x_min":10,"x_max":1224,"o":"m 1224 838 l 1044 838 l 1044 368 q 990 170 1044 258 q 839 32 936 82 q 617 -18 742 -18 q 392 32 489 -18 q 242 169 294 82 q 189 368 189 257 l 189 838 l 10 838 l 10 953 l 501 953 l 501 838 l 333 838 l 332 372 q 368 233 332 294 q 469 136 404 171 q 617 101 533 101 q 764 136 699 101 q 865 233 829 171 q 901 374 901 296 l 900 838 l 731 838 l 731 953 l 1224 953 l 1224 838 m 878 1106 l 351 1107 l 351 1207 l 878 1204 l 878 1106 z "},"Ų":{"ha":1232,"x_min":10,"x_max":1224,"o":"m 1224 838 l 1044 838 l 1044 368 q 998 183 1044 267 q 867 48 951 100 q 674 -15 783 -4 q 599 -81 628 -47 q 571 -157 571 -115 q 594 -211 571 -192 q 654 -231 618 -231 q 757 -200 707 -231 l 785 -278 q 718 -307 750 -297 q 643 -317 686 -317 q 528 -279 575 -317 q 482 -179 482 -242 q 574 -17 482 -85 q 371 43 458 -8 q 236 179 283 94 q 189 368 189 264 l 189 838 l 10 838 l 10 953 l 501 953 l 501 838 l 333 838 l 332 372 q 368 233 332 294 q 469 136 404 171 q 617 101 533 101 q 764 136 699 101 q 865 233 829 171 q 901 374 901 296 l 900 838 l 731 838 l 731 953 l 1224 953 l 1224 838 z "},"Ů":{"ha":1232,"x_min":10,"x_max":1224,"o":"m 1224 838 l 1044 838 l 1044 368 q 990 170 1044 258 q 839 32 936 82 q 617 -18 742 -18 q 392 32 489 -18 q 242 169 294 82 q 189 368 189 257 l 189 838 l 10 838 l 10 953 l 501 953 l 501 838 l 333 838 l 332 372 q 368 233 332 294 q 469 136 404 171 q 617 101 533 101 q 764 136 699 101 q 865 233 829 171 q 901 374 901 296 l 900 838 l 731 838 l 731 953 l 1224 953 l 1224 838 m 619 1051 q 522 1078 567 1051 q 449 1149 476 1104 q 421 1247 421 1193 q 448 1347 421 1303 q 521 1416 475 1392 q 619 1440 567 1440 q 719 1415 674 1440 q 791 1344 764 1389 q 818 1244 818 1300 q 791 1145 818 1189 q 719 1076 764 1101 q 619 1051 674 1051 m 619 1126 q 704 1161 669 1126 q 739 1244 739 1196 q 704 1330 739 1296 q 619 1364 669 1364 q 536 1331 571 1364 q 501 1247 501 1297 q 536 1162 501 1197 q 619 1126 571 1126 z "},"V":{"ha":1168,"x_min":0,"x_max":1168,"o":"m 1168 838 l 1008 838 l 618 -18 l 547 -18 l 160 838 l 0 838 l 0 953 l 463 953 l 463 838 l 311 838 l 592 185 l 867 838 l 699 838 l 699 953 l 1168 953 l 1168 838 z "},"W":{"ha":1639,"x_min":4,"x_max":1636,"o":"m 1636 838 l 1481 838 l 1176 -18 l 1106 -18 l 813 676 l 535 -18 l 463 -18 l 157 838 l 4 838 l 4 953 l 471 953 l 471 838 l 308 838 l 513 224 l 783 932 l 861 932 l 1144 222 l 1340 838 l 1171 838 l 1171 953 l 1636 953 l 1636 838 z "},"Ẃ":{"ha":1639,"x_min":4,"x_max":1636,"o":"m 1636 838 l 1481 838 l 1176 -18 l 1106 -18 l 813 676 l 535 -18 l 463 -18 l 157 838 l 4 838 l 4 953 l 471 953 l 471 838 l 308 838 l 513 224 l 783 932 l 861 932 l 1144 222 l 1340 838 l 1171 838 l 1171 953 l 1636 953 l 1636 838 m 703 1047 l 1011 1253 l 938 1353 l 663 1100 l 703 1047 z "},"Ŵ":{"ha":1639,"x_min":4,"x_max":1636,"o":"m 1636 838 l 1481 838 l 1176 -18 l 1106 -18 l 813 676 l 535 -18 l 463 -18 l 157 838 l 4 838 l 4 953 l 471 953 l 471 838 l 308 838 l 513 224 l 783 932 l 861 932 l 1144 222 l 1340 838 l 1171 838 l 1171 953 l 1636 953 l 1636 838 m 554 1086 l 765 1331 l 838 1331 l 1050 1086 l 1007 1046 l 800 1218 l 599 1046 l 554 1086 z "},"Ẅ":{"ha":1639,"x_min":4,"x_max":1636,"o":"m 1636 838 l 1481 838 l 1176 -18 l 1106 -18 l 813 676 l 535 -18 l 463 -18 l 157 838 l 4 838 l 4 953 l 471 953 l 471 838 l 308 838 l 513 224 l 783 932 l 861 932 l 1144 222 l 1340 838 l 1171 838 l 1171 953 l 1636 953 l 1636 838 m 646 1103 q 579 1124 607 1103 q 551 1179 551 1146 q 579 1235 551 1213 q 646 1258 607 1258 q 715 1236 688 1258 q 742 1179 742 1214 q 715 1124 742 1146 q 646 1103 688 1103 m 951 1103 q 885 1124 913 1103 q 857 1179 857 1146 q 885 1235 857 1213 q 951 1258 913 1258 q 1019 1236 992 1258 q 1047 1179 1047 1214 q 1019 1124 1047 1146 q 951 1103 992 1103 z "},"Ẁ":{"ha":1639,"x_min":4,"x_max":1636,"o":"m 1636 838 l 1481 838 l 1176 -18 l 1106 -18 l 813 676 l 535 -18 l 463 -18 l 157 838 l 4 838 l 4 953 l 471 953 l 471 838 l 308 838 l 513 224 l 783 932 l 861 932 l 1144 222 l 1340 838 l 1171 838 l 1171 953 l 1636 953 l 1636 838 m 664 1353 l 590 1253 l 900 1047 l 939 1100 l 664 1353 z "},"X":{"ha":1132,"x_min":18,"x_max":1115,"o":"m 1115 115 l 1115 0 l 647 0 l 647 106 l 792 106 l 556 390 l 315 106 l 464 106 l 464 0 l 18 0 l 18 115 l 172 115 l 476 464 l 146 838 l 18 838 l 18 953 l 485 953 l 485 847 l 325 847 l 575 554 l 828 847 l 665 847 l 665 953 l 1114 953 l 1114 838 l 969 838 l 653 482 l 972 115 l 1115 115 z "},"Y":{"ha":1119,"x_min":14,"x_max":1106,"o":"m 633 372 l 633 115 l 817 115 l 817 0 l 304 0 l 304 115 l 490 115 l 490 364 l 149 838 l 14 838 l 14 953 l 451 953 l 451 838 l 315 838 l 575 463 l 825 838 l 668 838 l 668 953 l 1106 953 l 1106 838 l 965 838 l 633 372 z "},"Ý":{"ha":1119,"x_min":14,"x_max":1106,"o":"m 633 372 l 633 115 l 817 115 l 817 0 l 304 0 l 304 115 l 490 115 l 490 364 l 149 838 l 14 838 l 14 953 l 451 953 l 451 838 l 315 838 l 575 463 l 825 838 l 668 838 l 668 953 l 1106 953 l 1106 838 l 965 838 l 633 372 m 461 1029 l 769 1235 l 696 1335 l 421 1082 l 461 1029 z "},"Ŷ":{"ha":1119,"x_min":14,"x_max":1106,"o":"m 633 372 l 633 115 l 817 115 l 817 0 l 304 0 l 304 115 l 490 115 l 490 364 l 149 838 l 14 838 l 14 953 l 451 953 l 451 838 l 315 838 l 575 463 l 825 838 l 668 838 l 668 953 l 1106 953 l 1106 838 l 965 838 l 633 372 m 313 1068 l 524 1313 l 596 1313 l 808 1068 l 765 1028 l 558 1200 l 357 1028 l 313 1068 z "},"Ÿ":{"ha":1119,"x_min":14,"x_max":1106,"o":"m 633 372 l 633 115 l 817 115 l 817 0 l 304 0 l 304 115 l 490 115 l 490 364 l 149 838 l 14 838 l 14 953 l 451 953 l 451 838 l 315 838 l 575 463 l 825 838 l 668 838 l 668 953 l 1106 953 l 1106 838 l 965 838 l 633 372 m 404 1085 q 338 1106 365 1085 q 310 1161 310 1128 q 338 1217 310 1194 q 404 1240 365 1240 q 473 1218 446 1240 q 500 1161 500 1196 q 473 1106 500 1128 q 404 1085 446 1085 m 710 1085 q 643 1106 671 1085 q 615 1161 615 1128 q 643 1217 615 1194 q 710 1240 671 1240 q 778 1218 750 1240 q 806 1161 806 1196 q 778 1106 806 1128 q 710 1085 750 1085 z "},"Ỳ":{"ha":1119,"x_min":14,"x_max":1106,"o":"m 633 372 l 633 115 l 817 115 l 817 0 l 304 0 l 304 115 l 490 115 l 490 364 l 149 838 l 14 838 l 14 953 l 451 953 l 451 838 l 315 838 l 575 463 l 825 838 l 668 838 l 668 953 l 1106 953 l 1106 838 l 965 838 l 633 372 m 422 1335 l 349 1235 l 658 1029 l 697 1082 l 422 1335 z "},"Z":{"ha":1028,"x_min":89,"x_max":950,"o":"m 89 97 l 710 796 q 788 842 735 824 l 786 847 q 703 839 747 839 l 218 839 l 218 640 l 90 640 l 90 953 l 943 953 l 943 857 l 318 154 q 283 128 306 139 q 242 113 260 117 l 243 106 q 283 113 260 110 q 328 115 307 115 l 822 115 l 822 313 l 950 313 l 950 0 l 89 0 l 89 97 z "},"Ź":{"ha":1028,"x_min":89,"x_max":950,"o":"m 89 97 l 710 796 q 788 842 735 824 l 786 847 q 703 839 747 839 l 218 839 l 218 640 l 90 640 l 90 953 l 943 953 l 943 857 l 318 154 q 283 128 306 139 q 242 113 260 117 l 243 106 q 283 113 260 110 q 328 115 307 115 l 822 115 l 822 313 l 950 313 l 950 0 l 89 0 l 89 97 m 440 1047 l 749 1253 l 675 1353 l 400 1100 l 440 1047 z "},"Ž":{"ha":1028,"x_min":89,"x_max":950,"o":"m 89 97 l 710 796 q 788 842 735 824 l 786 847 q 703 839 747 839 l 218 839 l 218 640 l 90 640 l 90 953 l 943 953 l 943 857 l 318 154 q 283 128 306 139 q 242 113 260 117 l 243 106 q 283 113 260 110 q 328 115 307 115 l 822 115 l 822 313 l 950 313 l 950 0 l 89 0 l 89 97 m 788 1300 l 575 1056 l 503 1056 l 292 1300 l 336 1342 l 539 1169 l 744 1342 l 788 1300 z "},"Ż":{"ha":1028,"x_min":89,"x_max":950,"o":"m 89 97 l 710 796 q 788 842 735 824 l 786 847 q 703 839 747 839 l 218 839 l 218 640 l 90 640 l 90 953 l 943 953 l 943 857 l 318 154 q 283 128 306 139 q 242 113 260 117 l 243 106 q 283 113 260 110 q 328 115 307 115 l 822 115 l 822 313 l 950 313 l 950 0 l 89 0 l 89 97 m 540 1103 q 464 1126 494 1103 q 433 1185 433 1150 q 464 1247 433 1222 q 540 1271 494 1271 q 618 1247 588 1271 q 649 1185 649 1222 q 618 1126 649 1149 q 540 1103 588 1103 z "},"a":{"ha":835,"x_min":68,"x_max":815,"o":"m 815 17 q 708 -11 769 -11 q 622 19 657 -11 q 572 104 586 49 q 297 -19 433 -19 q 135 35 201 -19 q 68 186 68 89 q 106 302 68 253 q 206 377 143 351 q 343 403 269 403 q 458 391 406 403 q 567 357 511 379 l 567 418 q 519 522 567 489 q 396 556 472 556 q 135 496 288 556 l 107 601 q 413 671 271 671 q 622 605 547 671 q 696 413 696 539 l 696 172 q 744 104 696 104 q 788 115 765 104 l 815 17 m 203 193 q 240 120 203 146 q 332 94 278 94 q 440 119 379 94 q 567 193 501 144 l 567 267 q 367 303 472 300 q 251 274 299 303 q 203 193 203 246 z "},"á":{"ha":835,"x_min":68,"x_max":815,"o":"m 815 17 q 708 -11 769 -11 q 622 19 657 -11 q 572 104 586 49 q 297 -19 433 -19 q 135 35 201 -19 q 68 186 68 89 q 106 302 68 253 q 206 377 143 351 q 343 403 269 403 q 458 391 406 403 q 567 357 511 379 l 567 418 q 519 522 567 489 q 396 556 472 556 q 135 496 288 556 l 107 601 q 413 671 271 671 q 622 605 547 671 q 696 413 696 539 l 696 172 q 744 104 696 104 q 788 115 765 104 l 815 17 m 203 193 q 240 120 203 146 q 332 94 278 94 q 440 119 379 94 q 567 193 501 144 l 567 267 q 367 303 472 300 q 251 274 299 303 q 203 193 203 246 m 308 767 l 617 972 l 543 1072 l 268 819 l 308 767 z "},"ă":{"ha":835,"x_min":68,"x_max":815,"o":"m 815 17 q 708 -11 769 -11 q 622 19 657 -11 q 572 104 586 49 q 297 -19 433 -19 q 135 35 201 -19 q 68 186 68 89 q 106 302 68 253 q 206 377 143 351 q 343 403 269 403 q 458 391 406 403 q 567 357 511 379 l 567 418 q 519 522 567 489 q 396 556 472 556 q 135 496 288 556 l 107 601 q 413 671 271 671 q 622 605 547 671 q 696 413 696 539 l 696 172 q 744 104 696 104 q 788 115 765 104 l 815 17 m 203 193 q 240 120 203 146 q 332 94 278 94 q 440 119 379 94 q 567 193 501 144 l 567 267 q 367 303 472 300 q 251 274 299 303 q 203 193 203 246 m 407 789 q 278 822 335 789 q 191 908 222 856 q 154 1017 160 960 l 239 1033 q 299 940 254 976 q 407 904 344 904 q 514 940 469 904 q 574 1033 558 976 l 658 1017 q 622 908 653 960 q 535 822 590 856 q 407 789 479 789 z "},"â":{"ha":835,"x_min":68,"x_max":815,"o":"m 815 17 q 708 -11 769 -11 q 622 19 657 -11 q 572 104 586 49 q 297 -19 433 -19 q 135 35 201 -19 q 68 186 68 89 q 106 302 68 253 q 206 377 143 351 q 343 403 269 403 q 458 391 406 403 q 567 357 511 379 l 567 418 q 519 522 567 489 q 396 556 472 556 q 135 496 288 556 l 107 601 q 413 671 271 671 q 622 605 547 671 q 696 413 696 539 l 696 172 q 744 104 696 104 q 788 115 765 104 l 815 17 m 203 193 q 240 120 203 146 q 332 94 278 94 q 440 119 379 94 q 567 193 501 144 l 567 267 q 367 303 472 300 q 251 274 299 303 q 203 193 203 246 m 160 806 l 371 1050 l 443 1050 l 656 806 l 613 765 l 406 938 l 204 765 l 160 806 z "},"ä":{"ha":835,"x_min":68,"x_max":815,"o":"m 815 17 q 708 -11 769 -11 q 622 19 657 -11 q 572 104 586 49 q 297 -19 433 -19 q 135 35 201 -19 q 68 186 68 89 q 106 302 68 253 q 206 377 143 351 q 343 403 269 403 q 458 391 406 403 q 567 357 511 379 l 567 418 q 519 522 567 489 q 396 556 472 556 q 135 496 288 556 l 107 601 q 413 671 271 671 q 622 605 547 671 q 696 413 696 539 l 696 172 q 744 104 696 104 q 788 115 765 104 l 815 17 m 203 193 q 240 120 203 146 q 332 94 278 94 q 440 119 379 94 q 567 193 501 144 l 567 267 q 367 303 472 300 q 251 274 299 303 q 203 193 203 246 m 251 822 q 185 844 213 822 q 157 899 157 865 q 185 955 157 932 q 251 978 213 978 q 320 956 293 978 q 347 899 347 933 q 320 844 347 865 q 251 822 293 822 m 557 822 q 490 844 518 822 q 463 899 463 865 q 490 955 463 932 q 557 978 518 978 q 625 956 597 978 q 653 899 653 933 q 625 844 653 865 q 557 822 597 822 z "},"à":{"ha":835,"x_min":68,"x_max":815,"o":"m 815 17 q 708 -11 769 -11 q 622 19 657 -11 q 572 104 586 49 q 297 -19 433 -19 q 135 35 201 -19 q 68 186 68 89 q 106 302 68 253 q 206 377 143 351 q 343 403 269 403 q 458 391 406 403 q 567 357 511 379 l 567 418 q 519 522 567 489 q 396 556 472 556 q 135 496 288 556 l 107 601 q 413 671 271 671 q 622 605 547 671 q 696 413 696 539 l 696 172 q 744 104 696 104 q 788 115 765 104 l 815 17 m 203 193 q 240 120 203 146 q 332 94 278 94 q 440 119 379 94 q 567 193 501 144 l 567 267 q 367 303 472 300 q 251 274 299 303 q 203 193 203 246 m 269 1072 l 196 972 l 506 767 l 544 819 l 269 1072 z "},"ā":{"ha":835,"x_min":68,"x_max":815,"o":"m 815 17 q 708 -11 769 -11 q 622 19 657 -11 q 572 104 586 49 q 297 -19 433 -19 q 135 35 201 -19 q 68 186 68 89 q 106 302 68 253 q 206 377 143 351 q 343 403 269 403 q 458 391 406 403 q 567 357 511 379 l 567 418 q 519 522 567 489 q 396 556 472 556 q 135 496 288 556 l 107 601 q 413 671 271 671 q 622 605 547 671 q 696 413 696 539 l 696 172 q 744 104 696 104 q 788 115 765 104 l 815 17 m 203 193 q 240 120 203 146 q 332 94 278 94 q 440 119 379 94 q 567 193 501 144 l 567 267 q 367 303 472 300 q 251 274 299 303 q 203 193 203 246 m 665 817 l 139 818 l 139 918 l 665 915 l 665 817 z "},"ą":{"ha":835,"x_min":68,"x_max":917,"o":"m 917 -250 q 850 -279 882 -269 q 775 -289 818 -289 q 660 -251 707 -289 q 614 -151 614 -214 q 682 -8 614 -74 q 612 27 640 -1 q 572 104 583 56 q 297 -19 433 -19 q 135 35 201 -19 q 68 186 68 89 q 106 302 68 253 q 206 377 143 351 q 343 403 269 403 q 458 391 406 403 q 567 357 511 379 l 567 418 q 519 522 567 489 q 396 556 472 556 q 135 496 288 556 l 107 601 q 413 671 271 671 q 622 605 547 671 q 696 413 696 539 l 696 172 q 744 104 696 104 q 788 115 765 104 l 815 17 l 800 8 q 730 -56 757 -24 q 703 -129 703 -89 q 726 -183 703 -164 q 786 -203 750 -203 q 889 -172 839 -203 l 917 -250 m 203 193 q 240 120 203 146 q 332 94 278 94 q 440 119 379 94 q 567 193 501 144 l 567 267 q 367 303 472 300 q 251 274 299 303 q 203 193 203 246 z "},"å":{"ha":835,"x_min":68,"x_max":815,"o":"m 815 17 q 708 -11 769 -11 q 622 19 657 -11 q 572 104 586 49 q 297 -19 433 -19 q 135 35 201 -19 q 68 186 68 89 q 106 302 68 253 q 206 377 143 351 q 343 403 269 403 q 458 391 406 403 q 567 357 511 379 l 567 418 q 519 522 567 489 q 396 556 472 556 q 135 496 288 556 l 107 601 q 413 671 271 671 q 622 605 547 671 q 696 413 696 539 l 696 172 q 744 104 696 104 q 788 115 765 104 l 815 17 m 203 193 q 240 120 203 146 q 332 94 278 94 q 440 119 379 94 q 567 193 501 144 l 567 267 q 367 303 472 300 q 251 274 299 303 q 203 193 203 246 m 407 763 q 309 789 354 763 q 236 860 264 815 q 208 958 208 904 q 235 1058 208 1014 q 308 1127 263 1103 q 407 1151 354 1151 q 506 1126 461 1151 q 578 1056 551 1100 q 606 956 606 1011 q 578 856 606 900 q 506 788 551 813 q 407 763 461 763 m 407 838 q 492 872 457 838 q 526 956 526 907 q 492 1041 526 1007 q 407 1075 457 1075 q 324 1042 358 1075 q 289 958 289 1008 q 324 873 289 908 q 407 838 358 838 z "},"ã":{"ha":835,"x_min":68,"x_max":815,"o":"m 815 17 q 708 -11 769 -11 q 622 19 657 -11 q 572 104 586 49 q 297 -19 433 -19 q 135 35 201 -19 q 68 186 68 89 q 106 302 68 253 q 206 377 143 351 q 343 403 269 403 q 458 391 406 403 q 567 357 511 379 l 567 418 q 519 522 567 489 q 396 556 472 556 q 135 496 288 556 l 107 601 q 413 671 271 671 q 622 605 547 671 q 696 413 696 539 l 696 172 q 744 104 696 104 q 788 115 765 104 l 815 17 m 203 193 q 240 120 203 146 q 332 94 278 94 q 440 119 379 94 q 567 193 501 144 l 567 267 q 367 303 472 300 q 251 274 299 303 q 203 193 203 246 m 526 775 q 446 799 479 775 q 374 868 413 822 q 319 926 339 910 q 272 943 299 943 q 193 796 204 943 l 113 804 q 156 963 115 901 q 272 1024 197 1024 q 356 1001 322 1024 q 429 931 390 978 q 482 874 461 890 q 526 857 503 857 q 607 1001 599 857 l 689 994 q 643 837 686 899 q 526 775 600 775 z "},"æ":{"ha":1288,"x_min":68,"x_max":1233,"o":"m 1233 97 q 925 -19 1097 -19 q 749 22 831 -19 q 618 139 667 64 q 460 20 536 60 q 297 -19 383 -19 q 135 35 201 -19 q 68 186 68 89 q 106 302 68 253 q 206 377 143 351 q 343 403 269 403 q 458 392 406 403 q 568 363 510 382 l 568 367 q 522 515 568 474 q 392 556 475 556 q 135 496 288 556 l 107 601 q 407 671 271 671 q 564 633 501 671 q 651 517 626 594 q 777 631 696 590 q 946 672 858 672 q 1085 647 1022 672 q 1184 575 1147 622 q 1221 467 1221 528 q 1183 359 1221 404 q 1083 291 1146 314 q 950 268 1021 268 q 820 280 881 268 q 696 315 760 292 q 728 200 696 249 q 815 126 761 151 q 932 101 869 101 q 1064 125 1006 101 q 1175 190 1122 149 l 1233 97 m 944 564 q 799 517 867 564 q 708 393 732 471 q 919 363 813 363 q 1038 390 990 363 q 1085 467 1085 418 q 1045 538 1085 513 q 944 564 1006 564 m 332 94 q 452 123 388 94 q 586 207 517 151 q 571 272 579 228 q 367 303 479 300 q 251 274 299 303 q 203 193 203 246 q 240 120 203 146 q 332 94 278 94 z "},"b":{"ha":897,"x_min":4,"x_max":840,"o":"m 538 672 q 688 629 618 672 q 799 509 758 586 q 840 333 840 432 q 795 151 840 232 q 672 26 750 71 q 500 -19 594 -19 q 260 88 369 -19 l 221 0 l 140 0 l 140 843 l 4 843 l 4 953 l 274 953 l 274 529 q 397 634 328 596 q 538 672 467 672 m 471 97 q 588 127 536 97 q 669 211 640 157 q 699 335 699 265 q 642 495 699 433 q 499 557 586 557 q 381 522 439 557 q 274 422 324 486 l 274 178 q 471 97 374 97 z "},"c":{"ha":760,"x_min":57,"x_max":708,"o":"m 708 106 q 407 -19 579 -19 q 235 24 315 -19 q 106 145 154 67 q 57 325 57 224 q 101 501 57 421 q 221 626 146 581 q 383 672 296 672 q 600 574 522 672 l 600 654 l 699 654 l 699 425 l 640 421 q 424 560 572 560 q 308 530 360 560 q 228 447 257 500 q 199 326 199 394 q 230 207 199 260 q 312 126 261 154 q 421 97 363 97 q 541 121 489 96 q 647 194 593 146 l 708 106 z "},"ć":{"ha":760,"x_min":57,"x_max":708,"o":"m 708 106 q 407 -19 579 -19 q 235 24 315 -19 q 106 145 154 67 q 57 325 57 224 q 101 501 57 421 q 221 626 146 581 q 383 672 296 672 q 600 574 522 672 l 600 654 l 699 654 l 699 425 l 640 421 q 424 560 572 560 q 308 530 360 560 q 228 447 257 500 q 199 326 199 394 q 230 207 199 260 q 312 126 261 154 q 421 97 363 97 q 541 121 489 96 q 647 194 593 146 l 708 106 m 293 775 l 601 981 l 528 1081 l 253 828 l 293 775 z "},"č":{"ha":760,"x_min":57,"x_max":708,"o":"m 708 106 q 407 -19 579 -19 q 235 24 315 -19 q 106 145 154 67 q 57 325 57 224 q 101 501 57 421 q 221 626 146 581 q 383 672 296 672 q 600 574 522 672 l 600 654 l 699 654 l 699 425 l 640 421 q 424 560 572 560 q 308 530 360 560 q 228 447 257 500 q 199 326 199 394 q 230 207 199 260 q 312 126 261 154 q 421 97 363 97 q 541 121 489 96 q 647 194 593 146 l 708 106 m 640 1028 l 428 783 l 356 783 l 144 1028 l 189 1069 l 392 897 l 597 1069 l 640 1028 z "},"ç":{"ha":760,"x_min":57,"x_max":708,"o":"m 410 -103 q 513 -137 474 -103 q 553 -226 553 -171 q 499 -327 553 -289 q 369 -365 444 -365 q 171 -297 269 -365 l 211 -229 q 369 -287 290 -287 q 436 -271 411 -287 q 461 -226 461 -254 q 438 -180 461 -196 q 372 -164 414 -164 q 292 -169 339 -164 l 283 -157 l 342 -14 q 198 46 263 0 q 95 164 133 92 q 57 325 57 236 q 101 501 57 421 q 221 626 146 581 q 383 672 296 672 q 600 574 522 672 l 600 654 l 699 654 l 699 425 l 640 421 q 424 560 572 560 q 308 530 360 560 q 228 447 257 500 q 199 326 199 394 q 230 207 199 260 q 312 126 261 154 q 421 97 363 97 q 541 121 489 96 q 647 194 593 146 l 708 106 q 413 -19 581 -18 l 378 -104 l 410 -103 z "},"ċ":{"ha":760,"x_min":57,"x_max":708,"o":"m 708 106 q 407 -19 579 -19 q 235 24 315 -19 q 106 145 154 67 q 57 325 57 224 q 101 501 57 421 q 221 626 146 581 q 383 672 296 672 q 600 574 522 672 l 600 654 l 699 654 l 699 425 l 640 421 q 424 560 572 560 q 308 530 360 560 q 228 447 257 500 q 199 326 199 394 q 230 207 199 260 q 312 126 261 154 q 421 97 363 97 q 541 121 489 96 q 647 194 593 146 l 708 106 m 393 831 q 317 854 347 831 q 286 913 286 878 q 317 974 286 950 q 393 999 347 999 q 471 974 440 999 q 501 913 501 950 q 471 853 501 876 q 393 831 440 831 z "},"d":{"ha":903,"x_min":57,"x_max":874,"o":"m 874 13 q 826 -6 854 1 q 768 -14 799 -14 q 679 13 717 -14 q 628 92 642 40 q 510 11 572 42 q 374 -19 449 -19 q 216 24 289 -19 q 100 144 143 67 q 57 318 57 221 q 102 501 57 419 q 225 627 147 582 q 397 672 303 672 q 619 583 518 672 l 619 843 l 472 843 l 472 953 l 753 953 l 753 168 q 799 101 753 101 q 844 113 829 101 l 874 13 m 199 319 q 255 158 199 219 q 401 97 311 97 q 619 192 506 97 l 619 479 q 428 557 522 557 q 310 526 363 557 q 228 442 257 496 q 199 319 199 388 z "},"ð":{"ha":840,"x_min":44,"x_max":783,"o":"m 519 903 q 783 383 783 683 q 730 160 783 256 q 586 15 676 65 q 389 -35 496 -35 q 213 3 292 -35 q 90 110 135 42 q 44 265 44 178 q 89 423 44 353 q 210 533 133 493 q 378 572 286 572 q 635 490 525 572 q 569 664 618 586 q 439 808 521 742 l 322 668 l 240 732 l 356 869 q 183 968 292 913 l 236 1081 q 436 965 342 1031 l 554 1107 l 635 1042 l 519 903 m 393 74 q 516 109 458 74 q 609 214 574 144 q 644 381 644 283 q 533 442 594 421 q 408 464 471 464 q 298 438 347 464 q 221 367 249 413 q 193 267 193 322 q 250 128 193 183 q 393 74 307 74 z "},"ď":{"ha":903,"x_min":57,"x_max":985,"o":"m 874 13 q 826 -6 854 1 q 768 -14 799 -14 q 679 13 717 -14 q 628 92 642 40 q 510 11 572 42 q 374 -19 449 -19 q 216 24 289 -19 q 100 144 143 67 q 57 318 57 221 q 102 501 57 419 q 225 627 147 582 q 397 672 303 672 q 619 583 518 672 l 619 843 l 472 843 l 472 953 l 753 953 l 753 168 q 799 101 753 101 q 844 113 829 101 l 874 13 m 199 319 q 255 158 199 219 q 401 97 311 97 q 619 192 506 97 l 619 479 q 428 557 522 557 q 310 526 363 557 q 228 442 257 496 q 199 319 199 388 m 985 953 q 885 700 979 822 l 826 717 q 872 967 879 842 l 985 953 z "},"đ":{"ha":903,"x_min":57,"x_max":872,"o":"m 753 746 l 753 168 q 797 100 753 100 q 843 113 825 100 l 872 13 q 826 -6 854 1 q 767 -14 797 -14 q 676 13 713 -14 q 625 89 639 39 q 374 -19 503 -19 q 216 24 289 -19 q 100 144 143 67 q 57 318 57 221 q 102 501 57 419 q 225 627 147 582 q 397 672 303 672 q 615 588 515 672 l 615 746 l 339 746 l 339 836 l 615 836 l 615 953 l 753 953 l 753 836 l 872 836 l 872 746 l 753 746 m 199 319 q 255 158 199 219 q 401 97 311 97 q 615 188 506 97 l 615 486 q 428 560 522 560 q 310 528 363 560 q 228 442 257 497 q 199 319 199 388 z "},"e":{"ha":776,"x_min":57,"x_max":724,"o":"m 724 97 q 419 -19 590 -19 q 243 19 326 -19 q 108 133 160 58 q 57 311 57 208 q 110 503 57 421 q 247 628 163 585 q 425 672 332 672 q 572 646 507 672 q 673 572 636 619 q 710 464 710 525 q 631 322 710 372 q 443 271 553 271 q 311 285 372 271 q 188 328 250 300 l 188 315 q 219 200 188 250 q 303 124 250 150 q 418 97 356 97 q 665 186 560 97 l 724 97 m 435 564 q 295 521 360 564 q 203 404 231 478 q 414 367 308 367 q 528 392 483 367 q 574 464 574 418 q 535 536 574 508 q 435 564 496 564 z "},"é":{"ha":776,"x_min":57,"x_max":724,"o":"m 724 97 q 419 -19 590 -19 q 243 19 326 -19 q 108 133 160 58 q 57 311 57 208 q 110 503 57 421 q 247 628 163 585 q 425 672 332 672 q 572 646 507 672 q 673 572 636 619 q 710 464 710 525 q 631 322 710 372 q 443 271 553 271 q 311 285 372 271 q 188 328 250 300 l 188 315 q 219 200 188 250 q 303 124 250 150 q 418 97 356 97 q 665 186 560 97 l 724 97 m 435 564 q 295 521 360 564 q 203 404 231 478 q 414 367 308 367 q 528 392 483 367 q 574 464 574 418 q 535 536 574 508 q 435 564 496 564 m 306 775 l 614 981 l 540 1081 l 265 828 l 306 775 z "},"ě":{"ha":776,"x_min":57,"x_max":724,"o":"m 724 97 q 419 -19 590 -19 q 243 19 326 -19 q 108 133 160 58 q 57 311 57 208 q 110 503 57 421 q 247 628 163 585 q 425 672 332 672 q 572 646 507 672 q 673 572 636 619 q 710 464 710 525 q 631 322 710 372 q 443 271 553 271 q 311 285 372 271 q 188 328 250 300 l 188 315 q 219 200 188 250 q 303 124 250 150 q 418 97 356 97 q 665 186 560 97 l 724 97 m 435 564 q 295 521 360 564 q 203 404 231 478 q 414 367 308 367 q 528 392 483 367 q 574 464 574 418 q 535 536 574 508 q 435 564 496 564 m 653 1028 l 440 783 l 368 783 l 157 1028 l 201 1069 l 404 897 l 610 1069 l 653 1028 z "},"ê":{"ha":776,"x_min":57,"x_max":724,"o":"m 724 97 q 419 -19 590 -19 q 243 19 326 -19 q 108 133 160 58 q 57 311 57 208 q 110 503 57 421 q 247 628 163 585 q 425 672 332 672 q 572 646 507 672 q 673 572 636 619 q 710 464 710 525 q 631 322 710 372 q 443 271 553 271 q 311 285 372 271 q 188 328 250 300 l 188 315 q 219 200 188 250 q 303 124 250 150 q 418 97 356 97 q 665 186 560 97 l 724 97 m 435 564 q 295 521 360 564 q 203 404 231 478 q 414 367 308 367 q 528 392 483 367 q 574 464 574 418 q 535 536 574 508 q 435 564 496 564 m 157 814 l 368 1058 l 440 1058 l 653 814 l 610 774 l 403 946 l 201 774 l 157 814 z "},"ë":{"ha":776,"x_min":57,"x_max":724,"o":"m 724 97 q 419 -19 590 -19 q 243 19 326 -19 q 108 133 160 58 q 57 311 57 208 q 110 503 57 421 q 247 628 163 585 q 425 672 332 672 q 572 646 507 672 q 673 572 636 619 q 710 464 710 525 q 631 322 710 372 q 443 271 553 271 q 311 285 372 271 q 188 328 250 300 l 188 315 q 219 200 188 250 q 303 124 250 150 q 418 97 356 97 q 665 186 560 97 l 724 97 m 435 564 q 295 521 360 564 q 203 404 231 478 q 414 367 308 367 q 528 392 483 367 q 574 464 574 418 q 535 536 574 508 q 435 564 496 564 m 249 831 q 182 852 210 831 q 154 907 154 874 q 182 963 154 940 q 249 986 210 986 q 317 964 290 986 q 344 907 344 942 q 317 852 344 874 q 249 831 290 831 m 554 831 q 488 852 515 831 q 460 907 460 874 q 488 963 460 940 q 554 986 515 986 q 622 964 594 986 q 650 907 650 942 q 622 852 650 874 q 554 831 594 831 z "},"ė":{"ha":776,"x_min":57,"x_max":724,"o":"m 724 97 q 419 -19 590 -19 q 243 19 326 -19 q 108 133 160 58 q 57 311 57 208 q 110 503 57 421 q 247 628 163 585 q 425 672 332 672 q 572 646 507 672 q 673 572 636 619 q 710 464 710 525 q 631 322 710 372 q 443 271 553 271 q 311 285 372 271 q 188 328 250 300 l 188 315 q 219 200 188 250 q 303 124 250 150 q 418 97 356 97 q 665 186 560 97 l 724 97 m 435 564 q 295 521 360 564 q 203 404 231 478 q 414 367 308 367 q 528 392 483 367 q 574 464 574 418 q 535 536 574 508 q 435 564 496 564 m 406 831 q 329 854 360 831 q 299 913 299 878 q 329 974 299 950 q 406 999 360 999 q 483 974 453 999 q 514 913 514 950 q 483 853 514 876 q 406 831 453 831 z "},"è":{"ha":776,"x_min":57,"x_max":724,"o":"m 724 97 q 419 -19 590 -19 q 243 19 326 -19 q 108 133 160 58 q 57 311 57 208 q 110 503 57 421 q 247 628 163 585 q 425 672 332 672 q 572 646 507 672 q 673 572 636 619 q 710 464 710 525 q 631 322 710 372 q 443 271 553 271 q 311 285 372 271 q 188 328 250 300 l 188 315 q 219 200 188 250 q 303 124 250 150 q 418 97 356 97 q 665 186 560 97 l 724 97 m 435 564 q 295 521 360 564 q 203 404 231 478 q 414 367 308 367 q 528 392 483 367 q 574 464 574 418 q 535 536 574 508 q 435 564 496 564 m 267 1081 l 193 981 l 503 775 l 542 828 l 267 1081 z "},"ē":{"ha":776,"x_min":57,"x_max":724,"o":"m 724 97 q 419 -19 590 -19 q 243 19 326 -19 q 108 133 160 58 q 57 311 57 208 q 110 503 57 421 q 247 628 163 585 q 425 672 332 672 q 572 646 507 672 q 673 572 636 619 q 710 464 710 525 q 631 322 710 372 q 443 271 553 271 q 311 285 372 271 q 188 328 250 300 l 188 315 q 219 200 188 250 q 303 124 250 150 q 418 97 356 97 q 665 186 560 97 l 724 97 m 435 564 q 295 521 360 564 q 203 404 231 478 q 414 367 308 367 q 528 392 483 367 q 574 464 574 418 q 535 536 574 508 q 435 564 496 564 m 663 825 l 136 826 l 136 926 l 663 924 l 663 825 z "},"ę":{"ha":776,"x_min":57,"x_max":814,"o":"m 814 -169 q 747 -199 779 -189 q 672 -208 715 -208 q 558 -171 604 -208 q 511 -71 511 -133 q 522 -8 511 -37 q 419 -19 471 -19 q 243 19 326 -19 q 108 133 160 58 q 57 311 57 208 q 110 503 57 421 q 247 628 163 585 q 425 672 332 672 q 572 646 507 672 q 673 572 636 619 q 710 464 710 525 q 631 322 710 372 q 443 271 553 271 q 311 285 372 271 q 188 328 250 300 l 188 315 q 219 200 188 250 q 303 124 250 150 q 418 97 356 97 q 665 186 560 97 l 724 97 q 635 35 683 61 q 600 -49 600 -7 q 624 -103 600 -83 q 683 -122 647 -122 q 786 -92 736 -122 l 814 -169 m 435 564 q 295 521 360 564 q 203 404 231 478 q 414 367 308 367 q 528 392 483 367 q 574 464 574 418 q 535 536 574 508 q 435 564 496 564 z "},"f":{"ha":590,"x_min":40,"x_max":679,"o":"m 464 903 q 361 863 400 903 q 322 751 322 822 l 322 654 l 531 654 l 531 544 l 322 544 l 322 110 l 514 110 l 514 0 l 40 0 l 40 110 l 188 110 l 188 544 l 40 544 l 40 654 l 188 654 l 188 747 q 259 947 188 876 q 450 1018 331 1018 q 562 1002 511 1018 q 679 956 613 986 l 629 850 q 547 889 586 875 q 464 903 507 903 z "},"g":{"ha":799,"x_min":22,"x_max":771,"o":"m 572 124 q 716 79 661 124 q 771 -46 771 35 q 713 -182 771 -124 q 556 -272 654 -240 q 342 -303 457 -303 q 112 -251 201 -303 q 22 -108 22 -199 q 44 -33 22 -68 q 99 29 65 3 q 56 78 71 50 q 42 139 42 107 q 71 231 42 190 q 147 300 100 272 q 100 433 100 358 q 144 563 100 508 q 256 644 188 617 q 394 672 324 672 q 546 642 476 672 q 627 751 571 714 q 761 792 683 789 l 761 678 q 670 660 707 675 q 606 607 633 644 q 692 438 692 542 q 649 308 692 363 q 537 226 606 254 q 394 199 468 199 q 203 251 288 199 q 161 171 161 214 q 190 115 161 135 q 268 94 218 94 q 410 108 315 94 q 490 119 447 114 q 572 124 533 124 m 396 575 q 281 535 328 575 q 233 433 233 496 q 280 333 233 371 q 396 296 326 296 q 513 335 468 296 q 558 438 558 374 q 512 538 558 500 q 396 575 465 575 m 361 -190 q 501 -174 435 -190 q 606 -126 567 -157 q 646 -54 646 -94 q 543 17 646 17 q 482 13 515 17 q 417 3 449 8 q 333 -10 378 -4 q 244 -15 288 -15 q 168 -6 207 -15 q 140 -81 140 -37 q 199 -161 140 -132 q 361 -190 257 -190 z "},"ğ":{"ha":799,"x_min":22,"x_max":771,"o":"m 572 124 q 716 79 661 124 q 771 -46 771 35 q 713 -182 771 -124 q 556 -272 654 -240 q 342 -303 457 -303 q 112 -251 201 -303 q 22 -108 22 -199 q 44 -33 22 -68 q 99 29 65 3 q 56 78 71 50 q 42 139 42 107 q 71 231 42 190 q 147 300 100 272 q 100 433 100 358 q 144 563 100 508 q 256 644 188 617 q 394 672 324 672 q 546 642 476 672 q 627 751 571 714 q 761 792 683 789 l 761 678 q 670 660 707 675 q 606 607 633 644 q 692 438 692 542 q 649 308 692 363 q 537 226 606 254 q 394 199 468 199 q 203 251 288 199 q 161 171 161 214 q 190 115 161 135 q 268 94 218 94 q 410 108 315 94 q 490 119 447 114 q 572 124 533 124 m 396 575 q 281 535 328 575 q 233 433 233 496 q 280 333 233 371 q 396 296 326 296 q 513 335 468 296 q 558 438 558 374 q 512 538 558 500 q 396 575 465 575 m 361 -190 q 501 -174 435 -190 q 606 -126 567 -157 q 646 -54 646 -94 q 543 17 646 17 q 482 13 515 17 q 417 3 449 8 q 333 -10 378 -4 q 244 -15 288 -15 q 168 -6 207 -15 q 140 -81 140 -37 q 199 -161 140 -132 q 361 -190 257 -190 m 394 806 q 266 839 322 806 q 178 924 210 872 q 142 1033 147 976 l 226 1050 q 287 957 242 993 q 394 921 332 921 q 501 957 457 921 q 561 1050 546 993 l 646 1033 q 609 924 640 976 q 522 839 578 872 q 394 806 467 806 z "},"ģ":{"ha":799,"x_min":22,"x_max":771,"o":"m 572 124 q 716 79 661 124 q 771 -46 771 35 q 713 -182 771 -124 q 556 -272 654 -240 q 342 -303 457 -303 q 112 -251 201 -303 q 22 -108 22 -199 q 44 -33 22 -68 q 99 29 65 3 q 56 78 71 50 q 42 139 42 107 q 71 231 42 190 q 147 300 100 272 q 100 433 100 358 q 144 563 100 508 q 256 644 188 617 q 394 672 324 672 q 546 642 476 672 q 627 751 571 714 q 761 792 683 789 l 761 678 q 670 660 707 675 q 606 607 633 644 q 692 438 692 542 q 649 308 692 363 q 537 226 606 254 q 394 199 468 199 q 203 251 288 199 q 161 171 161 214 q 190 115 161 135 q 268 94 218 94 q 410 108 315 94 q 490 119 447 114 q 572 124 533 124 m 396 575 q 281 535 328 575 q 233 433 233 496 q 280 333 233 371 q 396 296 326 296 q 513 335 468 296 q 558 438 558 374 q 512 538 558 500 q 396 575 465 575 m 361 -190 q 501 -174 435 -190 q 606 -126 567 -157 q 646 -54 646 -94 q 543 17 646 17 q 482 13 515 17 q 417 3 449 8 q 333 -10 378 -4 q 244 -15 288 -15 q 168 -6 207 -15 q 140 -81 140 -37 q 199 -161 140 -132 q 361 -190 257 -190 m 286 947 q 326 1067 286 1004 q 431 1183 365 1131 l 464 1147 q 386 1054 414 1101 q 356 968 358 1007 q 410 978 375 978 q 469 959 444 978 q 493 908 493 940 q 465 852 493 875 q 396 829 436 829 q 317 861 347 829 q 286 947 286 893 z "},"ġ":{"ha":799,"x_min":22,"x_max":771,"o":"m 572 124 q 716 79 661 124 q 771 -46 771 35 q 713 -182 771 -124 q 556 -272 654 -240 q 342 -303 457 -303 q 112 -251 201 -303 q 22 -108 22 -199 q 44 -33 22 -68 q 99 29 65 3 q 56 78 71 50 q 42 139 42 107 q 71 231 42 190 q 147 300 100 272 q 100 433 100 358 q 144 563 100 508 q 256 644 188 617 q 394 672 324 672 q 546 642 476 672 q 627 751 571 714 q 761 792 683 789 l 761 678 q 670 660 707 675 q 606 607 633 644 q 692 438 692 542 q 649 308 692 363 q 537 226 606 254 q 394 199 468 199 q 203 251 288 199 q 161 171 161 214 q 190 115 161 135 q 268 94 218 94 q 410 108 315 94 q 490 119 447 114 q 572 124 533 124 m 396 575 q 281 535 328 575 q 233 433 233 496 q 280 333 233 371 q 396 296 326 296 q 513 335 468 296 q 558 438 558 374 q 512 538 558 500 q 396 575 465 575 m 361 -190 q 501 -174 435 -190 q 606 -126 567 -157 q 646 -54 646 -94 q 543 17 646 17 q 482 13 515 17 q 417 3 449 8 q 333 -10 378 -4 q 244 -15 288 -15 q 168 -6 207 -15 q 140 -81 140 -37 q 199 -161 140 -132 q 361 -190 257 -190 m 396 839 q 319 863 350 839 q 289 921 289 886 q 319 983 289 958 q 396 1007 350 1007 q 474 983 443 1007 q 504 921 504 958 q 474 862 504 885 q 396 839 443 839 z "},"h":{"ha":997,"x_min":32,"x_max":979,"o":"m 979 110 l 979 0 l 593 0 l 593 110 l 714 110 l 714 381 q 676 506 714 461 q 565 550 638 550 q 315 397 453 550 l 315 110 l 435 110 l 435 0 l 32 0 l 32 110 l 179 110 l 179 843 l 32 843 l 32 953 l 315 953 l 315 504 q 463 629 392 588 q 619 671 535 671 q 790 599 732 671 q 849 385 849 528 l 849 110 l 979 110 z "},"ħ":{"ha":1000,"x_min":32,"x_max":979,"o":"m 979 113 l 979 0 l 594 0 l 594 113 l 715 113 l 715 381 q 677 506 715 461 q 568 550 639 550 q 317 397 454 550 l 317 113 l 438 113 l 438 0 l 33 0 l 33 113 l 181 113 l 181 746 l 32 746 l 32 836 l 181 836 l 181 953 l 317 953 l 317 836 l 567 836 l 567 746 l 317 746 l 317 504 q 465 629 393 588 q 621 671 538 671 q 792 599 733 671 q 851 385 851 528 l 851 113 l 979 113 z "},"i":{"ha":493,"x_min":40,"x_max":472,"o":"m 240 803 q 165 826 196 803 q 135 886 135 850 q 165 948 135 924 q 240 972 196 972 q 318 948 288 972 q 349 886 349 924 q 318 826 349 850 q 240 803 288 803 m 472 110 l 472 0 l 40 0 l 40 110 l 188 110 l 188 544 l 40 544 l 40 654 l 324 654 l 324 110 l 472 110 z "},"ı":{"ha":493,"x_min":40,"x_max":472,"o":"m 472 110 l 472 0 l 40 0 l 40 110 l 188 110 l 188 544 l 40 544 l 40 654 l 324 654 l 324 110 l 472 110 z "},"í":{"ha":493,"x_min":40,"x_max":472,"o":"m 472 110 l 472 0 l 40 0 l 40 110 l 188 110 l 188 544 l 40 544 l 40 654 l 324 654 l 324 110 l 472 110 m 136 749 l 444 954 l 371 1054 l 96 801 l 136 749 z "},"î":{"ha":493,"x_min":-12,"x_max":483,"o":"m 472 110 l 472 0 l 40 0 l 40 110 l 188 110 l 188 544 l 40 544 l 40 654 l 324 654 l 324 110 l 472 110 m -12 788 l 199 1032 l 271 1032 l 483 788 l 440 747 l 233 919 l 32 747 l -12 788 z "},"ï":{"ha":493,"x_min":-15,"x_max":481,"o":"m 472 110 l 472 0 l 40 0 l 40 110 l 188 110 l 188 544 l 40 544 l 40 654 l 324 654 l 324 110 l 472 110 m 79 804 q 13 826 40 804 q -15 881 -15 847 q 13 937 -15 914 q 79 960 40 960 q 148 938 121 960 q 175 881 175 915 q 148 826 175 847 q 79 804 121 804 m 385 804 q 318 826 346 804 q 290 881 290 847 q 318 937 290 914 q 385 960 346 960 q 453 938 425 960 q 481 881 481 915 q 453 826 481 847 q 385 804 425 804 z "},"ì":{"ha":493,"x_min":24,"x_max":472,"o":"m 472 110 l 472 0 l 40 0 l 40 110 l 188 110 l 188 544 l 40 544 l 40 654 l 324 654 l 324 110 l 472 110 m 97 1054 l 24 954 l 333 749 l 372 801 l 97 1054 z "},"ī":{"ha":493,"x_min":-33,"x_max":493,"o":"m 472 110 l 472 0 l 40 0 l 40 110 l 188 110 l 188 544 l 40 544 l 40 654 l 324 654 l 324 110 l 472 110 m 493 799 l -33 800 l -33 900 l 493 897 l 493 799 z "},"į":{"ha":493,"x_min":40,"x_max":579,"o":"m 236 804 q 160 828 190 804 q 129 886 129 851 q 160 948 129 924 q 236 972 190 972 q 314 948 283 972 q 344 886 344 924 q 314 827 344 850 q 236 804 283 804 m 579 -267 q 513 -296 544 -286 q 438 -306 481 -306 q 323 -268 369 -306 q 276 -168 276 -231 q 375 0 276 -71 l 40 0 l 40 110 l 188 110 l 188 544 l 40 544 l 40 654 l 324 654 l 324 110 l 472 110 l 472 1 l 474 0 q 395 -69 425 -35 q 365 -146 365 -103 q 389 -200 365 -181 q 449 -219 413 -219 q 551 -189 501 -219 l 579 -267 z "},"j":{"ha":475,"x_min":-101,"x_max":354,"o":"m 246 972 q 324 948 293 972 q 354 886 354 924 q 324 826 354 850 q 246 803 293 803 q 171 826 201 803 q 140 886 140 850 q 171 948 140 924 q 246 972 201 972 m 329 -54 q 258 -257 329 -183 q 72 -331 186 -331 q -10 -322 25 -331 q -69 -304 -44 -314 q -101 -292 -93 -294 l -68 -178 q 1 -201 -31 -193 q 68 -210 32 -210 q 159 -169 125 -210 q 193 -57 193 -129 l 193 544 l 46 544 l 46 654 l 329 654 l 329 -54 z "},"ȷ":{"ha":475,"x_min":-101,"x_max":329,"o":"m 329 -54 q 258 -257 329 -183 q 72 -331 186 -331 q -10 -322 25 -331 q -69 -304 -44 -314 q -101 -292 -93 -294 l -68 -178 q 1 -201 -31 -193 q 68 -210 32 -210 q 159 -169 125 -210 q 193 -57 193 -129 l 193 544 l 46 544 l 46 654 l 329 654 l 329 -54 z "},"k":{"ha":947,"x_min":32,"x_max":954,"o":"m 954 69 q 876 4 919 28 q 774 -19 833 -19 q 618 49 683 -19 q 529 240 553 117 q 419 256 471 242 q 311 297 368 271 l 311 110 l 449 110 l 449 0 l 32 0 l 32 110 l 178 110 l 178 843 l 32 843 l 32 953 l 311 953 l 311 536 q 599 667 450 667 q 766 614 699 667 q 833 464 833 561 q 781 331 833 386 q 646 253 728 275 q 700 138 665 175 q 779 101 735 101 q 883 150 840 101 l 954 69 m 311 386 q 521 340 418 340 q 643 373 593 343 q 693 457 693 403 q 659 529 693 504 q 565 554 625 554 q 444 525 510 554 q 311 440 378 496 l 311 386 z "},"ķ":{"ha":947,"x_min":32,"x_max":954,"o":"m 954 69 q 876 4 919 28 q 774 -19 833 -19 q 618 49 683 -19 q 529 240 553 117 q 419 256 471 242 q 311 297 368 271 l 311 110 l 449 110 l 449 0 l 32 0 l 32 110 l 178 110 l 178 843 l 32 843 l 32 953 l 311 953 l 311 536 q 599 667 450 667 q 766 614 699 667 q 833 464 833 561 q 781 331 833 386 q 646 253 728 275 q 700 138 665 175 q 779 101 735 101 q 883 150 840 101 l 954 69 m 311 386 q 521 340 418 340 q 643 373 593 343 q 693 457 693 403 q 659 529 693 504 q 565 554 625 554 q 444 525 510 554 q 311 440 378 496 l 311 386 m 639 -257 q 599 -378 639 -315 q 496 -494 560 -442 l 463 -460 q 540 -366 513 -412 q 569 -279 567 -319 q 515 -289 549 -289 q 457 -269 481 -289 q 433 -218 433 -250 q 462 -162 433 -185 q 529 -140 490 -140 q 608 -172 578 -140 q 639 -257 639 -203 z "},"l":{"ha":485,"x_min":32,"x_max":465,"o":"m 465 110 l 465 0 l 32 0 l 32 110 l 178 110 l 178 843 l 32 843 l 32 953 l 314 953 l 314 110 l 465 110 z "},"ĺ":{"ha":485,"x_min":32,"x_max":465,"o":"m 465 110 l 465 0 l 32 0 l 32 110 l 178 110 l 178 843 l 32 843 l 32 953 l 314 953 l 314 110 l 465 110 m 150 1047 l 458 1253 l 385 1353 l 110 1100 l 150 1047 z "},"ľ":{"ha":485,"x_min":32,"x_max":549,"o":"m 465 110 l 465 0 l 32 0 l 32 110 l 178 110 l 178 843 l 32 843 l 32 953 l 314 953 l 314 110 l 465 110 m 549 953 q 449 700 543 822 l 390 717 q 436 967 443 842 l 549 953 z "},"ļ":{"ha":485,"x_min":32,"x_max":465,"o":"m 465 110 l 465 0 l 32 0 l 32 110 l 178 110 l 178 843 l 32 843 l 32 953 l 314 953 l 314 110 l 465 110 m 357 -257 q 317 -378 357 -315 q 214 -494 278 -442 l 181 -460 q 258 -366 231 -412 q 288 -279 285 -319 q 233 -289 267 -289 q 175 -269 199 -289 q 151 -218 151 -250 q 180 -162 151 -185 q 247 -140 208 -140 q 326 -172 296 -140 q 357 -257 357 -203 z "},"ŀ":{"ha":483,"x_min":32,"x_max":583,"o":"m 314 110 l 465 110 l 465 0 l 32 0 l 32 110 l 178 110 l 178 843 l 32 843 l 32 953 l 314 953 l 314 110 m 488 536 q 556 514 529 536 q 583 458 583 492 q 557 405 583 426 q 488 383 531 383 q 421 405 449 383 q 393 458 393 426 q 421 514 393 492 q 488 536 449 536 z "},"ł":{"ha":483,"x_min":32,"x_max":465,"o":"m 465 110 l 465 0 l 32 0 l 32 110 l 178 110 l 178 393 l 33 333 l 33 421 l 178 481 l 178 843 l 32 843 l 32 953 l 314 953 l 314 538 l 460 597 l 460 508 l 314 449 l 314 110 l 465 110 z "},"m":{"ha":1471,"x_min":40,"x_max":1451,"o":"m 1451 110 l 1451 0 l 1068 0 l 1068 110 l 1186 110 l 1186 389 q 1154 503 1186 461 q 1058 544 1122 544 q 942 507 1001 544 q 825 400 882 469 l 825 393 l 825 110 l 944 110 l 944 0 l 569 0 l 569 110 l 689 110 l 689 389 q 656 503 689 461 q 558 544 622 544 q 442 506 501 544 q 324 397 382 468 l 324 110 l 444 110 l 444 0 l 40 0 l 40 110 l 188 110 l 188 544 l 40 544 l 40 654 l 324 654 l 324 511 q 457 629 385 588 q 607 671 529 671 q 740 627 686 671 q 814 499 793 583 q 951 626 876 581 q 1106 671 1025 671 q 1265 599 1207 671 q 1322 393 1322 528 l 1322 110 l 1451 110 z "},"n":{"ha":1011,"x_min":40,"x_max":992,"o":"m 992 110 l 992 0 l 606 0 l 606 110 l 726 110 l 726 381 q 688 501 726 457 q 579 544 650 544 q 324 392 458 544 l 324 110 l 444 110 l 444 0 l 40 0 l 40 110 l 188 110 l 188 544 l 40 544 l 40 654 l 324 654 l 324 500 q 473 628 401 586 q 626 671 544 671 q 800 599 739 671 q 861 385 861 526 l 861 110 l 992 110 z "},"ń":{"ha":1011,"x_min":40,"x_max":992,"o":"m 992 110 l 992 0 l 606 0 l 606 110 l 726 110 l 726 381 q 688 501 726 457 q 579 544 650 544 q 324 392 458 544 l 324 110 l 444 110 l 444 0 l 40 0 l 40 110 l 188 110 l 188 544 l 40 544 l 40 654 l 324 654 l 324 500 q 473 628 401 586 q 626 671 544 671 q 800 599 739 671 q 861 385 861 526 l 861 110 l 992 110 m 433 767 l 742 972 l 668 1072 l 393 819 l 433 767 z "},"ň":{"ha":1011,"x_min":40,"x_max":992,"o":"m 992 110 l 992 0 l 606 0 l 606 110 l 726 110 l 726 381 q 688 501 726 457 q 579 544 650 544 q 324 392 458 544 l 324 110 l 444 110 l 444 0 l 40 0 l 40 110 l 188 110 l 188 544 l 40 544 l 40 654 l 324 654 l 324 500 q 473 628 401 586 q 626 671 544 671 q 800 599 739 671 q 861 385 861 526 l 861 110 l 992 110 m 781 1019 l 568 775 l 496 775 l 285 1019 l 329 1061 l 532 889 l 738 1061 l 781 1019 z "},"ņ":{"ha":1011,"x_min":40,"x_max":992,"o":"m 992 110 l 992 0 l 606 0 l 606 110 l 726 110 l 726 381 q 688 501 726 457 q 579 544 650 544 q 324 392 458 544 l 324 110 l 444 110 l 444 0 l 40 0 l 40 110 l 188 110 l 188 544 l 40 544 l 40 654 l 324 654 l 324 500 q 473 628 401 586 q 626 671 544 671 q 800 599 739 671 q 861 385 861 526 l 861 110 l 992 110 m 644 -257 q 605 -378 644 -315 q 501 -494 565 -442 l 468 -460 q 545 -366 518 -412 q 575 -279 572 -319 q 521 -289 554 -289 q 463 -269 486 -289 q 439 -218 439 -250 q 467 -162 439 -185 q 535 -140 496 -140 q 614 -172 583 -140 q 644 -257 644 -203 z "},"ŋ":{"ha":983,"x_min":40,"x_max":861,"o":"m 626 671 q 800 599 739 671 q 861 385 861 526 l 861 -54 q 790 -257 861 -183 q 604 -331 718 -331 q 525 -322 558 -331 q 466 -305 492 -314 q 429 -292 440 -296 l 464 -178 q 534 -201 503 -193 q 600 -210 565 -210 q 692 -169 657 -210 q 726 -57 726 -129 l 726 381 q 688 501 726 457 q 579 544 650 544 q 324 392 458 544 l 324 110 l 444 110 l 444 0 l 40 0 l 40 110 l 188 110 l 188 544 l 40 544 l 40 654 l 324 654 l 324 500 q 473 628 401 586 q 626 671 544 671 z "},"ñ":{"ha":1011,"x_min":40,"x_max":992,"o":"m 992 110 l 992 0 l 606 0 l 606 110 l 726 110 l 726 381 q 688 501 726 457 q 579 544 650 544 q 324 392 458 544 l 324 110 l 444 110 l 444 0 l 40 0 l 40 110 l 188 110 l 188 544 l 40 544 l 40 654 l 324 654 l 324 500 q 473 628 401 586 q 626 671 544 671 q 800 599 739 671 q 861 385 861 526 l 861 110 l 992 110 m 651 775 q 571 799 604 775 q 499 868 538 822 q 444 926 464 910 q 397 943 424 943 q 318 796 329 943 l 238 804 q 281 963 240 901 q 397 1024 322 1024 q 481 1001 447 1024 q 554 931 515 978 q 607 874 586 890 q 651 857 628 857 q 732 1001 724 857 l 814 994 q 768 837 811 899 q 651 775 725 775 z "},"o":{"ha":835,"x_min":57,"x_max":778,"o":"m 418 -19 q 239 24 322 -19 q 106 146 156 67 q 57 326 57 225 q 106 508 57 429 q 239 629 156 586 q 418 672 322 672 q 595 629 513 672 q 728 507 678 586 q 778 326 778 428 q 729 146 778 225 q 598 24 681 67 q 418 -19 515 -19 m 418 90 q 531 119 481 90 q 609 202 581 149 q 638 326 638 256 q 609 451 638 397 q 531 533 581 504 q 418 563 481 563 q 260 498 322 563 q 199 326 199 433 q 260 155 199 219 q 418 90 322 90 z "},"ó":{"ha":835,"x_min":57,"x_max":778,"o":"m 418 -19 q 239 24 322 -19 q 106 146 156 67 q 57 326 57 225 q 106 508 57 429 q 239 629 156 586 q 418 672 322 672 q 595 629 513 672 q 728 507 678 586 q 778 326 778 428 q 729 146 778 225 q 598 24 681 67 q 418 -19 515 -19 m 418 90 q 531 119 481 90 q 609 202 581 149 q 638 326 638 256 q 609 451 638 397 q 531 533 581 504 q 418 563 481 563 q 260 498 322 563 q 199 326 199 433 q 260 155 199 219 q 418 90 322 90 m 319 775 l 628 981 l 554 1081 l 279 828 l 319 775 z "},"ô":{"ha":835,"x_min":57,"x_max":778,"o":"m 418 -19 q 239 24 322 -19 q 106 146 156 67 q 57 326 57 225 q 106 508 57 429 q 239 629 156 586 q 418 672 322 672 q 595 629 513 672 q 728 507 678 586 q 778 326 778 428 q 729 146 778 225 q 598 24 681 67 q 418 -19 515 -19 m 418 90 q 531 119 481 90 q 609 202 581 149 q 638 326 638 256 q 609 451 638 397 q 531 533 581 504 q 418 563 481 563 q 260 498 322 563 q 199 326 199 433 q 260 155 199 219 q 418 90 322 90 m 171 814 l 382 1058 l 454 1058 l 667 814 l 624 774 l 417 946 l 215 774 l 171 814 z "},"ö":{"ha":835,"x_min":57,"x_max":778,"o":"m 418 -19 q 239 24 322 -19 q 106 146 156 67 q 57 326 57 225 q 106 508 57 429 q 239 629 156 586 q 418 672 322 672 q 595 629 513 672 q 728 507 678 586 q 778 326 778 428 q 729 146 778 225 q 598 24 681 67 q 418 -19 515 -19 m 418 90 q 531 119 481 90 q 609 202 581 149 q 638 326 638 256 q 609 451 638 397 q 531 533 581 504 q 418 563 481 563 q 260 498 322 563 q 199 326 199 433 q 260 155 199 219 q 418 90 322 90 m 263 831 q 196 852 224 831 q 168 907 168 874 q 196 963 168 940 q 263 986 224 986 q 331 964 304 986 q 358 907 358 942 q 331 852 358 874 q 263 831 304 831 m 568 831 q 501 852 529 831 q 474 907 474 874 q 501 963 474 940 q 568 986 529 986 q 636 964 608 986 q 664 907 664 942 q 636 852 664 874 q 568 831 608 831 z "},"ò":{"ha":835,"x_min":57,"x_max":778,"o":"m 418 -19 q 239 24 322 -19 q 106 146 156 67 q 57 326 57 225 q 106 508 57 429 q 239 629 156 586 q 418 672 322 672 q 595 629 513 672 q 728 507 678 586 q 778 326 778 428 q 729 146 778 225 q 598 24 681 67 q 418 -19 515 -19 m 418 90 q 531 119 481 90 q 609 202 581 149 q 638 326 638 256 q 609 451 638 397 q 531 533 581 504 q 418 563 481 563 q 260 498 322 563 q 199 326 199 433 q 260 155 199 219 q 418 90 322 90 m 281 1081 l 207 981 l 517 775 l 556 828 l 281 1081 z "},"ő":{"ha":835,"x_min":57,"x_max":778,"o":"m 418 -19 q 239 24 322 -19 q 106 146 156 67 q 57 326 57 225 q 106 508 57 429 q 239 629 156 586 q 418 672 322 672 q 595 629 513 672 q 728 507 678 586 q 778 326 778 428 q 729 146 778 225 q 598 24 681 67 q 418 -19 515 -19 m 418 90 q 531 119 481 90 q 609 202 581 149 q 638 326 638 256 q 609 451 638 397 q 531 533 581 504 q 418 563 481 563 q 260 498 322 563 q 199 326 199 433 q 260 155 199 219 q 418 90 322 90 m 199 821 l 357 1092 l 456 1019 l 263 774 l 199 821 m 463 821 l 621 1092 l 719 1019 l 526 774 l 463 821 z "},"ō":{"ha":835,"x_min":57,"x_max":778,"o":"m 418 -19 q 239 24 322 -19 q 106 146 156 67 q 57 326 57 225 q 106 508 57 429 q 239 629 156 586 q 418 672 322 672 q 595 629 513 672 q 728 507 678 586 q 778 326 778 428 q 729 146 778 225 q 598 24 681 67 q 418 -19 515 -19 m 418 90 q 531 119 481 90 q 609 202 581 149 q 638 326 638 256 q 609 451 638 397 q 531 533 581 504 q 418 563 481 563 q 260 498 322 563 q 199 326 199 433 q 260 155 199 219 q 418 90 322 90 m 676 825 l 150 826 l 150 926 l 676 924 l 676 825 z "},"ø":{"ha":836,"x_min":57,"x_max":778,"o":"m 597 628 q 728 506 679 583 q 778 326 778 428 q 729 146 778 225 q 598 24 681 67 q 418 -19 515 -19 q 333 -11 375 -19 l 292 -108 l 175 -108 l 232 28 q 104 149 151 71 q 57 326 57 226 q 106 508 57 429 q 239 629 156 586 q 418 672 322 672 q 494 665 453 672 l 536 761 l 654 761 l 597 628 m 418 563 q 260 498 322 563 q 199 326 199 433 q 222 213 199 264 q 288 132 246 163 l 460 558 q 418 563 439 563 m 418 90 q 531 119 481 90 q 609 202 581 149 q 638 326 638 256 q 612 444 638 393 q 542 525 586 494 l 369 96 q 418 90 390 90 z "},"õ":{"ha":835,"x_min":57,"x_max":778,"o":"m 418 -19 q 239 24 322 -19 q 106 146 156 67 q 57 326 57 225 q 106 508 57 429 q 239 629 156 586 q 418 672 322 672 q 595 629 513 672 q 728 507 678 586 q 778 326 778 428 q 729 146 778 225 q 598 24 681 67 q 418 -19 515 -19 m 418 90 q 531 119 481 90 q 609 202 581 149 q 638 326 638 256 q 609 451 638 397 q 531 533 581 504 q 418 563 481 563 q 260 498 322 563 q 199 326 199 433 q 260 155 199 219 q 418 90 322 90 m 538 783 q 457 807 490 783 q 385 876 424 831 q 330 935 350 918 q 283 951 310 951 q 204 804 215 951 l 124 813 q 167 971 126 910 q 283 1032 208 1032 q 367 1009 333 1032 q 440 939 401 986 q 493 882 472 899 q 538 865 514 865 q 618 1010 610 865 l 700 1003 q 654 845 697 907 q 538 783 611 783 z "},"œ":{"ha":1347,"x_min":57,"x_max":1293,"o":"m 1293 97 q 1157 11 1229 42 q 994 -19 1085 -19 q 828 20 906 -19 q 703 129 750 60 q 581 20 657 60 q 414 -19 504 -19 q 238 24 319 -19 q 106 146 156 67 q 57 326 57 225 q 106 508 57 429 q 238 629 156 586 q 414 672 319 672 q 582 631 504 672 q 707 515 660 589 q 837 630 757 588 q 1003 672 917 672 q 1145 646 1082 672 q 1244 572 1208 619 q 1279 464 1279 525 q 1201 322 1279 372 q 1013 271 1122 271 q 884 285 944 271 q 760 326 824 300 q 758 292 760 303 q 799 187 764 232 q 887 117 833 142 q 999 93 940 93 q 1128 115 1074 93 q 1235 182 1182 138 l 1293 97 m 1003 564 q 865 521 929 564 q 772 404 800 478 q 983 367 879 367 q 1098 392 1053 367 q 1143 464 1143 418 q 1104 536 1143 508 q 1003 564 1065 564 m 414 89 q 522 118 474 89 q 599 201 571 147 q 628 326 628 256 q 599 451 628 397 q 522 533 571 504 q 414 563 474 563 q 304 533 353 563 q 228 451 256 504 q 200 326 200 397 q 228 201 200 256 q 305 118 256 147 q 414 89 354 89 z "},"p":{"ha":928,"x_min":25,"x_max":872,"o":"m 568 672 q 719 629 650 672 q 831 509 789 586 q 872 333 872 432 q 827 151 872 232 q 704 26 782 71 q 532 -19 626 -19 q 304 75 408 -19 l 304 -193 l 456 -193 l 456 -303 l 25 -303 l 25 -193 l 171 -193 l 171 544 l 25 544 l 25 654 l 304 654 l 304 528 q 428 633 358 594 q 568 672 497 672 m 503 97 q 620 127 568 97 q 701 211 672 157 q 731 335 731 265 q 674 495 731 433 q 531 557 618 557 q 413 521 471 557 q 304 421 354 485 l 304 178 q 503 97 404 97 z "},"þ":{"ha":904,"x_min":4,"x_max":847,"o":"m 544 672 q 696 629 626 672 q 806 509 765 586 q 847 333 847 432 q 802 151 847 232 q 680 26 757 71 q 508 -19 603 -19 q 285 71 385 -19 l 285 -193 l 447 -193 l 447 -303 l 4 -303 l 4 -193 l 151 -193 l 151 844 l 4 844 l 4 953 l 285 953 l 285 533 q 406 635 339 597 q 544 672 474 672 m 479 93 q 595 124 543 93 q 677 210 647 156 q 707 335 707 265 q 651 494 707 433 q 507 556 594 556 q 392 522 449 556 q 285 425 335 488 l 285 172 q 479 93 381 93 z "},"q":{"ha":917,"x_min":57,"x_max":885,"o":"m 885 325 q 722 453 804 400 l 722 -193 l 868 -193 l 868 -303 l 425 -303 l 425 -193 l 589 -193 l 589 61 q 374 -19 493 -19 q 214 24 286 -19 q 99 144 142 68 q 57 315 57 221 q 105 502 57 421 q 236 628 153 583 q 422 672 319 672 q 633 626 524 672 l 671 675 l 722 675 l 722 582 q 885 461 810 532 l 885 325 m 589 525 q 444 557 510 557 q 318 527 374 557 q 231 442 263 497 q 199 317 199 388 q 257 159 199 221 q 410 97 315 97 q 589 165 507 97 l 589 525 z "},"r":{"ha":763,"x_min":40,"x_max":694,"o":"m 694 671 l 694 393 l 574 393 l 574 536 q 456 496 519 536 q 324 382 392 456 l 324 110 l 472 110 l 472 0 l 40 0 l 40 110 l 188 110 l 188 544 l 40 544 l 40 654 l 324 654 l 324 490 q 477 623 397 575 q 636 671 557 671 l 694 671 z "},"ŕ":{"ha":763,"x_min":40,"x_max":694,"o":"m 694 671 l 694 393 l 574 393 l 574 536 q 456 496 519 536 q 324 382 392 456 l 324 110 l 472 110 l 472 0 l 40 0 l 40 110 l 188 110 l 188 544 l 40 544 l 40 654 l 324 654 l 324 490 q 477 623 397 575 q 636 671 557 671 l 694 671 m 313 749 l 621 954 l 547 1054 l 272 801 l 313 749 z "},"ř":{"ha":763,"x_min":40,"x_max":694,"o":"m 694 671 l 694 393 l 574 393 l 574 536 q 456 496 519 536 q 324 382 392 456 l 324 110 l 472 110 l 472 0 l 40 0 l 40 110 l 188 110 l 188 544 l 40 544 l 40 654 l 324 654 l 324 490 q 477 623 397 575 q 636 671 557 671 l 694 671 m 660 1001 l 447 757 l 375 757 l 164 1001 l 208 1043 l 411 871 l 617 1043 l 660 1001 z "},"ŗ":{"ha":763,"x_min":40,"x_max":694,"o":"m 694 671 l 694 393 l 574 393 l 574 536 q 456 496 519 536 q 324 382 392 456 l 324 110 l 472 110 l 472 0 l 40 0 l 40 110 l 188 110 l 188 544 l 40 544 l 40 654 l 324 654 l 324 490 q 477 623 397 575 q 636 671 557 671 l 694 671 m 371 -257 q 331 -378 371 -315 q 228 -494 292 -442 l 194 -460 q 272 -366 244 -412 q 301 -279 299 -319 q 247 -289 281 -289 q 189 -269 213 -289 q 165 -218 165 -250 q 194 -162 165 -185 q 261 -140 222 -140 q 340 -172 310 -140 q 371 -257 371 -203 z "},"s":{"ha":760,"x_min":65,"x_max":664,"o":"m 399 386 q 595 299 526 351 q 664 160 664 247 q 596 30 664 79 q 428 -19 528 -19 q 291 5 358 -19 q 171 72 224 29 l 171 -1 l 65 -1 l 65 211 l 125 217 q 258 115 178 157 q 414 72 338 72 q 494 92 465 72 q 524 147 524 111 q 478 216 524 189 q 328 271 432 243 q 135 355 203 304 q 68 488 68 406 q 97 581 68 539 q 177 648 125 624 q 297 672 229 672 q 424 650 364 672 q 529 588 485 628 l 529 654 l 633 654 l 633 443 l 572 436 q 466 541 533 501 q 332 581 399 581 q 243 559 278 581 q 208 503 208 538 q 254 440 208 465 q 399 386 300 414 z "},"ś":{"ha":760,"x_min":65,"x_max":664,"o":"m 399 386 q 595 299 526 351 q 664 160 664 247 q 596 30 664 79 q 428 -19 528 -19 q 291 5 358 -19 q 171 72 224 29 l 171 -1 l 65 -1 l 65 211 l 125 217 q 258 115 178 157 q 414 72 338 72 q 494 92 465 72 q 524 147 524 111 q 478 216 524 189 q 328 271 432 243 q 135 355 203 304 q 68 488 68 406 q 97 581 68 539 q 177 648 125 624 q 297 672 229 672 q 424 650 364 672 q 529 588 485 628 l 529 654 l 633 654 l 633 443 l 572 436 q 466 541 533 501 q 332 581 399 581 q 243 559 278 581 q 208 503 208 538 q 254 440 208 465 q 399 386 300 414 m 265 767 l 574 972 l 500 1072 l 225 819 l 265 767 z "},"š":{"ha":760,"x_min":65,"x_max":664,"o":"m 399 386 q 595 299 526 351 q 664 160 664 247 q 596 30 664 79 q 428 -19 528 -19 q 291 5 358 -19 q 171 72 224 29 l 171 -1 l 65 -1 l 65 211 l 125 217 q 258 115 178 157 q 414 72 338 72 q 494 92 465 72 q 524 147 524 111 q 478 216 524 189 q 328 271 432 243 q 135 355 203 304 q 68 488 68 406 q 97 581 68 539 q 177 648 125 624 q 297 672 229 672 q 424 650 364 672 q 529 588 485 628 l 529 654 l 633 654 l 633 443 l 572 436 q 466 541 533 501 q 332 581 399 581 q 243 559 278 581 q 208 503 208 538 q 254 440 208 465 q 399 386 300 414 m 613 1019 l 400 775 l 328 775 l 117 1019 l 161 1061 l 364 889 l 569 1061 l 613 1019 z "},"ş":{"ha":760,"x_min":65,"x_max":664,"o":"m 428 -19 q 401 -18 410 -19 l 368 -101 l 400 -100 q 503 -134 464 -100 q 543 -224 543 -168 q 489 -324 543 -286 q 360 -362 435 -362 q 161 -294 260 -362 l 201 -226 q 360 -285 281 -285 q 426 -268 401 -285 q 451 -224 451 -251 q 428 -177 451 -193 q 363 -161 404 -161 q 282 -167 329 -161 l 274 -154 l 333 -8 q 171 72 240 15 l 171 -1 l 65 -1 l 65 211 l 125 217 q 258 115 178 157 q 414 72 338 72 q 494 92 465 72 q 524 147 524 111 q 478 216 524 189 q 328 271 432 243 q 135 355 203 304 q 68 488 68 406 q 97 581 68 539 q 177 648 125 624 q 297 672 229 672 q 424 650 364 672 q 529 588 485 628 l 529 654 l 633 654 l 633 443 l 572 436 q 466 541 533 501 q 332 581 399 581 q 243 559 278 581 q 208 503 208 538 q 254 440 208 465 q 399 386 300 414 q 595 299 526 351 q 664 160 664 247 q 596 30 664 79 q 428 -19 528 -19 z "},"ș":{"ha":760,"x_min":65,"x_max":664,"o":"m 399 386 q 595 299 526 351 q 664 160 664 247 q 596 30 664 79 q 428 -19 528 -19 q 291 5 358 -19 q 171 72 224 29 l 171 -1 l 65 -1 l 65 211 l 125 217 q 258 115 178 157 q 414 72 338 72 q 494 92 465 72 q 524 147 524 111 q 478 216 524 189 q 328 271 432 243 q 135 355 203 304 q 68 488 68 406 q 97 581 68 539 q 177 648 125 624 q 297 672 229 672 q 424 650 364 672 q 529 588 485 628 l 529 654 l 633 654 l 633 443 l 572 436 q 466 541 533 501 q 332 581 399 581 q 243 559 278 581 q 208 503 208 538 q 254 440 208 465 q 399 386 300 414 m 511 -274 q 472 -395 511 -332 q 368 -511 432 -458 l 335 -476 q 412 -383 385 -429 q 442 -296 439 -336 q 388 -306 421 -306 q 329 -286 353 -306 q 306 -235 306 -267 q 334 -179 306 -201 q 401 -157 363 -157 q 481 -188 450 -157 q 511 -274 511 -219 z "},"ß":{"ha":1036,"x_min":40,"x_max":1025,"o":"m 778 369 q 960 292 896 338 q 1025 168 1025 247 q 959 31 1025 81 q 788 -19 893 -19 q 660 7 724 -19 q 550 81 597 33 l 550 -1 l 444 -1 l 444 211 l 504 217 q 625 115 547 156 q 771 74 703 74 q 854 93 825 74 q 883 149 883 113 q 865 189 883 174 q 815 215 847 204 q 706 247 782 226 q 510 330 575 285 q 446 451 446 375 q 490 565 446 522 q 625 649 533 607 q 724 711 693 682 q 754 776 754 740 q 694 866 754 829 q 533 903 635 903 q 378 855 433 903 q 322 718 322 807 l 322 0 l 40 0 l 40 110 l 188 110 l 188 544 l 40 544 l 40 654 l 188 654 l 188 714 q 278 940 188 861 q 533 1018 368 1018 q 719 986 636 1018 q 849 899 803 954 q 896 779 896 844 q 851 665 896 710 q 718 576 806 619 q 638 535 660 547 q 601 506 615 522 q 588 468 588 490 q 620 420 588 436 q 747 378 653 404 l 778 369 z "},"ə":{"ha":776,"x_min":53,"x_max":719,"o":"m 357 674 q 533 635 450 674 q 668 521 617 596 q 719 343 719 446 q 667 151 719 233 q 529 26 614 69 q 351 -18 444 -18 q 205 8 269 -18 q 103 82 140 35 q 67 190 67 129 q 145 333 67 282 q 333 383 224 383 q 465 369 404 383 q 589 326 526 354 l 589 339 q 558 454 589 404 q 474 531 526 504 q 358 557 421 557 q 111 468 217 557 l 53 557 q 357 674 186 674 m 342 90 q 481 133 417 90 q 574 250 546 176 q 363 288 468 288 q 248 262 293 288 q 203 190 203 236 q 242 118 203 146 q 342 90 281 90 z "},"t":{"ha":617,"x_min":22,"x_max":615,"o":"m 615 46 q 515 -1 564 15 q 401 -18 465 -18 q 231 49 294 -18 q 168 242 168 117 l 168 544 l 22 544 l 22 654 l 168 654 l 168 836 l 304 836 l 304 654 l 521 654 l 521 544 l 304 544 l 304 240 q 336 136 304 169 q 422 103 368 103 q 496 115 461 103 q 568 149 531 126 l 615 46 z "},"ŧ":{"ha":617,"x_min":22,"x_max":615,"o":"m 615 46 q 514 -1 564 15 q 401 -18 464 -18 q 231 49 294 -18 q 168 242 168 117 l 168 367 l 22 367 l 22 457 l 168 457 l 168 563 l 22 563 l 22 654 l 168 654 l 168 836 l 303 836 l 303 654 l 521 654 l 521 563 l 303 563 l 303 457 l 472 457 l 472 367 l 303 367 l 303 240 q 335 136 303 169 q 422 103 368 103 q 495 115 461 103 q 567 149 529 126 l 615 46 z "},"ť":{"ha":617,"x_min":22,"x_max":615,"o":"m 615 46 q 515 -1 564 15 q 401 -18 465 -18 q 231 49 294 -18 q 168 242 168 117 l 168 544 l 22 544 l 22 654 l 168 654 l 168 836 l 304 836 l 304 654 l 521 654 l 521 544 l 304 544 l 304 240 q 336 136 304 169 q 422 103 368 103 q 496 115 461 103 q 568 149 531 126 l 615 46 m 529 1011 q 429 758 524 881 l 371 775 q 417 1025 424 900 l 529 1011 z "},"ţ":{"ha":617,"x_min":22,"x_max":615,"o":"m 389 -101 q 492 -135 453 -101 q 532 -225 532 -169 q 478 -326 532 -287 q 349 -364 424 -364 q 150 -296 249 -364 l 190 -228 q 349 -286 269 -286 q 415 -269 390 -286 q 440 -225 440 -253 q 417 -178 440 -194 q 351 -162 393 -162 q 271 -168 318 -162 l 263 -156 l 324 -7 q 209 78 250 14 q 168 242 168 142 l 168 544 l 22 544 l 22 654 l 168 654 l 168 836 l 304 836 l 304 654 l 521 654 l 521 544 l 304 544 l 304 240 q 336 136 304 169 q 422 103 368 103 q 496 115 461 103 q 568 149 531 126 l 615 46 q 515 -1 564 15 q 401 -18 465 -18 l 392 -18 l 357 -103 l 389 -101 z "},"ț":{"ha":617,"x_min":22,"x_max":615,"o":"m 615 46 q 515 -1 564 15 q 401 -18 465 -18 q 231 49 294 -18 q 168 242 168 117 l 168 544 l 22 544 l 22 654 l 168 654 l 168 836 l 304 836 l 304 654 l 521 654 l 521 544 l 304 544 l 304 240 q 336 136 304 169 q 422 103 368 103 q 496 115 461 103 q 568 149 531 126 l 615 46 m 500 -275 q 460 -397 500 -333 q 357 -512 421 -460 l 324 -478 q 401 -384 374 -431 q 431 -297 428 -337 q 376 -307 410 -307 q 318 -287 342 -307 q 294 -236 294 -268 q 323 -181 294 -203 q 390 -158 351 -158 q 469 -190 439 -158 q 500 -275 500 -221 z "},"u":{"ha":932,"x_min":14,"x_max":903,"o":"m 903 13 q 799 -14 856 -14 q 693 25 733 -14 q 647 136 653 64 q 511 21 578 60 q 371 -18 444 -18 q 203 54 263 -18 q 144 267 144 126 l 144 544 l 14 544 l 14 654 l 281 654 l 281 271 q 313 151 281 193 q 418 108 346 108 q 646 243 525 108 l 646 544 l 526 544 l 526 654 l 782 654 l 782 168 q 829 100 782 100 q 872 111 857 100 l 903 13 z "},"ú":{"ha":932,"x_min":14,"x_max":903,"o":"m 903 13 q 799 -14 856 -14 q 693 25 733 -14 q 647 136 653 64 q 511 21 578 60 q 371 -18 444 -18 q 203 54 263 -18 q 144 267 144 126 l 144 544 l 14 544 l 14 654 l 281 654 l 281 271 q 313 151 281 193 q 418 108 346 108 q 646 243 525 108 l 646 544 l 526 544 l 526 654 l 782 654 l 782 168 q 829 100 782 100 q 872 111 857 100 l 903 13 m 333 739 l 642 944 l 568 1044 l 293 792 l 333 739 z "},"û":{"ha":932,"x_min":14,"x_max":903,"o":"m 903 13 q 799 -14 856 -14 q 693 25 733 -14 q 647 136 653 64 q 511 21 578 60 q 371 -18 444 -18 q 203 54 263 -18 q 144 267 144 126 l 144 544 l 14 544 l 14 654 l 281 654 l 281 271 q 313 151 281 193 q 418 108 346 108 q 646 243 525 108 l 646 544 l 526 544 l 526 654 l 782 654 l 782 168 q 829 100 782 100 q 872 111 857 100 l 903 13 m 185 778 l 396 1022 l 468 1022 l 681 778 l 638 738 l 431 910 l 229 738 l 185 778 z "},"ü":{"ha":932,"x_min":14,"x_max":903,"o":"m 903 13 q 799 -14 856 -14 q 693 25 733 -14 q 647 136 653 64 q 511 21 578 60 q 371 -18 444 -18 q 203 54 263 -18 q 144 267 144 126 l 144 544 l 14 544 l 14 654 l 281 654 l 281 271 q 313 151 281 193 q 418 108 346 108 q 646 243 525 108 l 646 544 l 526 544 l 526 654 l 782 654 l 782 168 q 829 100 782 100 q 872 111 857 100 l 903 13 m 276 794 q 210 816 238 794 q 182 871 182 838 q 210 927 182 904 q 276 950 238 950 q 345 928 318 950 q 372 871 372 906 q 345 816 372 838 q 276 794 318 794 m 582 794 q 515 816 543 794 q 488 871 488 838 q 515 927 488 904 q 582 950 543 950 q 650 928 622 950 q 678 871 678 906 q 650 816 678 838 q 582 794 622 794 z "},"ù":{"ha":932,"x_min":14,"x_max":903,"o":"m 903 13 q 799 -14 856 -14 q 693 25 733 -14 q 647 136 653 64 q 511 21 578 60 q 371 -18 444 -18 q 203 54 263 -18 q 144 267 144 126 l 144 544 l 14 544 l 14 654 l 281 654 l 281 271 q 313 151 281 193 q 418 108 346 108 q 646 243 525 108 l 646 544 l 526 544 l 526 654 l 782 654 l 782 168 q 829 100 782 100 q 872 111 857 100 l 903 13 m 294 1044 l 221 944 l 531 739 l 569 792 l 294 1044 z "},"ű":{"ha":932,"x_min":14,"x_max":903,"o":"m 903 13 q 799 -14 856 -14 q 693 25 733 -14 q 647 136 653 64 q 511 21 578 60 q 371 -18 444 -18 q 203 54 263 -18 q 144 267 144 126 l 144 544 l 14 544 l 14 654 l 281 654 l 281 271 q 313 151 281 193 q 418 108 346 108 q 646 243 525 108 l 646 544 l 526 544 l 526 654 l 782 654 l 782 168 q 829 100 782 100 q 872 111 857 100 l 903 13 m 213 785 l 371 1056 l 469 983 l 276 738 l 213 785 m 476 785 l 635 1056 l 733 983 l 540 738 l 476 785 z "},"ū":{"ha":932,"x_min":14,"x_max":903,"o":"m 903 13 q 799 -14 856 -14 q 693 25 733 -14 q 647 136 653 64 q 511 21 578 60 q 371 -18 444 -18 q 203 54 263 -18 q 144 267 144 126 l 144 544 l 14 544 l 14 654 l 281 654 l 281 271 q 313 151 281 193 q 418 108 346 108 q 646 243 525 108 l 646 544 l 526 544 l 526 654 l 782 654 l 782 168 q 829 100 782 100 q 872 111 857 100 l 903 13 m 690 789 l 164 790 l 164 890 l 690 888 l 690 789 z "},"ų":{"ha":932,"x_min":14,"x_max":1007,"o":"m 1007 -254 q 940 -283 972 -274 q 865 -293 908 -293 q 751 -256 797 -293 q 704 -156 704 -218 q 772 -12 704 -75 q 685 33 718 -6 q 647 136 651 72 q 511 21 578 60 q 371 -18 444 -18 q 203 54 263 -18 q 144 267 144 126 l 144 544 l 14 544 l 14 654 l 281 654 l 281 271 q 313 151 281 193 q 418 108 346 108 q 646 243 525 108 l 646 544 l 526 544 l 526 654 l 782 654 l 782 168 q 829 100 782 100 q 872 111 857 100 l 903 13 l 897 10 q 822 -57 850 -24 q 793 -133 793 -90 q 817 -187 793 -168 q 876 -207 840 -207 q 979 -176 929 -207 l 1007 -254 z "},"ů":{"ha":932,"x_min":14,"x_max":903,"o":"m 903 13 q 799 -14 856 -14 q 693 25 733 -14 q 647 136 653 64 q 511 21 578 60 q 371 -18 444 -18 q 203 54 263 -18 q 144 267 144 126 l 144 544 l 14 544 l 14 654 l 281 654 l 281 271 q 313 151 281 193 q 418 108 346 108 q 646 243 525 108 l 646 544 l 526 544 l 526 654 l 782 654 l 782 168 q 829 100 782 100 q 872 111 857 100 l 903 13 m 432 735 q 334 761 379 735 q 261 832 289 788 q 233 931 233 876 q 260 1031 233 986 q 333 1099 288 1075 q 432 1124 379 1124 q 531 1098 486 1124 q 603 1028 576 1072 q 631 928 631 983 q 603 828 631 872 q 531 760 576 785 q 432 735 486 735 m 432 810 q 517 844 482 810 q 551 928 551 879 q 517 1013 551 979 q 432 1047 482 1047 q 349 1014 383 1047 q 314 931 314 981 q 349 845 314 881 q 432 810 383 810 z "},"v":{"ha":893,"x_min":15,"x_max":879,"o":"m 879 544 l 771 544 l 481 -18 l 411 -18 l 115 544 l 15 544 l 15 654 l 369 654 l 369 554 l 260 554 l 460 151 l 656 554 l 543 554 l 543 654 l 879 654 l 879 544 z "},"w":{"ha":1226,"x_min":19,"x_max":1208,"o":"m 1208 544 l 1110 544 l 894 -18 l 826 -18 l 614 438 l 403 -18 l 333 -18 l 121 544 l 19 544 l 19 654 l 375 654 l 375 554 l 254 554 l 388 172 l 590 636 l 665 636 l 865 178 l 994 554 l 874 554 l 874 654 l 1208 654 l 1208 544 z "},"ẃ":{"ha":1226,"x_min":19,"x_max":1208,"o":"m 1208 544 l 1110 544 l 894 -18 l 826 -18 l 614 438 l 403 -18 l 333 -18 l 121 544 l 19 544 l 19 654 l 375 654 l 375 554 l 254 554 l 388 172 l 590 636 l 665 636 l 865 178 l 994 554 l 874 554 l 874 654 l 1208 654 l 1208 544 m 519 749 l 828 954 l 754 1054 l 479 801 l 519 749 z "},"ŵ":{"ha":1226,"x_min":19,"x_max":1208,"o":"m 1208 544 l 1110 544 l 894 -18 l 826 -18 l 614 438 l 403 -18 l 333 -18 l 121 544 l 19 544 l 19 654 l 375 654 l 375 554 l 254 554 l 388 172 l 590 636 l 665 636 l 865 178 l 994 554 l 874 554 l 874 654 l 1208 654 l 1208 544 m 371 788 l 582 1032 l 654 1032 l 867 788 l 824 747 l 617 919 l 415 747 l 371 788 z "},"ẅ":{"ha":1226,"x_min":19,"x_max":1208,"o":"m 1208 544 l 1110 544 l 894 -18 l 826 -18 l 614 438 l 403 -18 l 333 -18 l 121 544 l 19 544 l 19 654 l 375 654 l 375 554 l 254 554 l 388 172 l 590 636 l 665 636 l 865 178 l 994 554 l 874 554 l 874 654 l 1208 654 l 1208 544 m 463 804 q 396 826 424 804 q 368 881 368 847 q 396 937 368 914 q 463 960 424 960 q 531 938 504 960 q 558 881 558 915 q 531 826 558 847 q 463 804 504 804 m 768 804 q 701 826 729 804 q 674 881 674 847 q 701 937 674 914 q 768 960 729 960 q 836 938 808 960 q 864 881 864 915 q 836 826 864 847 q 768 804 808 804 z "},"ẁ":{"ha":1226,"x_min":19,"x_max":1208,"o":"m 1208 544 l 1110 544 l 894 -18 l 826 -18 l 614 438 l 403 -18 l 333 -18 l 121 544 l 19 544 l 19 654 l 375 654 l 375 554 l 254 554 l 388 172 l 590 636 l 665 636 l 865 178 l 994 554 l 874 554 l 874 654 l 1208 654 l 1208 544 m 481 1054 l 407 954 l 717 749 l 756 801 l 481 1054 z "},"x":{"ha":890,"x_min":46,"x_max":844,"o":"m 525 336 l 757 108 l 844 108 l 844 -1 l 475 -1 l 475 99 l 590 99 l 431 263 l 263 99 l 388 99 l 388 -1 l 46 -1 l 46 108 l 136 108 l 368 319 l 138 544 l 46 544 l 46 654 l 418 654 l 418 554 l 301 554 l 460 393 l 625 554 l 506 554 l 506 654 l 844 654 l 844 544 l 753 544 l 525 336 z "},"y":{"ha":908,"x_min":22,"x_max":894,"o":"m 894 544 l 792 544 l 517 -72 q 385 -266 458 -201 q 215 -331 313 -331 q 117 -313 161 -331 q 22 -262 74 -296 l 78 -158 q 215 -210 149 -210 q 322 -172 275 -210 q 406 -50 369 -133 l 415 -28 l 135 544 l 26 544 l 26 654 l 393 654 l 393 554 l 281 554 l 478 115 l 671 554 l 564 554 l 564 654 l 894 654 l 894 544 z "},"ý":{"ha":908,"x_min":22,"x_max":894,"o":"m 894 544 l 792 544 l 517 -72 q 385 -266 458 -201 q 215 -331 313 -331 q 117 -313 161 -331 q 22 -262 74 -296 l 78 -158 q 215 -210 149 -210 q 322 -172 275 -210 q 406 -50 369 -133 l 415 -28 l 135 544 l 26 544 l 26 654 l 393 654 l 393 554 l 281 554 l 478 115 l 671 554 l 564 554 l 564 654 l 894 654 l 894 544 m 393 740 l 701 946 l 628 1046 l 353 793 l 393 740 z "},"ŷ":{"ha":908,"x_min":22,"x_max":894,"o":"m 894 544 l 792 544 l 517 -72 q 385 -266 458 -201 q 215 -331 313 -331 q 117 -313 161 -331 q 22 -262 74 -296 l 78 -158 q 215 -210 149 -210 q 322 -172 275 -210 q 406 -50 369 -133 l 415 -28 l 135 544 l 26 544 l 26 654 l 393 654 l 393 554 l 281 554 l 478 115 l 671 554 l 564 554 l 564 654 l 894 654 l 894 544 m 244 779 l 456 1024 l 528 1024 l 740 779 l 697 739 l 490 911 l 289 739 l 244 779 z "},"ÿ":{"ha":908,"x_min":22,"x_max":894,"o":"m 894 544 l 792 544 l 517 -72 q 385 -266 458 -201 q 215 -331 313 -331 q 117 -313 161 -331 q 22 -262 74 -296 l 78 -158 q 215 -210 149 -210 q 322 -172 275 -210 q 406 -50 369 -133 l 415 -28 l 135 544 l 26 544 l 26 654 l 393 654 l 393 554 l 281 554 l 478 115 l 671 554 l 564 554 l 564 654 l 894 654 l 894 544 m 336 796 q 269 817 297 796 q 242 872 242 839 q 269 928 242 906 q 336 951 297 951 q 405 929 378 951 q 432 872 432 907 q 405 817 432 839 q 336 796 378 796 m 642 796 q 575 817 603 796 q 547 872 547 839 q 575 928 547 906 q 642 951 603 951 q 710 929 682 951 q 738 872 738 907 q 710 817 738 839 q 642 796 682 796 z "},"ỳ":{"ha":908,"x_min":22,"x_max":894,"o":"m 894 544 l 792 544 l 517 -72 q 385 -266 458 -201 q 215 -331 313 -331 q 117 -313 161 -331 q 22 -262 74 -296 l 78 -158 q 215 -210 149 -210 q 322 -172 275 -210 q 406 -50 369 -133 l 415 -28 l 135 544 l 26 544 l 26 654 l 393 654 l 393 554 l 281 554 l 478 115 l 671 554 l 564 554 l 564 654 l 894 654 l 894 544 m 354 1046 l 281 946 l 590 740 l 629 793 l 354 1046 z "},"z":{"ha":819,"x_min":44,"x_max":782,"o":"m 782 214 q 736 90 774 143 q 642 9 699 38 q 522 -19 585 -19 q 373 17 442 -19 q 229 128 304 54 q 156 -19 183 65 l 44 24 q 130 194 76 126 q 240 302 183 263 q 382 386 297 342 l 413 403 q 504 456 482 440 q 365 530 439 504 q 188 556 290 556 l 188 393 l 72 393 l 72 672 l 161 672 q 331 655 260 672 q 456 606 401 638 q 578 518 511 574 q 644 674 626 575 l 760 632 q 697 472 739 536 q 597 369 654 408 q 450 288 539 329 q 356 238 393 260 q 289 190 319 217 q 400 121 347 144 q 504 97 453 97 q 610 138 565 97 q 665 246 654 179 l 782 214 z "},"ź":{"ha":819,"x_min":44,"x_max":782,"o":"m 782 214 q 736 90 774 143 q 642 9 699 38 q 522 -19 585 -19 q 373 17 442 -19 q 229 128 304 54 q 156 -19 183 65 l 44 24 q 130 194 76 126 q 240 302 183 263 q 382 386 297 342 l 413 403 q 504 456 482 440 q 365 530 439 504 q 188 556 290 556 l 188 393 l 72 393 l 72 672 l 161 672 q 331 655 260 672 q 456 606 401 638 q 578 518 511 574 q 644 674 626 575 l 760 632 q 697 472 739 536 q 597 369 654 408 q 450 288 539 329 q 356 238 393 260 q 289 190 319 217 q 400 121 347 144 q 504 97 453 97 q 610 138 565 97 q 665 246 654 179 l 782 214 m 317 767 l 625 972 l 551 1072 l 276 819 l 317 767 z "},"ž":{"ha":819,"x_min":44,"x_max":782,"o":"m 782 214 q 736 90 774 143 q 642 9 699 38 q 522 -19 585 -19 q 373 17 442 -19 q 229 128 304 54 q 156 -19 183 65 l 44 24 q 130 194 76 126 q 240 302 183 263 q 382 386 297 342 l 413 403 q 504 456 482 440 q 365 530 439 504 q 188 556 290 556 l 188 393 l 72 393 l 72 672 l 161 672 q 331 655 260 672 q 456 606 401 638 q 578 518 511 574 q 644 674 626 575 l 760 632 q 697 472 739 536 q 597 369 654 408 q 450 288 539 329 q 356 238 393 260 q 289 190 319 217 q 400 121 347 144 q 504 97 453 97 q 610 138 565 97 q 665 246 654 179 l 782 214 m 664 1019 l 451 775 l 379 775 l 168 1019 l 213 1061 l 415 889 l 621 1061 l 664 1019 z "},"ż":{"ha":819,"x_min":44,"x_max":782,"o":"m 782 214 q 736 90 774 143 q 642 9 699 38 q 522 -19 585 -19 q 373 17 442 -19 q 229 128 304 54 q 156 -19 183 65 l 44 24 q 130 194 76 126 q 240 302 183 263 q 382 386 297 342 l 413 403 q 504 456 482 440 q 365 530 439 504 q 188 556 290 556 l 188 393 l 72 393 l 72 672 l 161 672 q 331 655 260 672 q 456 606 401 638 q 578 518 511 574 q 644 674 626 575 l 760 632 q 697 472 739 536 q 597 369 654 408 q 450 288 539 329 q 356 238 393 260 q 289 190 319 217 q 400 121 347 144 q 504 97 453 97 q 610 138 565 97 q 665 246 654 179 l 782 214 m 417 822 q 340 846 371 822 q 310 904 310 869 q 340 966 310 942 q 417 990 371 990 q 494 966 464 990 q 525 904 525 942 q 494 845 525 868 q 417 822 464 822 z "},"ﬁ":{"ha":1083,"x_min":40,"x_max":1063,"o":"m 464 903 q 361 863 400 903 q 322 751 322 822 l 322 654 l 531 654 l 531 544 l 322 544 l 322 110 l 514 110 l 514 0 l 40 0 l 40 110 l 188 110 l 188 544 l 40 544 l 40 654 l 188 654 l 188 747 q 259 947 188 876 q 450 1018 331 1018 q 562 1002 511 1018 q 679 956 613 986 l 629 850 q 547 889 586 875 q 464 903 507 903 m 831 803 q 756 826 786 803 q 725 886 725 850 q 756 948 725 924 q 831 972 786 972 q 908 948 878 972 q 939 886 939 924 q 908 826 939 850 q 831 803 878 803 m 1063 110 l 1063 0 l 631 0 l 631 110 l 778 110 l 778 544 l 631 544 l 631 654 l 914 654 l 914 110 l 1063 110 z "},"ﬂ":{"ha":1075,"x_min":40,"x_max":1056,"o":"m 1056 110 l 1056 0 l 622 0 l 622 110 l 768 110 l 768 843 l 622 843 l 622 854 q 544 890 582 878 q 464 903 506 903 q 361 863 400 903 q 322 751 322 822 l 322 654 l 531 654 l 531 544 l 322 544 l 322 110 l 514 110 l 514 0 l 40 0 l 40 110 l 188 110 l 188 544 l 40 544 l 40 654 l 188 654 l 188 747 q 259 947 188 876 q 450 1018 331 1018 q 562 1002 511 1018 q 679 956 613 986 l 678 953 l 904 953 l 904 110 l 1056 110 z "},"ª":{"ha":613,"x_min":79,"x_max":561,"o":"m 561 699 l 561 658 q 535 590 561 617 q 471 564 510 564 q 410 581 435 564 q 376 626 386 597 q 299 576 340 594 q 218 558 258 558 q 121 590 163 558 q 79 681 79 622 q 126 774 79 740 q 236 807 172 807 q 372 786 292 807 l 372 824 q 346 878 372 858 q 272 897 319 897 q 199 888 236 897 q 117 860 163 879 l 96 926 q 193 959 150 949 q 282 969 236 969 q 412 930 367 969 q 457 822 457 890 l 457 658 q 465 633 457 643 q 485 624 472 624 q 504 633 497 624 q 511 658 511 643 l 511 699 l 561 699 m 171 683 q 190 643 171 657 q 240 629 210 629 q 372 681 301 629 l 372 729 q 257 743 315 743 q 195 728 219 743 q 171 683 171 713 m 86 454 l 532 454 l 532 388 l 86 388 l 86 454 z "},"º":{"ha":576,"x_min":71,"x_max":508,"o":"m 289 564 q 179 589 229 564 q 100 660 129 614 q 71 768 71 707 q 100 874 71 828 q 178 945 129 919 q 286 971 228 971 q 396 946 344 971 q 478 875 447 921 q 508 768 508 829 q 445 620 508 676 q 289 564 382 564 m 289 636 q 379 673 343 636 q 415 768 415 710 q 379 861 415 824 q 289 899 343 899 q 198 862 233 899 q 163 768 163 825 q 198 673 163 710 q 289 636 233 636 m 489 454 l 489 388 l 89 388 l 89 454 l 489 454 z "},"Δ":{"ha":1085,"x_min":126,"x_max":957,"o":"m 507 846 l 588 846 l 957 -1 l 126 -1 l 507 846 m 779 103 l 546 671 l 308 103 l 779 103 z "},"Ω":{"ha":1356,"x_min":64,"x_max":1293,"o":"m 1293 297 l 1293 0 l 757 0 l 740 67 q 885 259 832 158 q 938 475 938 360 q 903 631 938 563 q 809 735 868 699 q 678 772 750 772 q 546 735 606 772 q 451 631 486 699 q 417 475 417 563 q 469 258 417 358 q 615 67 522 158 l 597 0 l 64 0 l 64 297 l 183 297 l 183 104 l 449 104 q 320 273 369 176 q 271 475 271 369 q 325 683 271 590 q 473 828 379 776 q 678 881 567 881 q 882 828 789 881 q 1029 683 975 776 q 1083 475 1083 590 q 1033 274 1083 369 q 904 104 983 178 l 1174 104 l 1174 297 l 1293 297 z "},"μ":{"ha":942,"x_min":25,"x_max":913,"o":"m 913 13 q 810 -14 868 -14 q 706 23 746 -14 q 658 128 665 60 q 543 19 601 57 q 418 -18 485 -18 q 272 51 315 -18 l 281 6 q 290 -55 282 -7 q 299 -143 299 -103 l 299 -303 l 165 -303 l 165 539 l 25 539 l 25 654 l 300 654 l 300 271 q 331 151 300 193 q 435 108 363 108 q 542 142 485 108 q 657 240 599 176 l 657 654 l 793 654 l 793 168 q 840 100 793 100 q 882 111 864 100 l 913 13 z "},"π":{"ha":960,"x_min":25,"x_max":893,"o":"m 768 539 l 768 168 q 819 100 768 100 q 861 111 846 100 l 893 13 q 790 -14 846 -14 q 674 31 717 -14 q 632 157 632 75 l 632 539 l 301 539 l 301 0 l 165 0 l 165 539 l 25 539 l 25 654 l 893 654 l 893 539 l 768 539 z "},"⁄":{"ha":265,"x_min":-165,"x_max":425,"o":"m 331 1024 l 425 983 l 164 431 l -71 -139 l -165 -99 l 96 456 l 331 1024 z "},"½":{"ha":1242,"x_min":56,"x_max":1183,"o":"m 374 450 l 374 369 l 65 369 l 65 450 l 189 450 l 189 749 q 85 688 149 697 l 56 772 q 141 807 103 778 q 189 879 179 836 l 289 879 l 289 450 l 374 450 m 810 1024 l 904 983 l 643 431 l 408 -139 l 314 -99 l 575 456 l 810 1024 m 1183 169 l 1183 0 l 749 0 l 749 68 q 801 183 751 139 q 946 265 850 226 q 1053 320 1025 299 q 1081 371 1081 342 q 1051 422 1079 403 q 975 442 1024 442 q 796 364 889 442 l 750 419 q 983 517 863 517 q 1115 476 1063 517 q 1168 371 1168 436 q 1147 302 1168 331 q 1089 250 1126 274 q 982 194 1051 226 q 872 135 904 158 q 838 75 839 111 l 1110 75 l 1110 169 l 1183 169 z "},"¼":{"ha":1171,"x_min":56,"x_max":1146,"o":"m 374 450 l 374 369 l 65 369 l 65 450 l 189 450 l 189 749 q 85 688 149 697 l 56 772 q 141 807 103 778 q 189 879 179 836 l 289 879 l 289 450 l 374 450 m 810 1024 l 904 983 l 643 431 l 408 -139 l 314 -99 l 575 456 l 810 1024 m 1146 93 l 1044 93 l 1044 -18 l 944 -18 l 944 93 l 632 93 l 632 174 l 938 508 l 1044 508 l 1044 174 l 1146 174 l 1146 93 m 944 174 l 944 406 l 726 174 l 944 174 z "},"¾":{"ha":1201,"x_min":25,"x_max":1176,"o":"m 328 614 q 464 490 464 588 q 405 392 464 431 q 253 354 346 354 q 126 376 181 354 q 25 432 72 397 l 68 499 q 156 450 107 469 q 254 431 204 431 q 336 449 304 431 q 368 500 368 467 q 326 556 368 536 q 199 575 283 575 l 128 575 l 128 649 l 199 649 q 308 672 269 649 q 347 732 347 694 q 319 785 347 765 q 247 804 290 804 q 83 735 165 804 l 36 794 q 131 856 75 832 q 249 881 186 881 q 388 843 332 881 q 443 739 443 806 q 412 663 443 696 q 328 614 381 631 m 840 1024 l 935 983 l 674 431 l 439 -139 l 344 -99 l 606 456 l 840 1024 m 1176 93 l 1075 93 l 1075 -18 l 975 -18 l 975 93 l 663 93 l 663 174 l 968 508 l 1075 508 l 1075 174 l 1176 174 l 1176 93 m 975 174 l 975 406 l 757 174 l 975 174 z "},"¹":{"ha":424,"x_min":56,"x_max":374,"o":"m 374 665 l 374 583 l 65 583 l 65 665 l 189 665 l 189 963 q 85 900 149 910 l 56 986 q 141 1021 103 992 q 189 1093 179 1050 l 289 1093 l 289 665 l 374 665 z "},"²":{"ha":533,"x_min":38,"x_max":472,"o":"m 472 753 l 472 583 l 38 583 l 38 651 q 90 766 40 722 q 235 849 139 810 q 342 903 314 882 q 369 954 369 925 q 340 1006 368 986 q 264 1025 313 1025 q 85 947 176 1025 l 39 1003 q 272 1100 151 1100 q 404 1060 351 1100 q 457 954 457 1019 q 436 885 457 914 q 378 833 415 857 q 271 778 340 810 q 160 718 193 742 q 126 658 128 694 l 399 658 l 399 753 l 472 753 z "},"³":{"ha":510,"x_min":25,"x_max":464,"o":"m 331 829 q 464 704 464 801 q 405 606 464 644 q 253 568 346 568 q 126 590 181 568 q 25 646 72 611 l 68 713 q 157 664 108 683 q 254 644 206 644 q 336 663 304 644 q 368 713 368 681 q 326 769 368 749 q 199 789 283 789 l 128 789 l 128 861 l 199 861 q 308 884 269 861 q 347 946 347 907 q 319 999 347 979 q 247 1018 290 1018 q 83 949 165 1018 l 36 1008 q 131 1070 75 1046 q 249 1094 186 1094 q 388 1057 332 1094 q 443 953 443 1019 q 413 878 443 911 q 331 829 383 846 z "},"*":{"ha":700,"x_min":42,"x_max":660,"o":"m 286 1081 q 302 1125 286 1107 q 351 1144 318 1143 q 400 1124 383 1143 q 417 1081 417 1106 q 409 1041 417 1065 q 400 1013 401 1017 q 379 938 382 961 l 372 894 l 328 894 l 322 938 q 304 1006 318 964 q 286 1081 286 1060 m 44 910 q 67 947 51 935 q 104 958 83 958 q 122 956 111 958 q 185 922 140 951 q 250 883 229 892 l 290 865 l 279 822 l 235 828 q 208 829 226 829 l 161 828 q 121 826 147 826 q 86 829 96 826 q 55 849 68 833 q 42 889 42 865 q 44 910 42 896 m 450 883 q 515 922 471 892 q 578 956 560 951 q 596 958 589 958 q 633 947 617 958 q 657 910 650 935 q 660 889 660 896 q 646 849 660 865 q 613 829 632 833 q 578 826 603 826 q 539 828 553 826 l 494 829 q 465 828 475 829 l 422 822 l 410 865 l 450 883 m 328 757 l 307 718 q 275 644 297 703 q 247 583 258 597 q 200 560 228 560 q 157 575 178 560 q 129 625 129 596 q 143 665 129 647 q 200 710 154 676 q 261 756 246 743 l 294 785 l 328 757 m 406 785 l 440 756 q 499 711 454 743 q 554 665 542 681 q 569 624 569 646 q 543 575 569 594 q 500 560 522 560 q 451 583 471 560 q 424 647 440 597 q 410 680 419 657 q 393 718 401 703 l 369 757 l 406 785 z "},"\\":{"ha":679,"x_min":36,"x_max":653,"o":"m 36 1028 l 160 1028 l 653 -146 l 531 -146 l 36 1028 z "},"·":{"ha":394,"x_min":82,"x_max":313,"o":"m 196 365 q 115 392 149 365 q 82 457 82 418 q 115 524 82 497 q 196 551 149 551 q 280 525 247 551 q 313 457 313 499 q 280 391 313 417 q 196 365 247 365 z "},"•":{"ha":590,"x_min":106,"x_max":486,"o":"m 296 306 q 161 349 217 306 q 106 454 106 392 q 161 567 106 522 q 296 611 217 611 q 433 567 379 611 q 486 454 486 524 q 433 348 486 390 q 296 306 379 306 z "},":":{"ha":442,"x_min":107,"x_max":336,"o":"m 221 485 q 140 511 172 485 q 107 576 107 538 q 140 642 107 615 q 221 669 172 669 q 303 643 271 669 q 336 576 336 617 q 304 510 336 536 q 221 485 272 485 m 221 -18 q 140 8 172 -18 q 107 72 107 33 q 140 140 107 114 q 221 167 172 167 q 304 140 272 167 q 336 72 336 114 q 303 8 336 33 q 221 -18 271 -18 z "},",":{"ha":422,"x_min":99,"x_max":336,"o":"m 115 -235 q 215 -115 179 -168 q 260 -8 251 -61 q 196 -17 233 -17 q 127 8 156 -17 q 99 71 99 32 q 130 138 99 111 q 208 165 161 165 q 301 126 265 165 q 336 28 336 88 q 288 -122 336 -44 q 154 -274 239 -199 l 115 -235 z "},"…":{"ha":1183,"x_min":82,"x_max":1101,"o":"m 196 -18 q 116 8 150 -18 q 82 72 82 35 q 115 140 82 113 q 196 167 149 167 q 280 140 247 167 q 313 72 313 114 q 280 8 313 33 q 196 -18 247 -18 m 590 -18 q 510 8 543 -18 q 476 72 476 33 q 510 140 476 114 q 590 167 543 167 q 674 140 642 167 q 706 72 706 114 q 673 8 706 33 q 590 -18 640 -18 m 985 -18 q 904 8 938 -18 q 871 72 871 33 q 904 140 871 114 q 985 167 938 167 q 1069 140 1036 167 q 1101 72 1101 114 q 1069 8 1101 33 q 985 -18 1036 -18 z "},"!":{"ha":481,"x_min":126,"x_max":356,"o":"m 197 486 q 154 804 182 638 q 144 873 151 824 q 136 944 136 922 q 162 1019 136 989 q 240 1050 188 1050 q 319 1019 293 1050 q 346 944 346 989 q 329 824 346 919 q 301 649 311 721 q 285 486 292 578 l 271 274 l 213 274 l 197 486 m 240 167 q 324 140 292 167 q 356 72 356 114 q 323 8 356 33 q 240 -18 290 -18 q 160 8 193 -18 q 126 72 126 33 q 160 140 126 114 q 240 167 193 167 z "},"¡":{"ha":481,"x_min":125,"x_max":354,"o":"m 240 806 q 157 832 189 806 q 125 900 125 858 q 158 965 125 939 q 240 990 190 990 q 321 965 288 990 q 354 900 354 939 q 321 832 354 858 q 240 806 288 806 m 283 486 q 326 168 299 335 q 337 99 329 149 q 344 28 344 50 q 319 -47 344 -17 q 240 -78 293 -78 q 161 -47 188 -78 q 135 28 135 -17 q 151 149 135 53 q 179 323 169 251 q 196 486 189 394 l 210 699 l 268 699 l 283 486 z "},"#":{"ha":1093,"x_min":11,"x_max":1082,"o":"m 832 563 l 751 342 l 993 342 l 993 235 l 713 235 l 626 0 l 510 0 l 594 235 l 339 235 l 253 0 l 135 0 l 219 235 l 11 235 l 11 342 l 258 342 l 339 563 l 101 563 l 101 669 l 378 669 l 461 899 l 581 899 l 497 669 l 753 669 l 836 899 l 956 899 l 872 669 l 1082 669 l 1082 563 l 832 563 m 714 563 l 458 563 l 378 342 l 633 342 l 714 563 z "},".":{"ha":393,"x_min":82,"x_max":313,"o":"m 196 -18 q 115 8 149 -18 q 82 72 82 33 q 115 140 82 114 q 196 167 149 167 q 280 140 247 167 q 313 72 313 114 q 280 8 313 33 q 196 -18 247 -18 z "},"?":{"ha":650,"x_min":60,"x_max":625,"o":"m 60 919 q 187 959 125 946 q 321 972 249 972 q 472 944 403 972 q 583 865 542 917 q 625 742 625 813 q 570 606 625 661 q 414 494 515 550 q 305 434 336 453 q 256 394 274 415 q 238 347 238 374 q 263 256 238 310 l 214 239 q 153 335 171 301 q 136 406 136 369 q 160 474 136 444 q 221 528 183 504 q 326 586 258 551 q 442 660 407 629 q 476 739 476 692 q 428 820 476 788 q 311 853 381 853 q 206 841 256 853 q 101 804 157 829 l 60 919 m 272 -18 q 196 7 228 -18 q 164 68 164 32 q 195 131 164 106 q 272 157 226 157 q 351 132 319 157 q 382 68 382 107 q 351 7 382 32 q 272 -18 319 -18 z "},"¿":{"ha":690,"x_min":65,"x_max":631,"o":"m 418 978 q 494 953 463 978 q 526 892 526 928 q 495 828 526 854 q 418 803 464 803 q 340 828 371 803 q 308 892 308 853 q 340 953 308 928 q 418 978 371 978 m 631 40 q 503 1 565 14 q 369 -12 442 -12 q 218 15 288 -12 q 107 95 149 43 q 65 218 65 147 q 120 354 65 299 q 276 465 175 410 q 385 526 354 507 q 435 565 417 544 q 453 613 453 586 q 428 704 453 650 l 476 721 q 537 624 519 658 q 554 554 554 590 q 531 485 554 515 q 469 432 507 456 q 364 374 432 408 q 249 299 283 331 q 214 221 214 268 q 262 140 214 172 q 379 107 310 107 q 484 119 435 107 q 589 156 533 131 l 631 40 z "},"\"":{"ha":621,"x_min":104,"x_max":528,"o":"m 272 1007 l 189 647 l 104 654 l 126 1025 l 272 1007 m 528 1007 l 444 646 l 358 653 l 382 1025 l 528 1007 z "},"'":{"ha":386,"x_min":104,"x_max":293,"o":"m 293 999 l 189 646 l 104 660 l 147 1029 l 293 999 z "},";":{"ha":460,"x_min":115,"x_max":353,"o":"m 229 485 q 149 510 182 485 q 115 575 115 536 q 149 642 115 615 q 229 669 182 669 q 313 642 281 669 q 344 575 344 615 q 313 510 344 535 q 229 485 281 485 m 132 -235 q 231 -117 194 -171 q 276 -8 267 -62 q 214 -17 249 -17 q 144 8 172 -17 q 115 71 115 32 q 147 138 115 111 q 225 165 179 165 q 317 126 282 165 q 353 28 353 88 q 304 -122 353 -44 q 171 -274 256 -199 l 132 -235 z "},"/":{"ha":685,"x_min":31,"x_max":640,"o":"m 31 -146 l 518 1028 l 640 1028 l 153 -146 l 31 -146 z "},"_":{"ha":563,"x_min":-18,"x_max":581,"o":"m 581 -240 l -18 -240 l -18 -124 l 581 -124 l 581 -240 z "},"{":{"ha":668,"x_min":103,"x_max":647,"o":"m 428 -139 q 517 -128 475 -139 q 608 -97 560 -118 l 647 -204 q 534 -243 586 -231 q 411 -256 482 -256 q 281 -231 342 -256 q 183 -156 221 -206 q 146 -37 146 -107 q 179 71 146 24 q 275 176 213 118 q 345 251 322 221 q 368 313 368 281 q 319 399 368 369 q 178 426 271 428 l 103 426 l 103 526 l 178 526 q 319 555 271 526 q 368 638 368 583 q 345 701 368 671 q 274 775 322 731 q 178 881 211 835 q 146 989 146 926 q 183 1108 146 1058 q 281 1182 219 1157 q 411 1207 342 1207 q 535 1194 482 1207 q 647 1157 588 1182 l 608 1050 q 519 1080 561 1069 q 428 1090 476 1090 q 321 1065 365 1090 q 276 982 276 1039 q 299 918 276 947 q 369 847 322 889 q 459 751 428 794 q 490 649 490 708 q 445 536 490 581 q 321 476 400 492 q 445 415 400 460 q 490 303 490 371 q 460 201 490 244 q 369 106 429 158 q 299 35 322 64 q 276 -29 276 6 q 321 -112 276 -86 q 428 -139 365 -139 z "},"}":{"ha":668,"x_min":21,"x_max":564,"o":"m 490 426 q 348 397 396 426 q 300 313 300 368 q 322 253 300 281 q 392 178 343 225 q 488 72 454 119 q 522 -37 522 24 q 485 -156 522 -107 q 387 -231 447 -206 q 257 -256 326 -256 q 135 -243 186 -256 q 21 -204 83 -231 l 58 -97 q 151 -128 111 -118 q 239 -139 192 -139 q 346 -112 301 -139 q 390 -29 390 -86 q 367 35 390 6 q 297 106 344 64 q 207 201 238 158 q 176 303 176 244 q 222 415 176 369 q 346 476 267 460 q 222 538 267 493 q 176 649 176 582 q 208 751 176 708 q 297 847 239 794 q 367 918 344 889 q 390 982 390 947 q 346 1065 390 1039 q 239 1090 301 1090 q 149 1081 190 1090 q 58 1050 107 1071 l 21 1157 q 133 1194 81 1182 q 257 1207 185 1207 q 388 1182 326 1207 q 485 1108 449 1157 q 522 989 522 1058 q 489 879 522 926 q 394 776 456 832 q 323 702 346 732 q 300 638 300 672 q 349 554 300 583 q 490 526 397 525 l 564 526 l 564 426 l 490 426 z "},"[":{"ha":479,"x_min":169,"x_max":458,"o":"m 294 1038 l 294 -79 l 458 -79 l 458 -194 l 169 -194 l 169 1153 l 458 1153 l 458 1038 l 294 1038 z "},"]":{"ha":479,"x_min":22,"x_max":311,"o":"m 311 -194 l 22 -194 l 22 -79 l 186 -79 l 186 1038 l 22 1038 l 22 1153 l 311 1153 l 311 -194 z "},"(":{"ha":529,"x_min":99,"x_max":503,"o":"m 468 -200 q 294 -44 378 -139 q 154 185 210 51 q 99 476 99 318 q 206 876 99 707 q 468 1153 313 1044 l 503 1100 q 231 476 231 828 q 314 113 231 271 q 503 -150 397 -46 l 468 -200 z "},")":{"ha":529,"x_min":26,"x_max":429,"o":"m 26 -149 q 299 476 299 121 q 215 840 299 682 q 26 1101 132 999 l 61 1153 q 235 996 153 1092 q 374 767 318 900 q 429 476 429 635 q 322 76 429 246 q 61 -200 215 -94 l 26 -149 z "},"—":{"ha":1171,"x_min":40,"x_max":1132,"o":"m 1132 269 l 40 269 l 40 386 l 1132 386 l 1132 269 z "},"–":{"ha":803,"x_min":40,"x_max":765,"o":"m 765 269 l 40 269 l 40 386 l 765 386 l 765 269 z "},"-":{"ha":436,"x_min":40,"x_max":397,"o":"m 397 269 l 40 269 l 40 388 l 397 388 l 397 269 z "},"­":{"ha":436,"x_min":40,"x_max":397,"o":"m 397 269 l 40 269 l 40 388 l 397 388 l 397 269 z "},"«":{"ha":1101,"x_min":57,"x_max":1032,"o":"m 203 340 q 461 231 360 318 q 594 7 563 143 l 490 -31 q 342 198 454 115 q 76 281 231 281 l 57 281 l 57 397 l 76 397 q 342 481 229 397 q 489 708 454 564 l 593 672 q 460 449 561 536 q 203 340 358 361 m 640 340 q 899 231 797 318 q 1032 7 1000 143 l 926 -31 q 782 199 890 117 q 514 281 674 281 l 494 281 l 494 397 l 513 397 q 781 479 672 397 q 925 708 889 561 l 1031 672 q 897 449 999 536 q 640 340 796 361 z "},"»":{"ha":1101,"x_min":69,"x_max":1044,"o":"m 589 281 q 324 194 436 281 q 176 -40 211 107 l 71 -6 q 206 225 104 133 q 464 338 308 317 q 204 447 307 360 q 69 672 101 535 l 175 708 q 322 479 210 563 q 588 396 433 396 l 607 396 l 607 281 l 589 281 m 1044 396 l 1044 281 l 1025 281 q 840 241 925 281 q 695 129 754 201 q 614 -40 636 57 l 508 -6 q 644 225 542 133 q 901 338 746 317 q 642 447 744 360 q 507 672 539 535 l 611 708 q 759 479 647 563 q 1025 396 871 396 l 1044 396 z "},"‹":{"ha":725,"x_min":57,"x_max":643,"o":"m 238 338 q 506 231 401 318 q 643 4 611 143 l 539 -32 q 385 196 504 113 q 103 279 265 279 l 57 279 l 57 397 l 101 397 q 383 481 264 397 q 538 707 503 564 l 642 671 q 506 446 610 533 q 238 338 401 358 z "},"›":{"ha":725,"x_min":81,"x_max":667,"o":"m 667 397 l 667 279 l 621 279 q 425 242 515 279 q 272 134 335 204 q 188 -32 210 64 l 82 4 q 218 231 114 143 q 486 338 322 318 q 217 446 322 358 q 81 671 113 533 l 186 707 q 340 481 221 564 q 619 397 458 397 l 667 397 z "},"„":{"ha":736,"x_min":99,"x_max":647,"o":"m 115 -232 q 217 -111 182 -164 q 254 -7 251 -58 q 194 -17 225 -17 q 126 6 154 -17 q 99 65 99 29 q 131 126 99 103 q 210 149 163 149 q 299 114 265 149 q 333 18 333 79 q 285 -122 333 -47 q 154 -271 238 -197 l 115 -232 m 429 -235 q 532 -113 497 -165 q 568 -10 567 -61 q 510 -18 543 -18 q 441 5 469 -18 q 413 61 413 28 q 444 122 413 99 q 524 146 476 146 q 614 112 581 146 q 647 17 647 78 q 599 -125 647 -50 q 468 -274 551 -200 l 429 -235 z "},"“":{"ha":736,"x_min":90,"x_max":639,"o":"m 214 629 q 124 664 157 629 q 90 758 90 699 q 138 901 90 825 q 269 1050 186 976 l 307 1011 q 206 889 240 942 q 168 785 172 836 q 229 794 200 794 q 297 771 268 794 q 325 714 325 747 q 293 653 325 676 q 214 629 261 629 m 529 628 q 438 662 471 628 q 404 757 404 696 q 452 899 404 824 q 585 1047 500 974 l 622 1008 q 520 885 554 936 q 482 782 486 835 q 543 792 510 792 q 610 769 582 792 q 639 713 639 746 q 607 651 639 675 q 529 628 575 628 z "},"”":{"ha":736,"x_min":99,"x_max":647,"o":"m 115 651 q 217 774 182 721 q 254 878 251 826 q 194 868 225 868 q 126 890 154 868 q 99 949 99 913 q 131 1010 99 986 q 210 1033 163 1033 q 299 998 265 1033 q 333 901 333 963 q 285 761 333 836 q 154 613 238 686 l 115 651 m 429 649 q 532 770 497 718 q 568 875 567 822 q 510 865 544 865 q 441 888 469 865 q 413 947 413 911 q 445 1007 413 983 q 524 1031 478 1031 q 614 996 581 1031 q 647 900 647 961 q 599 760 647 835 q 468 610 551 685 l 429 649 z "},"‘":{"ha":422,"x_min":90,"x_max":325,"o":"m 214 629 q 124 664 157 629 q 90 758 90 699 q 138 901 90 825 q 269 1050 186 976 l 307 1011 q 206 889 240 942 q 168 785 172 836 q 229 794 200 794 q 297 771 268 794 q 325 714 325 747 q 293 653 325 676 q 214 629 261 629 z "},"‛":{"ha":422,"x_min":90,"x_max":325,"o":"m 269 611 q 138 760 186 685 q 90 900 90 835 q 123 995 90 961 q 214 1029 156 1029 q 293 1006 261 1029 q 325 946 325 983 q 297 888 325 911 q 229 865 268 865 q 190 869 208 865 q 168 875 172 874 q 207 771 172 824 q 307 649 242 718 l 269 611 z "},"’":{"ha":422,"x_min":99,"x_max":333,"o":"m 115 657 q 217 778 182 726 q 254 883 251 831 q 194 874 231 874 q 126 896 154 874 q 99 953 99 918 q 131 1014 99 990 q 210 1038 163 1038 q 299 1003 265 1038 q 333 907 333 968 q 285 767 333 842 q 154 618 238 692 l 115 657 z "},"‚":{"ha":422,"x_min":99,"x_max":333,"o":"m 115 -235 q 217 -113 182 -165 q 254 -10 251 -61 q 194 -18 229 -18 q 126 5 154 -18 q 99 61 99 28 q 131 122 99 99 q 210 146 163 146 q 299 112 265 146 q 333 17 333 78 q 285 -125 333 -50 q 154 -274 238 -200 l 115 -235 z "}," ":{"ha":410,"x_min":0,"x_max":0,"o":""}," ":{"ha":731,"x_min":0,"x_max":0,"o":""},"\r":{"ha":1100,"x_min":0,"x_max":0,"o":""},"¢":{"ha":793,"x_min":71,"x_max":725,"o":"m 725 213 q 617 139 674 167 q 485 103 560 111 l 485 -18 l 378 -18 l 378 104 q 227 156 297 115 q 114 267 157 197 q 71 429 71 338 q 113 592 71 519 q 226 710 156 665 q 378 761 296 754 l 378 881 l 485 881 l 485 754 q 617 674 563 735 l 617 750 l 715 750 l 715 519 l 647 518 q 481 651 592 631 l 481 208 q 574 240 532 215 q 660 304 617 264 l 725 213 m 207 429 q 256 289 207 349 q 383 211 306 229 l 383 650 q 257 574 307 633 q 207 429 207 514 z "},"¤":{"ha":785,"x_min":78,"x_max":707,"o":"m 646 432 q 583 269 646 339 l 707 122 l 649 71 l 522 222 q 390 189 463 189 q 263 221 322 189 l 136 71 l 78 122 l 200 269 q 152 343 169 301 q 135 432 135 385 q 152 522 135 479 q 200 596 169 564 l 78 742 l 136 793 l 263 643 q 390 675 319 675 q 524 642 465 675 l 649 793 l 707 742 l 585 594 q 646 432 646 526 m 390 286 q 494 328 453 286 q 536 433 536 371 q 494 537 536 496 q 390 578 453 578 q 288 537 331 578 q 246 433 246 496 q 288 328 246 371 q 390 286 331 286 z "},"$":{"ha":1000,"x_min":115,"x_max":925,"o":"m 565 485 q 835 378 744 440 q 925 208 925 315 q 840 42 925 104 q 617 -19 754 -19 q 572 -18 586 -19 l 572 -203 l 464 -203 l 464 1 q 236 135 338 38 l 236 -1 l 115 -1 l 115 301 l 190 307 q 317 181 246 233 q 469 104 389 129 l 469 364 l 450 368 q 199 481 281 413 q 117 646 117 549 q 153 770 117 717 q 256 853 190 824 q 406 882 322 882 q 464 878 435 882 l 464 1054 l 572 1054 l 572 851 q 761 728 679 814 l 761 864 l 879 864 l 879 564 l 808 560 q 703 678 767 629 q 565 753 640 728 l 565 485 m 256 658 q 306 575 256 608 q 469 510 356 542 l 469 774 q 432 775 457 775 q 302 744 349 775 q 256 658 256 714 m 606 85 q 738 113 688 85 q 788 190 788 140 q 735 271 788 238 q 565 338 683 304 l 565 86 q 606 85 579 85 z "},"€":{"ha":1011,"x_min":47,"x_max":957,"o":"m 957 129 q 604 -18 813 -18 q 331 65 449 -18 q 172 289 214 147 l 47 289 l 47 374 l 156 374 q 153 429 153 410 q 154 463 153 451 l 49 463 l 49 546 l 165 546 q 247 723 188 647 q 388 840 306 799 q 561 881 471 881 q 832 761 729 881 l 833 861 l 950 861 l 949 597 l 878 593 q 760 726 826 681 q 593 772 693 772 q 417 713 494 772 q 310 546 339 653 l 776 546 l 776 463 l 296 463 q 294 429 294 451 q 297 374 294 410 l 774 374 l 774 289 l 317 289 q 426 143 350 196 q 604 90 501 90 q 762 123 697 90 q 889 221 826 156 l 957 129 z "},"ƒ":{"ha":646,"x_min":40,"x_max":733,"o":"m 519 897 q 416 859 456 897 q 376 751 376 821 l 376 561 l 586 561 l 586 453 l 376 453 l 376 51 q 310 -162 376 -87 q 119 -237 244 -236 q 40 -228 71 -237 l 65 -114 q 104 -117 90 -117 q 243 49 243 -115 l 243 453 l 96 453 l 96 561 l 243 561 l 243 747 q 315 947 243 876 q 504 1018 386 1018 q 617 1002 565 1018 q 733 956 668 986 l 685 846 q 603 884 643 871 q 519 897 564 897 z "},"₺":{"ha":976,"x_min":72,"x_max":893,"o":"m 893 376 q 808 175 874 260 q 646 45 743 90 q 435 0 549 0 l 239 0 l 239 339 l 72 260 l 72 349 l 239 428 l 239 539 l 75 461 l 75 550 l 239 628 l 239 881 l 374 881 l 374 690 l 696 843 l 696 754 l 374 601 l 374 490 l 693 642 l 693 554 l 374 403 l 374 110 l 431 110 q 659 178 561 110 q 790 407 757 246 l 893 376 z "},"₽":{"ha":992,"x_min":81,"x_max":947,"o":"m 396 436 l 396 319 l 749 319 l 749 240 l 396 240 l 396 115 l 592 115 l 592 0 l 81 0 l 81 115 l 260 115 l 260 240 l 81 240 l 81 319 l 260 319 l 260 436 l 81 436 l 81 529 l 260 529 l 260 765 l 81 765 l 81 881 l 608 881 q 863 824 778 881 q 947 657 947 767 q 863 491 947 546 q 608 436 779 436 l 396 436 m 396 529 l 608 529 q 752 559 699 529 q 806 656 806 589 q 752 751 806 721 q 608 781 699 781 l 396 781 l 396 529 z "},"£":{"ha":931,"x_min":88,"x_max":904,"o":"m 904 215 q 820 46 889 110 q 649 -18 751 -18 q 401 90 528 -18 q 292 11 363 40 q 124 -18 221 -18 l 88 -18 l 88 94 l 124 94 q 249 127 194 94 q 303 224 303 160 q 294 278 303 251 l 90 278 l 90 361 l 260 361 l 213 451 l 92 451 l 92 535 l 179 535 q 167 614 167 572 q 203 754 167 693 q 306 848 240 815 q 454 881 371 881 q 729 769 611 881 l 729 861 l 846 861 l 846 593 l 781 588 q 635 728 714 686 q 478 771 557 771 q 352 729 403 771 q 301 614 301 688 q 315 535 301 579 l 692 535 l 692 451 l 354 451 l 401 361 l 690 361 l 690 278 l 435 278 q 443 217 443 249 q 440 185 443 204 q 650 97 556 97 q 751 138 713 97 q 801 247 790 178 l 904 215 z "},"¥":{"ha":1190,"x_min":75,"x_max":1115,"o":"m 958 747 l 832 568 l 1053 568 l 1053 490 l 778 490 l 689 364 l 1053 364 l 1053 286 l 667 286 l 667 115 l 851 115 l 851 0 l 343 0 l 343 115 l 528 115 l 528 286 l 142 286 l 142 364 l 500 364 l 407 490 l 142 490 l 142 568 l 350 568 l 218 747 l 75 747 l 75 861 l 503 861 l 503 747 l 374 747 l 606 413 l 826 747 l 694 747 l 694 861 l 1115 861 l 1115 747 l 958 747 z "},"Ω":{"ha":1356,"x_min":64,"x_max":1293,"o":"m 1293 297 l 1293 0 l 757 0 l 740 67 q 885 259 832 158 q 938 475 938 360 q 903 631 938 563 q 809 735 868 699 q 678 772 750 772 q 546 735 606 772 q 451 631 486 699 q 417 475 417 563 q 469 258 417 358 q 615 67 522 158 l 597 0 l 64 0 l 64 297 l 183 297 l 183 104 l 449 104 q 320 273 369 176 q 271 475 271 369 q 325 683 271 590 q 473 828 379 776 q 678 881 567 881 q 882 828 789 881 q 1029 683 975 776 q 1083 475 1083 590 q 1033 274 1083 369 q 904 104 983 178 l 1174 104 l 1174 297 l 1293 297 z "},"≈":{"ha":932,"x_min":88,"x_max":842,"o":"m 622 451 q 542 467 581 451 q 454 514 503 482 q 377 560 403 549 q 318 572 351 572 q 181 461 242 572 l 88 515 q 181 640 126 593 q 308 688 236 688 q 388 672 350 688 q 475 624 425 657 q 553 577 529 589 q 613 565 578 565 q 749 676 690 565 l 842 621 q 750 498 804 544 q 622 451 696 451 m 622 160 q 542 175 581 160 q 454 222 504 190 q 378 269 404 257 q 318 282 351 282 q 181 169 242 282 l 88 226 q 181 350 126 303 q 308 397 236 397 q 387 382 350 397 q 475 335 424 367 q 555 287 531 299 q 613 275 579 275 q 749 388 690 275 l 842 331 q 749 207 804 254 q 622 160 694 160 z "},"~":{"ha":975,"x_min":81,"x_max":896,"o":"m 669 251 q 551 288 603 251 q 444 397 499 325 q 369 487 397 461 q 307 513 340 513 q 197 281 199 513 l 81 283 q 136 531 82 435 q 307 628 190 628 q 423 592 372 628 q 528 488 474 557 q 608 394 579 421 q 669 367 638 367 q 779 600 779 367 l 896 597 q 840 349 894 446 q 669 251 786 251 z "},"∙":{"ha":590,"x_min":106,"x_max":486,"o":"m 296 306 q 161 349 217 306 q 106 454 106 392 q 161 567 106 522 q 296 611 217 611 q 433 567 379 611 q 486 454 486 524 q 433 348 486 390 q 296 306 379 306 z "},"∕":{"ha":697,"x_min":31,"x_max":654,"o":"m 31 -237 l 532 1119 l 654 1119 l 153 -237 l 31 -237 z "},"=":{"ha":814,"x_min":88,"x_max":724,"o":"m 724 501 l 88 501 l 88 618 l 724 618 l 724 501 m 724 243 l 88 243 l 88 360 l 724 360 l 724 243 z "},">":{"ha":719,"x_min":81,"x_max":686,"o":"m 686 449 l 686 415 l 81 49 l 81 181 l 506 432 l 81 682 l 81 813 l 686 449 z "},"≥":{"ha":719,"x_min":60,"x_max":658,"o":"m 658 644 l 658 611 l 88 299 l 88 431 l 474 629 l 88 825 l 88 956 l 658 644 m 60 171 l 654 171 l 654 54 l 60 54 l 60 171 z "},"∆":{"ha":1085,"x_min":126,"x_max":957,"o":"m 507 846 l 588 846 l 957 -1 l 126 -1 l 507 846 m 779 103 l 546 671 l 308 103 l 779 103 z "},"∞":{"ha":1404,"x_min":67,"x_max":1335,"o":"m 1031 743 q 1194 699 1125 743 q 1299 585 1264 656 q 1335 439 1335 515 q 1297 296 1335 365 q 1189 183 1258 226 q 1031 139 1119 139 q 853 190 926 139 q 700 350 781 242 q 542 190 614 242 q 374 139 471 139 q 209 183 279 139 q 103 296 139 226 q 67 439 67 365 q 106 584 67 514 q 215 698 144 654 q 374 742 285 742 q 501 715 444 742 q 601 643 557 688 q 704 525 646 599 q 867 690 794 638 q 1031 743 939 743 m 381 246 q 469 267 431 246 q 544 326 508 288 q 635 436 579 364 q 544 550 578 511 q 470 613 510 589 q 381 636 431 636 q 283 609 328 636 q 213 537 239 582 q 186 439 186 492 q 211 342 186 386 q 281 272 236 299 q 381 246 325 246 m 1033 246 q 1124 273 1082 246 q 1192 344 1167 300 q 1217 439 1217 389 q 1192 538 1217 493 q 1124 610 1167 583 q 1028 636 1081 636 q 942 613 982 636 q 865 551 901 590 q 771 440 828 513 q 865 329 828 368 q 942 268 901 290 q 1033 246 983 246 z "},"∫":{"ha":547,"x_min":-162,"x_max":710,"o":"m 60 -322 q -54 -306 -1 -322 q -162 -258 -107 -289 l -115 -151 q -35 -190 -72 -176 q 46 -203 1 -203 q 165 -147 124 -203 q 207 18 207 -92 l 207 832 q 285 1089 207 1003 q 490 1175 364 1175 q 603 1158 553 1175 q 710 1111 654 1142 l 661 1004 q 583 1042 618 1029 q 506 1054 549 1054 q 385 999 428 1054 q 342 835 342 943 l 342 22 q 264 -236 342 -150 q 60 -322 186 -322 z "},"<":{"ha":719,"x_min":35,"x_max":640,"o":"m 640 682 l 217 429 l 640 181 l 640 49 l 35 414 l 35 447 l 640 813 l 640 682 z "},"≤":{"ha":719,"x_min":61,"x_max":660,"o":"m 633 299 l 61 610 l 61 643 l 633 956 l 633 825 l 246 628 l 633 431 l 633 299 m 660 171 l 660 54 l 64 54 l 64 171 l 660 171 z "},"¬":{"ha":868,"x_min":64,"x_max":774,"o":"m 774 150 l 657 150 l 657 490 l 64 490 l 64 607 l 774 607 l 774 150 z "},"µ":{"ha":942,"x_min":25,"x_max":913,"o":"m 913 13 q 810 -14 868 -14 q 706 23 746 -14 q 658 128 665 60 q 543 19 601 57 q 418 -18 485 -18 q 272 51 315 -18 l 281 6 q 290 -55 282 -7 q 299 -143 299 -103 l 299 -303 l 165 -303 l 165 539 l 25 539 l 25 654 l 300 654 l 300 271 q 331 151 300 193 q 435 108 363 108 q 542 142 485 108 q 657 240 599 176 l 657 654 l 793 654 l 793 168 q 840 100 793 100 q 882 111 864 100 l 913 13 z "},"−":{"ha":819,"x_min":92,"x_max":728,"o":"m 728 374 l 92 374 l 92 490 l 728 490 l 728 374 z "},"×":{"ha":771,"x_min":115,"x_max":654,"o":"m 469 431 l 654 246 l 572 161 l 386 347 l 200 161 l 115 247 l 301 433 l 115 619 l 199 700 l 383 515 l 569 700 l 654 615 l 469 431 z "},"≠":{"ha":814,"x_min":88,"x_max":724,"o":"m 501 501 l 422 360 l 724 360 l 724 243 l 357 243 l 283 110 l 171 110 l 244 243 l 88 243 l 88 360 l 310 360 l 389 501 l 88 501 l 88 618 l 453 618 l 528 753 l 640 753 l 565 618 l 724 618 l 724 501 l 501 501 z "},"∂":{"ha":1031,"x_min":64,"x_max":929,"o":"m 600 1060 q 764 1014 689 1060 q 884 874 839 968 q 929 643 929 781 q 856 294 929 451 q 660 48 782 138 q 399 -42 539 -42 q 222 -4 297 -42 q 105 100 146 33 q 64 253 64 167 q 113 419 64 346 q 246 532 163 492 q 425 572 329 572 q 771 444 608 572 q 796 647 796 547 q 739 866 796 792 q 589 940 682 940 q 364 853 476 940 l 306 956 q 444 1031 372 1003 q 600 1060 515 1060 m 406 69 q 592 144 501 69 q 738 347 683 219 q 454 465 596 465 q 334 438 389 465 q 247 363 279 411 q 214 254 214 314 q 266 121 214 172 q 406 69 318 69 z "},"%":{"ha":1236,"x_min":61,"x_max":1175,"o":"m 135 17 l 1025 925 l 1097 854 l 207 -56 l 135 17 m 301 440 q 185 470 240 440 q 95 553 129 500 q 61 671 61 606 q 95 791 61 739 q 184 872 129 843 q 301 900 239 900 q 420 872 365 900 q 507 790 475 843 q 539 669 539 738 q 506 551 539 603 q 419 469 474 499 q 301 440 365 440 m 303 542 q 392 578 354 542 q 429 669 429 614 q 392 761 429 725 q 303 797 354 797 q 213 762 250 797 q 175 671 175 726 q 213 578 175 615 q 303 542 250 542 m 935 -29 q 816 0 871 -29 q 728 81 761 29 q 696 201 696 133 q 728 321 696 268 q 816 403 761 374 q 935 432 871 432 q 1052 402 997 432 q 1141 319 1107 372 q 1175 200 1175 265 q 1142 80 1175 132 q 1053 -1 1108 28 q 935 -29 997 -29 m 935 74 q 1024 109 986 74 q 1063 200 1063 144 q 1024 292 1063 256 q 935 329 986 329 q 845 293 882 329 q 808 201 808 257 q 845 110 808 146 q 935 74 882 74 z "},"‰":{"ha":1792,"x_min":61,"x_max":1731,"o":"m 100 15 l 1114 964 l 1185 893 l 172 -56 l 100 15 m 301 440 q 185 470 240 440 q 95 553 129 500 q 61 671 61 606 q 95 791 61 739 q 184 872 129 843 q 301 900 239 900 q 420 872 365 900 q 507 790 475 843 q 539 669 539 738 q 506 551 539 603 q 419 469 474 499 q 301 440 365 440 m 303 542 q 392 578 354 542 q 429 669 429 614 q 392 761 429 725 q 303 797 354 797 q 213 762 250 797 q 175 671 175 726 q 213 578 175 615 q 303 542 250 542 m 935 -29 q 816 0 871 -29 q 728 81 761 29 q 696 201 696 133 q 728 321 696 268 q 816 403 761 374 q 935 432 871 432 q 1052 402 997 432 q 1141 319 1107 372 q 1175 200 1175 265 q 1142 80 1175 132 q 1053 -1 1108 28 q 935 -29 997 -29 m 1490 -29 q 1372 0 1426 -29 q 1284 82 1317 29 q 1251 201 1251 135 q 1284 321 1251 268 q 1372 403 1317 374 q 1490 432 1426 432 q 1608 402 1553 432 q 1697 319 1663 372 q 1731 200 1731 265 q 1697 80 1731 132 q 1608 -1 1664 28 q 1490 -29 1553 -29 m 935 74 q 1024 109 986 74 q 1063 200 1063 144 q 1024 292 1063 256 q 935 329 986 329 q 845 293 882 329 q 808 201 808 257 q 845 110 808 146 q 935 74 882 74 m 1490 74 q 1580 109 1542 74 q 1618 200 1618 144 q 1580 292 1618 256 q 1490 329 1542 329 q 1401 293 1438 329 q 1364 201 1364 257 q 1401 110 1364 146 q 1490 74 1438 74 z "},"+":{"ha":815,"x_min":86,"x_max":731,"o":"m 731 374 l 465 374 l 465 93 l 347 93 l 347 374 l 86 374 l 86 490 l 347 490 l 347 768 l 465 768 l 465 490 l 731 490 l 731 374 z "},"±":{"ha":819,"x_min":138,"x_max":682,"o":"m 682 631 l 682 515 l 465 515 l 465 324 l 347 324 l 347 515 l 138 515 l 138 631 l 347 631 l 347 822 l 465 822 l 465 631 l 682 631 m 138 183 l 678 183 l 678 68 l 138 68 l 138 183 z "},"∏":{"ha":1029,"x_min":196,"x_max":833,"o":"m 833 0 l 717 0 l 717 875 l 313 875 l 313 0 l 196 0 l 196 992 l 833 992 l 833 0 z "},"√":{"ha":942,"x_min":26,"x_max":878,"o":"m 878 1140 l 528 -1 l 463 -1 l 265 531 l 65 451 l 26 550 l 349 674 l 350 674 l 383 578 l 382 578 l 492 263 l 754 1172 l 878 1140 z "},"∑":{"ha":996,"x_min":36,"x_max":850,"o":"m 850 1126 l 850 765 l 722 765 l 722 1011 l 246 1011 l 578 496 l 578 465 l 243 -60 l 722 -60 l 722 186 l 850 186 l 850 -174 l 44 -178 l 36 -149 l 435 479 l 36 1099 l 44 1129 l 850 1126 z "},"◊":{"ha":1150,"x_min":229,"x_max":921,"o":"m 229 439 l 544 1011 l 624 1011 l 921 439 l 613 -137 l 535 -137 l 229 439 m 789 439 l 582 857 l 363 438 l 574 17 l 789 439 z "},"|":{"ha":479,"x_min":174,"x_max":304,"o":"m 304 1163 l 304 -268 l 174 -268 l 174 1163 l 304 1163 z "},"¦":{"ha":479,"x_min":174,"x_max":304,"o":"m 304 1163 l 304 558 l 174 558 l 174 1163 l 304 1163 m 304 338 l 304 -268 l 174 -268 l 174 338 l 304 338 z "},"@":{"ha":1314,"x_min":61,"x_max":1253,"o":"m 676 926 q 975 853 843 926 q 1180 656 1107 779 q 1253 392 1253 533 q 1216 202 1253 281 q 1121 84 1179 124 q 999 44 1063 44 q 897 72 940 44 q 828 143 853 99 q 706 65 772 93 q 574 36 640 36 q 435 80 493 36 q 378 206 378 124 q 448 336 378 289 q 618 383 518 383 q 804 354 708 383 l 804 403 q 765 485 804 458 q 663 513 725 513 q 433 458 554 513 l 410 551 q 681 613 553 613 q 857 558 794 613 q 919 397 919 503 l 919 247 q 947 158 919 192 q 1017 125 974 125 q 1090 154 1056 125 q 1147 244 1125 183 q 1168 392 1168 304 q 1105 620 1168 514 q 929 790 1042 726 q 676 854 817 854 q 410 785 532 854 q 217 592 289 715 q 146 317 146 469 q 213 57 146 171 q 387 -119 279 -57 q 613 -182 494 -182 q 772 -158 699 -182 q 900 -100 846 -135 l 931 -165 q 795 -228 876 -203 q 615 -254 714 -254 q 350 -187 478 -254 q 142 10 222 -119 q 61 319 61 140 q 145 638 61 500 q 370 851 229 776 q 676 926 511 926 m 607 133 q 701 152 649 133 q 807 207 754 171 q 804 236 804 226 l 804 276 q 646 299 724 296 q 546 277 586 299 q 506 210 506 256 q 533 152 506 171 q 607 133 560 133 z "},"&":{"ha":1069,"x_min":53,"x_max":1047,"o":"m 1047 8 q 885 -18 971 -18 q 685 29 783 -18 q 421 -21 572 -21 q 233 11 317 -21 q 101 102 149 43 q 53 240 53 161 q 118 401 53 336 q 322 518 183 465 q 308 664 308 586 q 344 819 308 750 q 443 928 381 889 q 583 968 506 968 q 705 940 653 968 q 785 866 757 913 q 814 764 814 819 q 727 585 814 664 q 476 457 640 507 q 563 287 508 364 q 686 160 618 210 q 781 253 747 200 q 814 368 814 307 q 805 433 814 404 q 778 490 796 461 l 894 542 q 947 368 947 458 q 910 228 947 300 q 803 101 874 157 q 875 90 840 90 q 1024 114 957 90 l 1047 8 m 586 857 q 518 835 551 857 q 463 770 485 814 q 442 664 442 726 q 450 563 442 611 q 681 761 681 636 q 654 831 681 806 q 586 857 628 857 m 429 90 q 564 107 501 90 q 440 244 494 165 q 351 414 385 322 q 224 341 264 379 q 185 249 185 303 q 253 134 185 178 q 429 90 321 90 z "},"¶":{"ha":1110,"x_min":40,"x_max":974,"o":"m 974 953 l 974 11 q 926 -183 974 -104 q 803 -301 879 -262 q 639 -340 726 -340 q 449 -308 539 -340 q 268 -228 358 -276 l 318 -118 q 442 -180 374 -153 q 576 -215 510 -207 l 576 325 q 401 279 492 279 q 220 322 303 279 q 89 441 138 364 q 40 618 40 518 q 91 801 40 721 q 231 927 142 882 q 431 972 319 972 q 652 931 543 972 q 849 825 761 890 l 849 953 l 974 953 m 419 396 q 576 433 508 396 l 576 839 q 436 858 506 858 q 313 828 369 858 q 224 742 257 797 q 190 618 190 688 q 221 499 190 550 q 304 422 251 449 q 419 396 357 396 m 700 -210 q 808 -135 767 -189 q 849 8 849 -81 l 849 693 q 700 790 771 754 l 700 -210 z "},"©":{"ha":1419,"x_min":61,"x_max":1357,"o":"m 708 951 q 1038 871 889 951 q 1272 647 1186 790 q 1357 324 1357 503 q 1271 1 1357 144 q 1037 -222 1185 -142 q 708 -303 889 -303 q 382 -222 531 -303 q 147 3 233 -140 q 61 324 61 146 q 147 647 61 503 q 381 871 233 790 q 708 951 529 951 m 708 -226 q 994 -154 865 -226 q 1196 44 1122 -82 q 1269 324 1269 169 q 1196 606 1269 479 q 994 803 1122 732 q 708 875 865 875 q 424 803 553 875 q 223 606 296 732 q 150 324 150 479 q 224 44 150 169 q 425 -154 297 -82 q 708 -226 553 -226 m 715 108 q 826 136 776 108 q 918 214 875 164 l 982 138 q 708 6 871 6 q 549 43 622 6 q 433 150 476 81 q 389 310 389 219 q 429 472 389 401 q 538 580 469 542 q 689 618 607 618 q 802 594 751 617 q 888 533 853 572 l 888 608 l 979 608 l 979 393 l 907 389 q 710 525 849 525 q 608 498 654 525 q 533 422 561 471 q 506 310 506 372 q 535 205 506 251 q 614 133 565 158 q 715 108 663 108 z "},"®":{"ha":1419,"x_min":61,"x_max":1357,"o":"m 708 951 q 1038 871 889 951 q 1272 647 1186 790 q 1357 324 1357 503 q 1271 1 1357 144 q 1037 -222 1185 -142 q 708 -303 889 -303 q 382 -222 531 -303 q 147 3 233 -140 q 61 324 61 146 q 147 647 61 503 q 381 871 233 790 q 708 951 529 951 m 708 -226 q 994 -154 865 -226 q 1196 44 1122 -82 q 1269 324 1269 169 q 1196 606 1269 479 q 994 803 1122 732 q 708 875 865 875 q 424 803 553 875 q 223 606 296 732 q 150 324 150 479 q 224 44 150 169 q 425 -154 297 -82 q 708 -226 553 -226 m 981 186 l 1074 186 l 1074 158 q 1036 53 1074 96 q 936 11 999 11 q 835 51 872 11 q 769 164 797 90 q 729 238 751 210 q 686 274 707 265 l 589 274 l 589 100 l 690 100 l 690 21 l 388 21 l 388 100 l 492 100 l 492 528 l 388 528 l 388 608 l 764 608 q 920 563 865 608 q 975 443 975 517 q 926 331 975 381 q 789 275 876 282 q 856 192 832 250 q 893 119 878 139 q 932 99 908 99 q 968 116 956 99 q 981 158 981 133 l 981 186 m 589 354 l 764 354 q 842 378 811 354 q 874 443 874 401 q 843 506 874 483 q 764 528 813 528 l 589 528 l 589 354 z "},"§":{"ha":1036,"x_min":64,"x_max":982,"o":"m 982 246 q 924 103 982 164 q 753 10 865 42 q 889 -204 889 -79 q 852 -334 889 -278 q 749 -422 815 -390 q 599 -453 683 -453 q 271 -303 410 -453 l 271 -433 l 142 -433 l 142 -119 l 218 -114 q 385 -277 286 -217 q 583 -337 485 -337 q 697 -305 654 -337 q 740 -218 740 -272 q 674 -118 740 -158 q 454 -32 608 -78 q 163 91 263 21 q 64 274 64 161 q 123 416 64 356 q 296 508 182 476 q 157 722 157 597 q 194 853 157 796 q 298 941 232 910 q 447 972 364 972 q 775 822 638 972 l 775 953 l 903 953 l 903 636 l 826 632 q 660 796 760 735 q 461 857 560 857 q 349 824 392 857 q 307 738 307 792 q 374 636 307 678 q 593 551 440 594 q 883 428 785 497 q 982 246 982 358 m 665 57 q 788 116 742 75 q 835 215 835 157 q 762 326 835 283 q 529 413 689 369 q 382 463 457 431 q 259 403 306 444 q 213 304 213 363 q 285 192 213 235 q 517 108 357 150 q 665 57 600 85 z "},"™":{"ha":1197,"x_min":49,"x_max":1100,"o":"m 49 953 l 469 953 l 469 811 l 406 811 l 406 899 l 296 899 l 296 611 l 367 611 l 367 550 l 153 550 l 153 611 l 222 611 l 222 899 l 114 899 l 114 811 l 49 811 l 49 953 m 1036 893 l 1036 610 l 1100 610 l 1100 549 l 904 549 l 904 610 l 963 610 l 963 831 l 822 544 l 788 544 l 646 832 l 646 610 l 704 610 l 704 549 l 513 549 l 513 610 l 578 610 l 578 893 l 513 893 l 513 953 l 658 953 l 808 650 l 956 953 l 1100 953 l 1100 893 l 1036 893 z "},"°":{"ha":622,"x_min":76,"x_max":546,"o":"m 313 661 q 196 692 250 661 q 109 776 142 722 q 76 893 76 829 q 109 1011 76 958 q 196 1093 142 1064 q 313 1122 250 1122 q 431 1092 378 1122 q 515 1010 483 1063 q 546 892 546 958 q 515 775 546 828 q 430 692 483 722 q 313 661 376 661 m 314 750 q 409 792 371 750 q 447 892 447 833 q 409 994 447 953 q 314 1035 371 1035 q 217 994 257 1035 q 178 893 178 954 q 218 792 178 835 q 314 750 258 750 z "},"℮":{"ha":1035,"x_min":69,"x_max":908,"o":"m 335 399 l 335 151 q 515 93 417 93 q 688 128 604 93 q 840 231 771 164 l 899 139 q 719 22 819 63 q 504 -18 619 -18 q 294 34 394 -18 q 132 188 194 86 q 69 428 69 289 q 134 674 69 571 q 301 830 199 778 q 517 882 404 882 q 720 826 631 882 q 859 678 810 771 q 908 482 908 586 q 900 401 908 435 l 335 399 m 518 775 q 335 714 417 775 l 335 500 l 664 501 l 664 726 q 518 775 600 775 z "},"ℓ":{"ha":754,"x_min":99,"x_max":699,"o":"m 349 103 q 557 186 454 103 l 622 92 q 326 -18 474 -18 q 160 44 222 -18 q 99 211 99 107 q 105 292 99 244 q 121 381 111 340 l 193 693 q 306 934 228 849 q 490 1019 383 1019 q 647 954 594 1019 q 699 781 699 889 q 649 581 699 672 q 522 438 600 490 q 365 386 444 386 q 258 417 303 386 l 242 346 q 228 233 228 290 q 260 140 228 176 q 349 103 292 103 m 282 513 q 354 490 314 490 q 455 531 404 490 q 538 641 506 572 q 571 788 571 710 q 481 908 571 908 q 391 853 431 908 q 326 694 351 799 l 282 513 z "},"^":{"ha":771,"x_min":71,"x_max":700,"o":"m 565 596 l 392 975 l 207 596 l 71 596 l 356 1129 l 433 1129 l 700 596 l 565 596 z "},"†":{"ha":728,"x_min":46,"x_max":683,"o":"m 338 938 q 319 1006 333 963 q 301 1081 301 1060 q 317 1125 301 1107 q 367 1144 333 1143 q 415 1124 399 1143 q 432 1081 432 1106 q 424 1041 432 1065 q 415 1013 417 1017 q 394 938 397 961 l 388 894 l 343 894 l 338 938 m 110 757 q 66 774 85 757 q 46 824 47 790 q 66 872 47 856 q 110 889 85 889 q 149 881 125 889 q 178 872 174 874 q 253 851 229 854 l 294 843 l 294 800 l 253 793 q 179 774 236 790 q 110 757 126 757 m 619 757 q 580 765 604 757 q 551 774 556 772 q 476 793 497 790 l 433 800 l 433 843 l 476 851 q 553 872 497 854 q 582 881 558 874 q 619 889 606 889 q 664 872 644 889 q 683 824 683 854 q 665 774 683 790 q 619 757 646 757 m 367 222 q 317 242 333 224 q 301 288 301 261 q 315 418 301 293 q 339 631 336 585 l 343 749 l 388 749 l 392 631 q 415 432 394 590 q 432 288 432 296 q 415 242 432 261 q 367 222 399 224 z "},"‡":{"ha":728,"x_min":46,"x_max":683,"o":"m 338 938 q 319 1006 333 963 q 301 1081 301 1060 q 317 1125 301 1107 q 367 1144 333 1143 q 415 1124 399 1143 q 432 1081 432 1106 q 424 1041 432 1065 q 415 1013 417 1017 q 394 938 397 961 l 388 894 l 343 894 l 338 938 m 110 757 q 66 774 85 757 q 46 824 47 790 q 66 872 47 856 q 110 889 85 889 q 149 881 125 889 q 178 872 174 874 q 253 851 229 854 l 294 843 l 294 800 l 253 793 q 179 774 236 790 q 110 757 126 757 m 619 757 q 580 765 604 757 q 551 774 556 772 q 476 793 497 790 l 433 800 l 433 843 l 476 851 q 553 872 497 854 q 582 881 558 874 q 619 889 606 889 q 664 872 644 889 q 683 824 683 854 q 665 774 683 790 q 619 757 646 757 m 343 521 q 339 550 343 533 q 333 572 335 567 q 322 635 322 617 q 333 697 322 656 q 339 720 335 704 q 343 747 343 736 l 388 747 q 392 720 388 736 q 397 697 396 704 q 410 635 410 660 q 399 572 410 617 q 388 521 388 536 l 343 521 m 110 374 q 66 390 85 374 q 46 439 47 407 q 65 488 47 472 q 110 503 83 503 q 181 488 129 503 q 253 468 217 474 l 294 463 l 294 418 l 253 411 q 181 390 226 407 q 150 381 175 389 q 110 374 125 374 m 619 374 q 581 381 604 374 q 550 390 557 389 q 476 411 506 406 l 433 418 l 433 463 l 476 468 q 550 488 511 474 q 619 503 601 503 q 665 488 646 503 q 683 439 683 472 q 664 391 683 408 q 619 374 644 374 m 367 118 q 317 138 333 119 q 301 183 301 157 q 309 224 301 199 q 318 254 317 249 q 338 325 333 306 l 343 368 l 388 368 l 394 325 q 415 249 397 304 q 432 183 432 199 q 415 138 432 157 q 367 118 399 119 z "},"℠":{"ha":1179,"x_min":88,"x_max":1081,"o":"m 286 788 q 412 734 368 765 q 456 651 456 703 q 417 571 456 600 q 313 542 378 542 q 151 606 225 542 l 151 549 l 88 549 l 88 696 l 131 694 q 210 625 165 650 q 306 600 256 600 q 359 611 339 600 q 379 644 379 622 q 350 681 379 667 q 244 715 321 696 q 89 849 89 753 q 126 931 89 900 q 225 961 164 961 q 374 899 308 961 l 374 953 l 438 953 l 438 810 l 397 808 q 327 876 368 851 q 238 900 286 900 q 185 888 204 900 q 167 853 167 875 q 194 819 167 833 q 286 788 221 806 m 1015 893 l 1015 610 l 1081 610 l 1081 549 l 886 549 l 886 610 l 943 610 l 943 828 l 804 544 l 769 544 l 626 836 l 626 610 l 685 610 l 685 549 l 493 549 l 493 610 l 560 610 l 560 893 l 493 893 l 493 953 l 640 953 l 790 649 l 938 953 l 1081 953 l 1081 893 l 1015 893 z "},"̈":{"ha":800,"x_min":149,"x_max":644,"o":"m 243 1104 q 176 1126 204 1104 q 149 1181 149 1147 q 176 1237 149 1214 q 243 1260 204 1260 q 312 1238 285 1260 q 339 1181 339 1215 q 312 1126 339 1147 q 243 1104 285 1104 m 549 1104 q 482 1126 510 1104 q 454 1181 454 1147 q 482 1237 454 1214 q 549 1260 510 1260 q 617 1238 589 1260 q 644 1181 644 1215 q 617 1126 644 1147 q 549 1104 589 1104 z "},"̇":{"ha":410,"x_min":99,"x_max":314,"o":"m 206 1183 q 129 1207 160 1183 q 99 1265 99 1231 q 129 1327 99 1303 q 206 1351 160 1351 q 283 1327 253 1351 q 314 1265 314 1303 q 283 1206 314 1229 q 206 1183 253 1183 z "},"̀":{"ha":646,"x_min":136,"x_max":485,"o":"m 210 1353 l 136 1253 l 446 1047 l 485 1100 l 210 1353 z "},"́":{"ha":646,"x_min":136,"x_max":485,"o":"m 176 1047 l 485 1253 l 411 1353 l 136 1100 l 176 1047 z "},"̋":{"ha":840,"x_min":165,"x_max":686,"o":"m 165 1093 l 324 1364 l 422 1292 l 229 1046 l 165 1093 m 429 1093 l 588 1364 l 686 1292 l 493 1046 l 429 1093 z "},"̂":{"ha":600,"x_min":53,"x_max":549,"o":"m 53 1088 l 264 1332 l 336 1332 l 549 1088 l 506 1047 l 299 1219 l 97 1047 l 53 1088 z "},"̌":{"ha":600,"x_min":53,"x_max":549,"o":"m 549 1300 l 336 1056 l 264 1056 l 53 1300 l 97 1342 l 300 1169 l 506 1342 l 549 1300 z "},"̆":{"ha":683,"x_min":89,"x_max":593,"o":"m 342 1069 q 213 1103 269 1069 q 126 1188 157 1136 q 89 1297 94 1240 l 174 1314 q 234 1221 189 1257 q 342 1185 279 1185 q 449 1221 404 1185 q 508 1314 493 1257 l 593 1297 q 556 1188 588 1240 q 469 1103 525 1136 q 342 1069 414 1069 z "},"̊":{"ha":575,"x_min":89,"x_max":486,"o":"m 288 1043 q 190 1069 235 1043 q 117 1140 144 1096 q 89 1239 89 1185 q 116 1339 89 1294 q 189 1408 143 1383 q 288 1432 235 1432 q 387 1406 342 1432 q 459 1336 432 1381 q 486 1236 486 1292 q 459 1137 486 1181 q 387 1068 432 1093 q 288 1043 342 1043 m 288 1118 q 372 1153 338 1118 q 407 1236 407 1188 q 372 1322 407 1288 q 288 1356 338 1356 q 204 1322 239 1356 q 169 1239 169 1289 q 204 1153 169 1189 q 288 1118 239 1118 z "},"̃":{"ha":754,"x_min":89,"x_max":665,"o":"m 503 1056 q 422 1079 456 1056 q 350 1149 389 1103 q 295 1207 315 1190 q 249 1224 275 1224 q 169 1076 181 1224 l 89 1085 q 133 1243 92 1182 q 249 1304 174 1304 q 333 1281 299 1304 q 406 1211 367 1258 q 458 1154 438 1171 q 503 1138 479 1138 q 583 1282 575 1138 l 665 1275 q 619 1117 663 1179 q 503 1056 576 1056 z "},"̄":{"ha":726,"x_min":99,"x_max":625,"o":"m 625 1128 l 99 1129 l 99 1229 l 625 1226 l 625 1128 z "},"̉":{"ha":761,"x_min":129,"x_max":457,"o":"m 331 1031 q 360 1080 350 1058 q 369 1126 369 1101 q 347 1181 369 1161 q 282 1201 324 1201 q 160 1163 225 1201 l 129 1238 q 297 1286 207 1286 q 410 1250 364 1286 q 457 1156 457 1214 q 434 1069 457 1108 q 365 985 411 1031 l 315 1006 l 331 1031 z "},"̒":{"ha":385,"x_min":89,"x_max":296,"o":"m 89 1149 q 128 1269 89 1206 q 233 1385 168 1332 l 267 1349 q 189 1256 217 1303 q 158 1169 161 1208 q 213 1179 178 1179 q 272 1160 247 1179 q 296 1110 296 1142 q 267 1053 296 1076 q 199 1031 239 1031 q 119 1063 150 1031 q 89 1149 89 1094 z "},"̦":{"ha":404,"x_min":92,"x_max":297,"o":"m 297 -257 q 258 -378 297 -315 q 154 -494 218 -442 l 121 -460 q 198 -366 171 -412 q 228 -279 225 -319 q 174 -289 207 -289 q 115 -269 139 -289 q 92 -218 92 -250 q 120 -162 92 -185 q 188 -140 149 -140 q 267 -172 236 -140 q 297 -257 297 -203 z "},"̧":{"ha":428,"x_min":13,"x_max":394,"o":"m 211 -346 q 13 -278 111 -346 l 53 -210 q 211 -268 132 -268 q 278 -251 253 -268 q 303 -207 303 -235 q 279 -160 303 -176 q 214 -144 256 -144 q 133 -150 181 -144 l 125 -137 l 194 32 l 267 32 l 219 -85 l 251 -83 q 355 -117 315 -83 q 394 -207 394 -151 q 340 -308 394 -269 q 211 -346 286 -346 z "},"̨":{"ha":483,"x_min":89,"x_max":392,"o":"m 286 -14 q 208 -83 238 -49 q 178 -160 178 -117 q 201 -214 178 -194 q 261 -233 225 -233 q 364 -203 314 -233 l 392 -281 q 325 -310 357 -300 q 250 -319 293 -319 q 135 -282 182 -319 q 89 -182 89 -244 q 132 -65 89 -114 q 236 15 175 -17 l 286 -14 z "},"̵":{"ha":819,"x_min":92,"x_max":703,"o":"m 703 374 l 92 374 l 92 490 l 703 490 l 703 374 z "},"̷":{"ha":660,"x_min":119,"x_max":542,"o":"m 119 122 l 429 717 l 542 717 l 232 122 l 119 122 z "},"̸":{"ha":685,"x_min":31,"x_max":640,"o":"m 31 -146 l 518 1028 l 640 1028 l 153 -146 l 31 -146 z "},"ʻ":{"ha":385,"x_min":89,"x_max":296,"o":"m 89 -351 q 129 -230 89 -294 q 233 -115 169 -165 l 267 -150 q 189 -244 217 -197 q 158 -329 161 -290 q 213 -319 182 -319 q 272 -340 247 -319 q 296 -392 296 -360 q 267 -447 296 -425 q 199 -469 239 -469 q 119 -438 150 -469 q 89 -351 89 -407 z "},"ʺ":{"ha":696,"x_min":142,"x_max":583,"o":"m 318 1003 l 228 646 l 142 653 l 176 1022 l 318 1003 m 583 1001 l 490 644 l 406 651 l 440 1022 l 583 1001 z "},"ʹ":{"ha":451,"x_min":142,"x_max":339,"o":"m 339 996 l 224 644 l 142 658 l 199 1026 l 339 996 z "}}}
